G04 #@! TF.GenerationSoftware,KiCad,Pcbnew,(6.0.5)*
G04 #@! TF.CreationDate,2023-10-06T12:52:39-04:00*
G04 #@! TF.ProjectId,v1,76312e6b-6963-4616-945f-706362585858,rev?*
G04 #@! TF.SameCoordinates,Original*
G04 #@! TF.FileFunction,Soldermask,Bot*
G04 #@! TF.FilePolarity,Negative*
%FSLAX46Y46*%
G04 Gerber Fmt 4.6, Leading zero omitted, Abs format (unit mm)*
G04 Created by KiCad (PCBNEW (6.0.5)) date 2023-10-06 12:52:39*
%MOMM*%
%LPD*%
G01*
G04 APERTURE LIST*
%ADD10R,1.700000X1.700000*%
%ADD11O,1.700000X1.700000*%
%ADD12C,4.400000*%
%ADD13R,1.400000X1.400000*%
%ADD14C,1.400000*%
%ADD15O,1.700000X1.000000*%
%ADD16C,2.600000*%
%ADD17C,3.600000*%
G04 APERTURE END LIST*
D10*
X117500000Y-129000000D03*
D11*
X117500000Y-126460000D03*
D10*
X104040000Y-69000000D03*
D11*
X101500000Y-69000000D03*
X98960000Y-69000000D03*
D10*
X205000000Y-94318750D03*
D11*
X205000000Y-91778750D03*
D12*
X90500000Y-68000000D03*
D10*
X130000000Y-121000000D03*
D11*
X130000000Y-118460000D03*
D10*
X117500000Y-121000000D03*
D11*
X117500000Y-118460000D03*
D10*
X136200000Y-130000000D03*
D11*
X138740000Y-130000000D03*
X141280000Y-130000000D03*
X143820000Y-130000000D03*
D10*
X97420000Y-113775000D03*
D11*
X97420000Y-111235000D03*
X99960000Y-113775000D03*
X99960000Y-111235000D03*
X102500000Y-113775000D03*
X102500000Y-111235000D03*
X105040000Y-113775000D03*
X105040000Y-111235000D03*
X107580000Y-113775000D03*
X107580000Y-111235000D03*
X110120000Y-113775000D03*
X110120000Y-111235000D03*
D10*
X205000000Y-85000000D03*
D11*
X205000000Y-82460000D03*
D10*
X130000000Y-129040000D03*
D11*
X130000000Y-126500000D03*
D13*
X200000000Y-98850000D03*
D14*
X202500000Y-98850000D03*
X205000000Y-98850000D03*
X200000000Y-102150000D03*
X202500000Y-102150000D03*
X205000000Y-102150000D03*
D10*
X205000000Y-111725000D03*
D11*
X205000000Y-114265000D03*
D10*
X105000000Y-121000000D03*
D11*
X105000000Y-118460000D03*
D10*
X105000000Y-129000000D03*
D11*
X105000000Y-126460000D03*
D15*
X88850000Y-111375000D03*
X88850000Y-105725000D03*
D12*
X90500000Y-129500000D03*
X204500000Y-68000000D03*
X204500000Y-129500000D03*
D16*
X162187500Y-112200000D03*
X158687500Y-112200000D03*
D17*
X164687500Y-73400000D03*
X156187500Y-72500000D03*
X156187500Y-107700000D03*
X164687500Y-106200000D03*
D16*
X162187500Y-68400000D03*
X130875000Y-112200000D03*
X127375000Y-112200000D03*
D17*
X133375000Y-73400000D03*
X124875000Y-72500000D03*
D16*
X130875000Y-68400000D03*
D17*
X124875000Y-107700000D03*
X133375000Y-106200000D03*
D16*
X177843750Y-112200000D03*
X174343750Y-112200000D03*
X177843750Y-68400000D03*
D17*
X171843750Y-107700000D03*
X180343750Y-73400000D03*
X180343750Y-106200000D03*
X171843750Y-72500000D03*
D16*
X193500000Y-112200000D03*
X190000000Y-112200000D03*
X193500000Y-68400000D03*
D17*
X196000000Y-106200000D03*
X187500000Y-107700000D03*
X187500000Y-72500000D03*
X196000000Y-73400000D03*
D16*
X146531250Y-112200000D03*
X143031250Y-112200000D03*
D17*
X140531250Y-107700000D03*
X140531250Y-72500000D03*
X149031250Y-106200000D03*
D16*
X146531250Y-68400000D03*
D17*
X149031250Y-73400000D03*
M02*
