G04 #@! TF.GenerationSoftware,KiCad,Pcbnew,(6.0.5)*
G04 #@! TF.CreationDate,2023-10-06T12:52:39-04:00*
G04 #@! TF.ProjectId,v1,76312e6b-6963-4616-945f-706362585858,rev?*
G04 #@! TF.SameCoordinates,Original*
G04 #@! TF.FileFunction,Legend,Bot*
G04 #@! TF.FilePolarity,Positive*
%FSLAX46Y46*%
G04 Gerber Fmt 4.6, Leading zero omitted, Abs format (unit mm)*
G04 Created by KiCad (PCBNEW (6.0.5)) date 2023-10-06 12:52:39*
%MOMM*%
%LPD*%
G01*
G04 APERTURE LIST*
%ADD10C,0.150000*%
%ADD11R,1.700000X1.700000*%
%ADD12O,1.700000X1.700000*%
%ADD13C,4.400000*%
%ADD14R,1.400000X1.400000*%
%ADD15C,1.400000*%
%ADD16O,1.700000X1.000000*%
%ADD17C,2.600000*%
%ADD18C,3.600000*%
G04 APERTURE END LIST*
D10*
X161735119Y-90795238D02*
X162211309Y-91128571D01*
X161735119Y-91366666D02*
X162735119Y-91366666D01*
X162735119Y-90985714D01*
X162687500Y-90890476D01*
X162639880Y-90842857D01*
X162544642Y-90795238D01*
X162401785Y-90795238D01*
X162306547Y-90842857D01*
X162258928Y-90890476D01*
X162211309Y-90985714D01*
X162211309Y-91366666D01*
X162735119Y-90509523D02*
X161735119Y-90176190D01*
X162735119Y-89842857D01*
X162735119Y-89033333D02*
X162735119Y-89509523D01*
X162258928Y-89557142D01*
X162306547Y-89509523D01*
X162354166Y-89414285D01*
X162354166Y-89176190D01*
X162306547Y-89080952D01*
X162258928Y-89033333D01*
X162163690Y-88985714D01*
X161925595Y-88985714D01*
X161830357Y-89033333D01*
X161782738Y-89080952D01*
X161735119Y-89176190D01*
X161735119Y-89414285D01*
X161782738Y-89509523D01*
X161830357Y-89557142D01*
X130422619Y-90795238D02*
X130898809Y-91128571D01*
X130422619Y-91366666D02*
X131422619Y-91366666D01*
X131422619Y-90985714D01*
X131375000Y-90890476D01*
X131327380Y-90842857D01*
X131232142Y-90795238D01*
X131089285Y-90795238D01*
X130994047Y-90842857D01*
X130946428Y-90890476D01*
X130898809Y-90985714D01*
X130898809Y-91366666D01*
X131422619Y-90509523D02*
X130422619Y-90176190D01*
X131422619Y-89842857D01*
X131089285Y-89080952D02*
X130422619Y-89080952D01*
X131470238Y-89319047D02*
X130755952Y-89557142D01*
X130755952Y-88938095D01*
X177391369Y-90795238D02*
X177867559Y-91128571D01*
X177391369Y-91366666D02*
X178391369Y-91366666D01*
X178391369Y-90985714D01*
X178343750Y-90890476D01*
X178296130Y-90842857D01*
X178200892Y-90795238D01*
X178058035Y-90795238D01*
X177962797Y-90842857D01*
X177915178Y-90890476D01*
X177867559Y-90985714D01*
X177867559Y-91366666D01*
X178391369Y-90509523D02*
X177391369Y-90176190D01*
X178391369Y-89842857D01*
X177391369Y-88985714D02*
X177391369Y-89557142D01*
X177391369Y-89271428D02*
X178391369Y-89271428D01*
X178248511Y-89366666D01*
X178153273Y-89461904D01*
X178105654Y-89557142D01*
X193047619Y-90795238D02*
X193523809Y-91128571D01*
X193047619Y-91366666D02*
X194047619Y-91366666D01*
X194047619Y-90985714D01*
X194000000Y-90890476D01*
X193952380Y-90842857D01*
X193857142Y-90795238D01*
X193714285Y-90795238D01*
X193619047Y-90842857D01*
X193571428Y-90890476D01*
X193523809Y-90985714D01*
X193523809Y-91366666D01*
X194047619Y-90509523D02*
X193047619Y-90176190D01*
X194047619Y-89842857D01*
X193952380Y-89557142D02*
X194000000Y-89509523D01*
X194047619Y-89414285D01*
X194047619Y-89176190D01*
X194000000Y-89080952D01*
X193952380Y-89033333D01*
X193857142Y-88985714D01*
X193761904Y-88985714D01*
X193619047Y-89033333D01*
X193047619Y-89604761D01*
X193047619Y-88985714D01*
X146078869Y-90795238D02*
X146555059Y-91128571D01*
X146078869Y-91366666D02*
X147078869Y-91366666D01*
X147078869Y-90985714D01*
X147031250Y-90890476D01*
X146983630Y-90842857D01*
X146888392Y-90795238D01*
X146745535Y-90795238D01*
X146650297Y-90842857D01*
X146602678Y-90890476D01*
X146555059Y-90985714D01*
X146555059Y-91366666D01*
X147078869Y-90509523D02*
X146078869Y-90176190D01*
X147078869Y-89842857D01*
X147078869Y-89604761D02*
X147078869Y-88985714D01*
X146697916Y-89319047D01*
X146697916Y-89176190D01*
X146650297Y-89080952D01*
X146602678Y-89033333D01*
X146507440Y-88985714D01*
X146269345Y-88985714D01*
X146174107Y-89033333D01*
X146126488Y-89080952D01*
X146078869Y-89176190D01*
X146078869Y-89461904D01*
X146126488Y-89557142D01*
X146174107Y-89604761D01*
%LPC*%
D11*
X117500000Y-129000000D03*
D12*
X117500000Y-126460000D03*
D11*
X104040000Y-69000000D03*
D12*
X101500000Y-69000000D03*
X98960000Y-69000000D03*
D11*
X205000000Y-94318750D03*
D12*
X205000000Y-91778750D03*
D13*
X90500000Y-68000000D03*
D11*
X130000000Y-121000000D03*
D12*
X130000000Y-118460000D03*
D11*
X117500000Y-121000000D03*
D12*
X117500000Y-118460000D03*
D11*
X136200000Y-130000000D03*
D12*
X138740000Y-130000000D03*
X141280000Y-130000000D03*
X143820000Y-130000000D03*
D11*
X97420000Y-113775000D03*
D12*
X97420000Y-111235000D03*
X99960000Y-113775000D03*
X99960000Y-111235000D03*
X102500000Y-113775000D03*
X102500000Y-111235000D03*
X105040000Y-113775000D03*
X105040000Y-111235000D03*
X107580000Y-113775000D03*
X107580000Y-111235000D03*
X110120000Y-113775000D03*
X110120000Y-111235000D03*
D11*
X205000000Y-85000000D03*
D12*
X205000000Y-82460000D03*
D11*
X130000000Y-129040000D03*
D12*
X130000000Y-126500000D03*
D14*
X200000000Y-98850000D03*
D15*
X202500000Y-98850000D03*
X205000000Y-98850000D03*
X200000000Y-102150000D03*
X202500000Y-102150000D03*
X205000000Y-102150000D03*
D11*
X205000000Y-111725000D03*
D12*
X205000000Y-114265000D03*
D11*
X105000000Y-121000000D03*
D12*
X105000000Y-118460000D03*
D11*
X105000000Y-129000000D03*
D12*
X105000000Y-126460000D03*
D16*
X88850000Y-111375000D03*
X88850000Y-105725000D03*
D13*
X90500000Y-129500000D03*
X204500000Y-68000000D03*
X204500000Y-129500000D03*
D17*
X162187500Y-112200000D03*
X158687500Y-112200000D03*
D18*
X164687500Y-73400000D03*
X156187500Y-72500000D03*
X156187500Y-107700000D03*
X164687500Y-106200000D03*
D17*
X162187500Y-68400000D03*
X130875000Y-112200000D03*
X127375000Y-112200000D03*
D18*
X133375000Y-73400000D03*
X124875000Y-72500000D03*
D17*
X130875000Y-68400000D03*
D18*
X124875000Y-107700000D03*
X133375000Y-106200000D03*
D17*
X177843750Y-112200000D03*
X174343750Y-112200000D03*
X177843750Y-68400000D03*
D18*
X171843750Y-107700000D03*
X180343750Y-73400000D03*
X180343750Y-106200000D03*
X171843750Y-72500000D03*
D17*
X193500000Y-112200000D03*
X190000000Y-112200000D03*
X193500000Y-68400000D03*
D18*
X196000000Y-106200000D03*
X187500000Y-107700000D03*
X187500000Y-72500000D03*
X196000000Y-73400000D03*
D17*
X146531250Y-112200000D03*
X143031250Y-112200000D03*
D18*
X140531250Y-107700000D03*
X140531250Y-72500000D03*
X149031250Y-106200000D03*
D17*
X146531250Y-68400000D03*
D18*
X149031250Y-73400000D03*
M02*
