%FSLAX45Y45*%
G04 Gerber Fmt 4.5, Leading zero omitted, Abs format (unit mm)*
G04 Created by KiCad (PCBNEW (6.0.5)) date 2023-10-06 12:52:46*
%MOMM*%
%LPD*%
G01*
G04 APERTURE LIST*
%TA.AperFunction,Profile*%
%ADD10C,0.100000*%
%TD*%
%ADD11C,0.200000*%
G04 APERTURE END LIST*
D10*
X8750000Y-6500000D02*
X20750000Y-6500000D01*
X20750000Y-6500000D02*
X20750000Y-13250000D01*
X20750000Y-13250000D02*
X8750000Y-13250000D01*
X8750000Y-13250000D02*
X8750000Y-6500000D01*
D11*
X9002619Y-13565476D02*
X9002619Y-13365476D01*
X9050238Y-13365476D01*
X9078810Y-13375000D01*
X9097857Y-13394048D01*
X9107381Y-13413095D01*
X9116905Y-13451190D01*
X9116905Y-13479762D01*
X9107381Y-13517857D01*
X9097857Y-13536905D01*
X9078810Y-13555952D01*
X9050238Y-13565476D01*
X9002619Y-13565476D01*
X9202619Y-13565476D02*
X9202619Y-13432143D01*
X9202619Y-13470238D02*
X9212143Y-13451190D01*
X9221667Y-13441667D01*
X9240714Y-13432143D01*
X9259762Y-13432143D01*
X9326429Y-13565476D02*
X9326429Y-13432143D01*
X9326429Y-13365476D02*
X9316905Y-13375000D01*
X9326429Y-13384524D01*
X9335952Y-13375000D01*
X9326429Y-13365476D01*
X9326429Y-13384524D01*
X9450238Y-13565476D02*
X9431190Y-13555952D01*
X9421667Y-13536905D01*
X9421667Y-13365476D01*
X9555000Y-13565476D02*
X9535952Y-13555952D01*
X9526429Y-13536905D01*
X9526429Y-13365476D01*
X9783571Y-13565476D02*
X9783571Y-13365476D01*
X9850238Y-13508333D01*
X9916905Y-13365476D01*
X9916905Y-13565476D01*
X10097857Y-13565476D02*
X10097857Y-13460714D01*
X10088333Y-13441667D01*
X10069286Y-13432143D01*
X10031190Y-13432143D01*
X10012143Y-13441667D01*
X10097857Y-13555952D02*
X10078810Y-13565476D01*
X10031190Y-13565476D01*
X10012143Y-13555952D01*
X10002619Y-13536905D01*
X10002619Y-13517857D01*
X10012143Y-13498809D01*
X10031190Y-13489286D01*
X10078810Y-13489286D01*
X10097857Y-13479762D01*
X10193095Y-13432143D02*
X10193095Y-13632143D01*
X10193095Y-13441667D02*
X10212143Y-13432143D01*
X10250238Y-13432143D01*
X10269286Y-13441667D01*
X10278810Y-13451190D01*
X10288333Y-13470238D01*
X10288333Y-13527381D01*
X10278810Y-13546428D01*
X10269286Y-13555952D01*
X10250238Y-13565476D01*
X10212143Y-13565476D01*
X10193095Y-13555952D01*
X10374048Y-13546428D02*
X10383571Y-13555952D01*
X10374048Y-13565476D01*
X10364524Y-13555952D01*
X10374048Y-13546428D01*
X10374048Y-13565476D01*
X10374048Y-13441667D02*
X10383571Y-13451190D01*
X10374048Y-13460714D01*
X10364524Y-13451190D01*
X10374048Y-13441667D01*
X10374048Y-13460714D01*
M02*
