G04 #@! TF.GenerationSoftware,KiCad,Pcbnew,(6.0.5)*
G04 #@! TF.CreationDate,2023-10-11T11:29:23-04:00*
G04 #@! TF.ProjectId,v1,76312e6b-6963-4616-945f-706362585858,rev?*
G04 #@! TF.SameCoordinates,Original*
G04 #@! TF.FileFunction,Soldermask,Top*
G04 #@! TF.FilePolarity,Negative*
%FSLAX46Y46*%
G04 Gerber Fmt 4.6, Leading zero omitted, Abs format (unit mm)*
G04 Created by KiCad (PCBNEW (6.0.5)) date 2023-10-11 11:29:23*
%MOMM*%
%LPD*%
G01*
G04 APERTURE LIST*
G04 Aperture macros list*
%AMRoundRect*
0 Rectangle with rounded corners*
0 $1 Rounding radius*
0 $2 $3 $4 $5 $6 $7 $8 $9 X,Y pos of 4 corners*
0 Add a 4 corners polygon primitive as box body*
4,1,4,$2,$3,$4,$5,$6,$7,$8,$9,$2,$3,0*
0 Add four circle primitives for the rounded corners*
1,1,$1+$1,$2,$3*
1,1,$1+$1,$4,$5*
1,1,$1+$1,$6,$7*
1,1,$1+$1,$8,$9*
0 Add four rect primitives between the rounded corners*
20,1,$1+$1,$2,$3,$4,$5,0*
20,1,$1+$1,$4,$5,$6,$7,0*
20,1,$1+$1,$6,$7,$8,$9,0*
20,1,$1+$1,$8,$9,$2,$3,0*%
%AMFreePoly0*
4,1,6,1.000000,0.000000,0.500000,-0.750000,-0.500000,-0.750000,-0.500000,0.750000,0.500000,0.750000,1.000000,0.000000,1.000000,0.000000,$1*%
%AMFreePoly1*
4,1,6,0.500000,-0.750000,-0.650000,-0.750000,-0.150000,0.000000,-0.650000,0.750000,0.500000,0.750000,0.500000,-0.750000,0.500000,-0.750000,$1*%
%AMFreePoly2*
4,1,9,3.862500,-0.866500,0.737500,-0.866500,0.737500,-0.450000,-0.737500,-0.450000,-0.737500,0.450000,0.737500,0.450000,0.737500,0.866500,3.862500,0.866500,3.862500,-0.866500,3.862500,-0.866500,$1*%
G04 Aperture macros list end*
%ADD10RoundRect,0.200000X-0.200000X-0.275000X0.200000X-0.275000X0.200000X0.275000X-0.200000X0.275000X0*%
%ADD11RoundRect,0.225000X0.225000X0.250000X-0.225000X0.250000X-0.225000X-0.250000X0.225000X-0.250000X0*%
%ADD12RoundRect,0.200000X0.200000X0.275000X-0.200000X0.275000X-0.200000X-0.275000X0.200000X-0.275000X0*%
%ADD13C,2.000000*%
%ADD14R,1.700000X1.700000*%
%ADD15O,1.700000X1.700000*%
%ADD16RoundRect,0.225000X0.250000X-0.225000X0.250000X0.225000X-0.250000X0.225000X-0.250000X-0.225000X0*%
%ADD17RoundRect,0.225000X-0.225000X-0.250000X0.225000X-0.250000X0.225000X0.250000X-0.225000X0.250000X0*%
%ADD18RoundRect,0.200000X0.275000X-0.200000X0.275000X0.200000X-0.275000X0.200000X-0.275000X-0.200000X0*%
%ADD19C,4.400000*%
%ADD20RoundRect,0.218750X-0.256250X0.218750X-0.256250X-0.218750X0.256250X-0.218750X0.256250X0.218750X0*%
%ADD21RoundRect,0.200000X-0.275000X0.200000X-0.275000X-0.200000X0.275000X-0.200000X0.275000X0.200000X0*%
%ADD22RoundRect,0.225000X-0.250000X0.225000X-0.250000X-0.225000X0.250000X-0.225000X0.250000X0.225000X0*%
%ADD23O,0.200000X0.875000*%
%ADD24O,0.875000X0.200000*%
%ADD25R,3.200000X3.200000*%
%ADD26R,0.558800X2.108200*%
%ADD27R,0.355600X1.676400*%
%ADD28RoundRect,0.150000X0.150000X-0.512500X0.150000X0.512500X-0.150000X0.512500X-0.150000X-0.512500X0*%
%ADD29R,1.400000X1.400000*%
%ADD30C,1.400000*%
%ADD31RoundRect,0.218750X0.256250X-0.218750X0.256250X0.218750X-0.256250X0.218750X-0.256250X-0.218750X0*%
%ADD32RoundRect,0.150000X-0.650000X-0.150000X0.650000X-0.150000X0.650000X0.150000X-0.650000X0.150000X0*%
%ADD33R,1.150000X1.000000*%
%ADD34R,0.400000X0.900000*%
%ADD35RoundRect,0.150000X-0.512500X-0.150000X0.512500X-0.150000X0.512500X0.150000X-0.512500X0.150000X0*%
%ADD36RoundRect,0.250000X-0.325000X-1.100000X0.325000X-1.100000X0.325000X1.100000X-0.325000X1.100000X0*%
%ADD37FreePoly0,270.000000*%
%ADD38FreePoly1,270.000000*%
%ADD39R,1.500000X0.550000*%
%ADD40R,0.300000X1.400000*%
%ADD41R,1.360000X0.400000*%
%ADD42O,1.700000X1.000000*%
%ADD43R,1.900000X1.950000*%
%ADD44R,1.600000X2.100000*%
%ADD45R,0.900000X1.300000*%
%ADD46FreePoly2,270.000000*%
%ADD47RoundRect,0.250000X0.325000X1.100000X-0.325000X1.100000X-0.325000X-1.100000X0.325000X-1.100000X0*%
%ADD48C,2.600000*%
%ADD49C,3.600000*%
G04 APERTURE END LIST*
D10*
X124175000Y-120000000D03*
X125825000Y-120000000D03*
D11*
X115500000Y-87000000D03*
X113950000Y-87000000D03*
D12*
X184825000Y-91500000D03*
X183175000Y-91500000D03*
D13*
X199400000Y-125600000D03*
D14*
X117500000Y-129000000D03*
D15*
X117500000Y-126460000D03*
D14*
X104040000Y-69000000D03*
D15*
X101500000Y-69000000D03*
X98960000Y-69000000D03*
D14*
X205000000Y-94318750D03*
D15*
X205000000Y-91778750D03*
D16*
X100400000Y-92712500D03*
X100400000Y-91162500D03*
D10*
X99175000Y-120000000D03*
X100825000Y-120000000D03*
D17*
X195905000Y-113500000D03*
X197455000Y-113500000D03*
D18*
X158862500Y-120325000D03*
X158862500Y-118675000D03*
D12*
X113325000Y-122500000D03*
X111675000Y-122500000D03*
D11*
X184775000Y-93500000D03*
X183225000Y-93500000D03*
D19*
X90500000Y-68000000D03*
D20*
X159500000Y-126252500D03*
X159500000Y-127827500D03*
D21*
X172875000Y-126487500D03*
X172875000Y-128137500D03*
D13*
X190800000Y-119900000D03*
D17*
X195905000Y-115500000D03*
X197455000Y-115500000D03*
D10*
X99175000Y-128000000D03*
X100825000Y-128000000D03*
D14*
X130000000Y-121000000D03*
D15*
X130000000Y-118460000D03*
D11*
X138275000Y-127000000D03*
X136725000Y-127000000D03*
D22*
X107000000Y-104662500D03*
X107000000Y-106212500D03*
D21*
X113000000Y-102287500D03*
X113000000Y-103937500D03*
D11*
X194775000Y-87500000D03*
X193225000Y-87500000D03*
D21*
X157000000Y-126215000D03*
X157000000Y-127865000D03*
D14*
X117500000Y-121000000D03*
D15*
X117500000Y-118460000D03*
D13*
X120300000Y-111800000D03*
D23*
X104600000Y-95000000D03*
X104200000Y-95000000D03*
X103800000Y-95000000D03*
X103400000Y-95000000D03*
X103000000Y-95000000D03*
X102600000Y-95000000D03*
X102200000Y-95000000D03*
X101800000Y-95000000D03*
X101400000Y-95000000D03*
X101000000Y-95000000D03*
X100600000Y-95000000D03*
X100200000Y-95000000D03*
X99800000Y-95000000D03*
X99400000Y-95000000D03*
D24*
X98562500Y-95837500D03*
X98562500Y-96237500D03*
X98562500Y-96637500D03*
X98562500Y-97037500D03*
X98562500Y-97437500D03*
X98562500Y-97837500D03*
X98562500Y-98237500D03*
X98562500Y-98637500D03*
X98562500Y-99037500D03*
X98562500Y-99437500D03*
X98562500Y-99837500D03*
X98562500Y-100237500D03*
X98562500Y-100637500D03*
X98562500Y-101037500D03*
D23*
X99400000Y-101875000D03*
X99800000Y-101875000D03*
X100200000Y-101875000D03*
X100600000Y-101875000D03*
X101000000Y-101875000D03*
X101400000Y-101875000D03*
X101800000Y-101875000D03*
X102200000Y-101875000D03*
X102600000Y-101875000D03*
X103000000Y-101875000D03*
X103400000Y-101875000D03*
X103800000Y-101875000D03*
X104200000Y-101875000D03*
X104600000Y-101875000D03*
D24*
X105437500Y-101037500D03*
X105437500Y-100637500D03*
X105437500Y-100237500D03*
X105437500Y-99837500D03*
X105437500Y-99437500D03*
X105437500Y-99037500D03*
X105437500Y-98637500D03*
X105437500Y-98237500D03*
X105437500Y-97837500D03*
X105437500Y-97437500D03*
X105437500Y-97037500D03*
X105437500Y-96637500D03*
X105437500Y-96237500D03*
X105437500Y-95837500D03*
D25*
X102000000Y-98437500D03*
D26*
X105000000Y-74199300D03*
X105000000Y-80800700D03*
D14*
X136200000Y-130000000D03*
D15*
X138740000Y-130000000D03*
X141280000Y-130000000D03*
X143820000Y-130000000D03*
D10*
X197675000Y-87500000D03*
X199325000Y-87500000D03*
D13*
X174100000Y-104400000D03*
D10*
X183175000Y-82000000D03*
X184825000Y-82000000D03*
D27*
X175674999Y-116880600D03*
X175025001Y-116880600D03*
X174374999Y-116880600D03*
X173725001Y-116880600D03*
X173075002Y-116880600D03*
X172425001Y-116880600D03*
X171775002Y-116880600D03*
X171125001Y-116880600D03*
X171125001Y-122519400D03*
X171774999Y-122519400D03*
X172425001Y-122519400D03*
X173074999Y-122519400D03*
X173724998Y-122519400D03*
X174374999Y-122519400D03*
X175024998Y-122519400D03*
X175674999Y-122519400D03*
D10*
X111675000Y-120000000D03*
X113325000Y-120000000D03*
D14*
X97420000Y-113775000D03*
D15*
X97420000Y-111235000D03*
X99960000Y-113775000D03*
X99960000Y-111235000D03*
X102500000Y-113775000D03*
X102500000Y-111235000D03*
X105040000Y-113775000D03*
X105040000Y-111235000D03*
X107580000Y-113775000D03*
X107580000Y-111235000D03*
X110120000Y-113775000D03*
X110120000Y-111235000D03*
D14*
X205000000Y-85000000D03*
D15*
X205000000Y-82460000D03*
D10*
X152875000Y-117100000D03*
X154525000Y-117100000D03*
D14*
X130000000Y-129040000D03*
D15*
X130000000Y-126500000D03*
D13*
X134300000Y-117300000D03*
D11*
X96275000Y-97937500D03*
X94725000Y-97937500D03*
D28*
X152750000Y-114737500D03*
X153700000Y-114737500D03*
X154650000Y-114737500D03*
X154650000Y-112462500D03*
X152750000Y-112462500D03*
D29*
X200000000Y-98850000D03*
D30*
X202500000Y-98850000D03*
X205000000Y-98850000D03*
X200000000Y-102150000D03*
X202500000Y-102150000D03*
X205000000Y-102150000D03*
D12*
X184825000Y-95500000D03*
X183175000Y-95500000D03*
D18*
X96500000Y-93325000D03*
X96500000Y-91675000D03*
D11*
X94275000Y-89500000D03*
X92725000Y-89500000D03*
D10*
X197675000Y-91500000D03*
X199325000Y-91500000D03*
D14*
X205000000Y-111725000D03*
D15*
X205000000Y-114265000D03*
D13*
X147200000Y-129200000D03*
D31*
X94500000Y-106787500D03*
X94500000Y-105212500D03*
D32*
X107900000Y-89095000D03*
X107900000Y-90365000D03*
X107900000Y-91635000D03*
X107900000Y-92905000D03*
X115100000Y-92905000D03*
X115100000Y-91635000D03*
X115100000Y-90365000D03*
X115100000Y-89095000D03*
D33*
X92625000Y-93200000D03*
X94375000Y-93200000D03*
X94375000Y-91800000D03*
X92625000Y-91800000D03*
D10*
X183175000Y-87500000D03*
X184825000Y-87500000D03*
D12*
X199325000Y-93500000D03*
X197675000Y-93500000D03*
D22*
X150700000Y-115100000D03*
X150700000Y-116650000D03*
D34*
X192850000Y-118100000D03*
X193500000Y-118100000D03*
X194150000Y-118100000D03*
X194150000Y-115900000D03*
X193500000Y-115900000D03*
X192850000Y-115900000D03*
D13*
X167200000Y-122800000D03*
D21*
X111000000Y-102287500D03*
X111000000Y-103937500D03*
D13*
X191600000Y-130300000D03*
D22*
X105000000Y-104162500D03*
X105000000Y-105712500D03*
D17*
X111725000Y-117500000D03*
X113275000Y-117500000D03*
X108225000Y-96437500D03*
X109775000Y-96437500D03*
X99225000Y-125500000D03*
X100775000Y-125500000D03*
D10*
X107675000Y-87000000D03*
X109325000Y-87000000D03*
D16*
X150700000Y-111875000D03*
X150700000Y-110325000D03*
D17*
X111725000Y-125500000D03*
X113275000Y-125500000D03*
X197725000Y-89500000D03*
X199275000Y-89500000D03*
D11*
X194775000Y-89800000D03*
X193225000Y-89800000D03*
D13*
X149100000Y-120700000D03*
D20*
X154500000Y-126252500D03*
X154500000Y-127827500D03*
D21*
X162000000Y-126215000D03*
X162000000Y-127865000D03*
D35*
X160862500Y-116550000D03*
X160862500Y-117500000D03*
X160862500Y-118450000D03*
X163137500Y-118450000D03*
X163137500Y-117500000D03*
X163137500Y-116550000D03*
D12*
X125825000Y-122500000D03*
X124175000Y-122500000D03*
X100825000Y-130500000D03*
X99175000Y-130500000D03*
D17*
X107725000Y-102937500D03*
X109275000Y-102937500D03*
D36*
X197825000Y-83500000D03*
X200775000Y-83500000D03*
D37*
X177375000Y-126775000D03*
D38*
X177375000Y-128225000D03*
D37*
X170375000Y-126775000D03*
D38*
X170375000Y-128225000D03*
D11*
X139275000Y-118500000D03*
X137725000Y-118500000D03*
D10*
X107675000Y-85000000D03*
X109325000Y-85000000D03*
D13*
X120300000Y-97500000D03*
D22*
X165362500Y-118725000D03*
X165362500Y-120275000D03*
D17*
X177525000Y-119200000D03*
X179075000Y-119200000D03*
D11*
X95875000Y-99900000D03*
X94325000Y-99900000D03*
D17*
X124225000Y-117500000D03*
X125775000Y-117500000D03*
X177525000Y-121062500D03*
X179075000Y-121062500D03*
D14*
X105000000Y-121000000D03*
D15*
X105000000Y-118460000D03*
D20*
X94500000Y-109212500D03*
X94500000Y-110787500D03*
X164500000Y-126252500D03*
X164500000Y-127827500D03*
D17*
X108225000Y-98437500D03*
X109775000Y-98437500D03*
D26*
X98000000Y-74199300D03*
X98000000Y-80800700D03*
D39*
X189300000Y-91595000D03*
X189300000Y-92865000D03*
X189300000Y-94135000D03*
X189300000Y-95405000D03*
X194700000Y-95405000D03*
X194700000Y-94135000D03*
X194700000Y-92865000D03*
X194700000Y-91595000D03*
D11*
X125775000Y-125540000D03*
X124225000Y-125540000D03*
D40*
X186000000Y-116300000D03*
X185500000Y-116300000D03*
X185000000Y-116300000D03*
X184500000Y-116300000D03*
X184000000Y-116300000D03*
X184000000Y-120700000D03*
X184500000Y-120700000D03*
X185000000Y-120700000D03*
X185500000Y-120700000D03*
X186000000Y-120700000D03*
D14*
X105000000Y-129000000D03*
D15*
X105000000Y-126460000D03*
D41*
X91500000Y-107250000D03*
X91500000Y-107900000D03*
X91500000Y-108550000D03*
X91500000Y-109200000D03*
X91500000Y-109850000D03*
D42*
X88850000Y-105725000D03*
D43*
X88850000Y-109725000D03*
D42*
X88850000Y-111375000D03*
D44*
X91400000Y-105450000D03*
D43*
X88850000Y-107375000D03*
D44*
X91400000Y-111650000D03*
D17*
X183225000Y-80000000D03*
X184775000Y-80000000D03*
D21*
X167000000Y-126215000D03*
X167000000Y-127865000D03*
D19*
X90500000Y-129500000D03*
D13*
X176200000Y-109000000D03*
D19*
X204500000Y-68000000D03*
D12*
X184825000Y-89500000D03*
X183175000Y-89500000D03*
D39*
X189300000Y-80095000D03*
X189300000Y-81365000D03*
X189300000Y-82635000D03*
X189300000Y-83905000D03*
X194700000Y-83905000D03*
X194700000Y-82635000D03*
X194700000Y-81365000D03*
X194700000Y-80095000D03*
D11*
X163137500Y-120500000D03*
X161587500Y-120500000D03*
D10*
X111675000Y-128000000D03*
X113325000Y-128000000D03*
D12*
X113325000Y-130500000D03*
X111675000Y-130500000D03*
X100825000Y-122500000D03*
X99175000Y-122500000D03*
D17*
X107725000Y-100937500D03*
X109275000Y-100937500D03*
D16*
X104500000Y-92712500D03*
X104500000Y-91162500D03*
D21*
X174875000Y-126487500D03*
X174875000Y-128137500D03*
D13*
X134000000Y-125600000D03*
X191600000Y-124700000D03*
D17*
X99225000Y-117500000D03*
X100775000Y-117500000D03*
D21*
X90500000Y-93500000D03*
X90500000Y-95150000D03*
D17*
X185654000Y-114079000D03*
X187204000Y-114079000D03*
X92725000Y-95500000D03*
X94275000Y-95500000D03*
D11*
X194775000Y-85500000D03*
X193225000Y-85500000D03*
D45*
X142500000Y-120850000D03*
D46*
X141000000Y-120937500D03*
D45*
X139500000Y-120850000D03*
D16*
X187929000Y-120854000D03*
X187929000Y-119304000D03*
D47*
X200075000Y-96100000D03*
X197125000Y-96100000D03*
D17*
X165087500Y-117000000D03*
X166637500Y-117000000D03*
D22*
X100400000Y-104125000D03*
X100400000Y-105675000D03*
D17*
X141225000Y-118500000D03*
X142775000Y-118500000D03*
D12*
X125825000Y-130540000D03*
X124175000Y-130540000D03*
D10*
X124175000Y-128040000D03*
X125825000Y-128040000D03*
X100175000Y-87937500D03*
X101825000Y-87937500D03*
D11*
X194900000Y-78000000D03*
X193350000Y-78000000D03*
D12*
X98325000Y-87937500D03*
X96675000Y-87937500D03*
D19*
X204500000Y-129500000D03*
D13*
X152400000Y-120700000D03*
D48*
X162187500Y-112200000D03*
X158687500Y-112200000D03*
D49*
X164687500Y-73400000D03*
X156187500Y-72500000D03*
X156187500Y-107700000D03*
X164687500Y-106200000D03*
D48*
X162187500Y-68400000D03*
X130875000Y-112200000D03*
X127375000Y-112200000D03*
D49*
X133375000Y-73400000D03*
X124875000Y-72500000D03*
D48*
X130875000Y-68400000D03*
D49*
X124875000Y-107700000D03*
X133375000Y-106200000D03*
D48*
X177843750Y-112200000D03*
X174343750Y-112200000D03*
X177843750Y-68400000D03*
D49*
X171843750Y-107700000D03*
X180343750Y-73400000D03*
X180343750Y-106200000D03*
X171843750Y-72500000D03*
D48*
X193500000Y-112200000D03*
X190000000Y-112200000D03*
X193500000Y-68400000D03*
D49*
X196000000Y-106200000D03*
X187500000Y-107700000D03*
X187500000Y-72500000D03*
X196000000Y-73400000D03*
D48*
X146531250Y-112200000D03*
X143031250Y-112200000D03*
D49*
X140531250Y-107700000D03*
X140531250Y-72500000D03*
X149031250Y-106200000D03*
D48*
X146531250Y-68400000D03*
D49*
X149031250Y-73400000D03*
M02*
