G04 #@! TF.GenerationSoftware,KiCad,Pcbnew,(6.0.5)*
G04 #@! TF.CreationDate,2023-10-11T11:29:23-04:00*
G04 #@! TF.ProjectId,v1,76312e6b-6963-4616-945f-706362585858,rev?*
G04 #@! TF.SameCoordinates,Original*
G04 #@! TF.FileFunction,Legend,Top*
G04 #@! TF.FilePolarity,Positive*
%FSLAX46Y46*%
G04 Gerber Fmt 4.6, Leading zero omitted, Abs format (unit mm)*
G04 Created by KiCad (PCBNEW (6.0.5)) date 2023-10-11 11:29:23*
%MOMM*%
%LPD*%
G01*
G04 APERTURE LIST*
G04 Aperture macros list*
%AMRoundRect*
0 Rectangle with rounded corners*
0 $1 Rounding radius*
0 $2 $3 $4 $5 $6 $7 $8 $9 X,Y pos of 4 corners*
0 Add a 4 corners polygon primitive as box body*
4,1,4,$2,$3,$4,$5,$6,$7,$8,$9,$2,$3,0*
0 Add four circle primitives for the rounded corners*
1,1,$1+$1,$2,$3*
1,1,$1+$1,$4,$5*
1,1,$1+$1,$6,$7*
1,1,$1+$1,$8,$9*
0 Add four rect primitives between the rounded corners*
20,1,$1+$1,$2,$3,$4,$5,0*
20,1,$1+$1,$4,$5,$6,$7,0*
20,1,$1+$1,$6,$7,$8,$9,0*
20,1,$1+$1,$8,$9,$2,$3,0*%
%AMFreePoly0*
4,1,6,1.000000,0.000000,0.500000,-0.750000,-0.500000,-0.750000,-0.500000,0.750000,0.500000,0.750000,1.000000,0.000000,1.000000,0.000000,$1*%
%AMFreePoly1*
4,1,6,0.500000,-0.750000,-0.650000,-0.750000,-0.150000,0.000000,-0.650000,0.750000,0.500000,0.750000,0.500000,-0.750000,0.500000,-0.750000,$1*%
%AMFreePoly2*
4,1,9,3.862500,-0.866500,0.737500,-0.866500,0.737500,-0.450000,-0.737500,-0.450000,-0.737500,0.450000,0.737500,0.450000,0.737500,0.866500,3.862500,0.866500,3.862500,-0.866500,3.862500,-0.866500,$1*%
G04 Aperture macros list end*
%ADD10C,0.150000*%
%ADD11C,0.120000*%
%ADD12C,0.152400*%
%ADD13RoundRect,0.200000X-0.200000X-0.275000X0.200000X-0.275000X0.200000X0.275000X-0.200000X0.275000X0*%
%ADD14RoundRect,0.225000X0.225000X0.250000X-0.225000X0.250000X-0.225000X-0.250000X0.225000X-0.250000X0*%
%ADD15RoundRect,0.200000X0.200000X0.275000X-0.200000X0.275000X-0.200000X-0.275000X0.200000X-0.275000X0*%
%ADD16C,2.000000*%
%ADD17R,1.700000X1.700000*%
%ADD18O,1.700000X1.700000*%
%ADD19RoundRect,0.225000X0.250000X-0.225000X0.250000X0.225000X-0.250000X0.225000X-0.250000X-0.225000X0*%
%ADD20RoundRect,0.225000X-0.225000X-0.250000X0.225000X-0.250000X0.225000X0.250000X-0.225000X0.250000X0*%
%ADD21RoundRect,0.200000X0.275000X-0.200000X0.275000X0.200000X-0.275000X0.200000X-0.275000X-0.200000X0*%
%ADD22C,4.400000*%
%ADD23RoundRect,0.218750X-0.256250X0.218750X-0.256250X-0.218750X0.256250X-0.218750X0.256250X0.218750X0*%
%ADD24RoundRect,0.200000X-0.275000X0.200000X-0.275000X-0.200000X0.275000X-0.200000X0.275000X0.200000X0*%
%ADD25RoundRect,0.225000X-0.250000X0.225000X-0.250000X-0.225000X0.250000X-0.225000X0.250000X0.225000X0*%
%ADD26O,0.200000X0.875000*%
%ADD27O,0.875000X0.200000*%
%ADD28R,3.200000X3.200000*%
%ADD29R,0.558800X2.108200*%
%ADD30R,0.355600X1.676400*%
%ADD31RoundRect,0.150000X0.150000X-0.512500X0.150000X0.512500X-0.150000X0.512500X-0.150000X-0.512500X0*%
%ADD32R,1.400000X1.400000*%
%ADD33C,1.400000*%
%ADD34RoundRect,0.218750X0.256250X-0.218750X0.256250X0.218750X-0.256250X0.218750X-0.256250X-0.218750X0*%
%ADD35RoundRect,0.150000X-0.650000X-0.150000X0.650000X-0.150000X0.650000X0.150000X-0.650000X0.150000X0*%
%ADD36R,1.150000X1.000000*%
%ADD37R,0.400000X0.900000*%
%ADD38RoundRect,0.150000X-0.512500X-0.150000X0.512500X-0.150000X0.512500X0.150000X-0.512500X0.150000X0*%
%ADD39RoundRect,0.250000X-0.325000X-1.100000X0.325000X-1.100000X0.325000X1.100000X-0.325000X1.100000X0*%
%ADD40FreePoly0,270.000000*%
%ADD41FreePoly1,270.000000*%
%ADD42R,1.500000X0.550000*%
%ADD43R,0.300000X1.400000*%
%ADD44R,1.360000X0.400000*%
%ADD45O,1.700000X1.000000*%
%ADD46R,1.900000X1.950000*%
%ADD47R,1.600000X2.100000*%
%ADD48R,0.900000X1.300000*%
%ADD49FreePoly2,270.000000*%
%ADD50RoundRect,0.250000X0.325000X1.100000X-0.325000X1.100000X-0.325000X-1.100000X0.325000X-1.100000X0*%
%ADD51C,2.600000*%
%ADD52C,3.600000*%
G04 APERTURE END LIST*
D10*
X97309523Y-116452380D02*
X96738095Y-116452380D01*
X97023809Y-116452380D02*
X97023809Y-115452380D01*
X96928571Y-115595238D01*
X96833333Y-115690476D01*
X96738095Y-115738095D01*
X97880952Y-115880952D02*
X97785714Y-115833333D01*
X97738095Y-115785714D01*
X97690476Y-115690476D01*
X97690476Y-115642857D01*
X97738095Y-115547619D01*
X97785714Y-115500000D01*
X97880952Y-115452380D01*
X98071428Y-115452380D01*
X98166666Y-115500000D01*
X98214285Y-115547619D01*
X98261904Y-115642857D01*
X98261904Y-115690476D01*
X98214285Y-115785714D01*
X98166666Y-115833333D01*
X98071428Y-115880952D01*
X97880952Y-115880952D01*
X97785714Y-115928571D01*
X97738095Y-115976190D01*
X97690476Y-116071428D01*
X97690476Y-116261904D01*
X97738095Y-116357142D01*
X97785714Y-116404761D01*
X97880952Y-116452380D01*
X98071428Y-116452380D01*
X98166666Y-116404761D01*
X98214285Y-116357142D01*
X98261904Y-116261904D01*
X98261904Y-116071428D01*
X98214285Y-115976190D01*
X98166666Y-115928571D01*
X98071428Y-115880952D01*
X106738095Y-115547619D02*
X106785714Y-115500000D01*
X106880952Y-115452380D01*
X107119047Y-115452380D01*
X107214285Y-115500000D01*
X107261904Y-115547619D01*
X107309523Y-115642857D01*
X107309523Y-115738095D01*
X107261904Y-115880952D01*
X106690476Y-116452380D01*
X107309523Y-116452380D01*
X108166666Y-115452380D02*
X107976190Y-115452380D01*
X107880952Y-115500000D01*
X107833333Y-115547619D01*
X107738095Y-115690476D01*
X107690476Y-115880952D01*
X107690476Y-116261904D01*
X107738095Y-116357142D01*
X107785714Y-116404761D01*
X107880952Y-116452380D01*
X108071428Y-116452380D01*
X108166666Y-116404761D01*
X108214285Y-116357142D01*
X108261904Y-116261904D01*
X108261904Y-116023809D01*
X108214285Y-115928571D01*
X108166666Y-115880952D01*
X108071428Y-115833333D01*
X107880952Y-115833333D01*
X107785714Y-115880952D01*
X107738095Y-115928571D01*
X107690476Y-116023809D01*
X101768549Y-108698424D02*
X101816168Y-108650805D01*
X101911406Y-108603185D01*
X102149501Y-108603185D01*
X102244739Y-108650805D01*
X102292358Y-108698424D01*
X102339977Y-108793662D01*
X102339977Y-108888900D01*
X102292358Y-109031757D01*
X101720930Y-109603185D01*
X102339977Y-109603185D01*
X102673311Y-108603185D02*
X103292358Y-108603185D01*
X102959025Y-108984138D01*
X103101882Y-108984138D01*
X103197120Y-109031757D01*
X103244739Y-109079376D01*
X103292358Y-109174614D01*
X103292358Y-109412709D01*
X103244739Y-109507947D01*
X103197120Y-109555566D01*
X103101882Y-109603185D01*
X102816168Y-109603185D01*
X102720930Y-109555566D01*
X102673311Y-109507947D01*
X104238095Y-115547619D02*
X104285714Y-115500000D01*
X104380952Y-115452380D01*
X104619047Y-115452380D01*
X104714285Y-115500000D01*
X104761904Y-115547619D01*
X104809523Y-115642857D01*
X104809523Y-115738095D01*
X104761904Y-115880952D01*
X104190476Y-116452380D01*
X104809523Y-116452380D01*
X105666666Y-115785714D02*
X105666666Y-116452380D01*
X105428571Y-115404761D02*
X105190476Y-116119047D01*
X105809523Y-116119047D01*
X109268549Y-108698424D02*
X109316168Y-108650805D01*
X109411406Y-108603185D01*
X109649501Y-108603185D01*
X109744739Y-108650805D01*
X109792358Y-108698424D01*
X109839977Y-108793662D01*
X109839977Y-108888900D01*
X109792358Y-109031757D01*
X109220930Y-109603185D01*
X109839977Y-109603185D01*
X110316168Y-109603185D02*
X110506644Y-109603185D01*
X110601882Y-109555566D01*
X110649501Y-109507947D01*
X110744739Y-109365090D01*
X110792358Y-109174614D01*
X110792358Y-108793662D01*
X110744739Y-108698424D01*
X110697120Y-108650805D01*
X110601882Y-108603185D01*
X110411406Y-108603185D01*
X110316168Y-108650805D01*
X110268549Y-108698424D01*
X110220930Y-108793662D01*
X110220930Y-109031757D01*
X110268549Y-109126995D01*
X110316168Y-109174614D01*
X110411406Y-109222233D01*
X110601882Y-109222233D01*
X110697120Y-109174614D01*
X110744739Y-109126995D01*
X110792358Y-109031757D01*
X109238095Y-115547619D02*
X109285714Y-115500000D01*
X109380952Y-115452380D01*
X109619047Y-115452380D01*
X109714285Y-115500000D01*
X109761904Y-115547619D01*
X109809523Y-115642857D01*
X109809523Y-115738095D01*
X109761904Y-115880952D01*
X109190476Y-116452380D01*
X109809523Y-116452380D01*
X110380952Y-115880952D02*
X110285714Y-115833333D01*
X110238095Y-115785714D01*
X110190476Y-115690476D01*
X110190476Y-115642857D01*
X110238095Y-115547619D01*
X110285714Y-115500000D01*
X110380952Y-115452380D01*
X110571428Y-115452380D01*
X110666666Y-115500000D01*
X110714285Y-115547619D01*
X110761904Y-115642857D01*
X110761904Y-115690476D01*
X110714285Y-115785714D01*
X110666666Y-115833333D01*
X110571428Y-115880952D01*
X110380952Y-115880952D01*
X110285714Y-115928571D01*
X110238095Y-115976190D01*
X110190476Y-116071428D01*
X110190476Y-116261904D01*
X110238095Y-116357142D01*
X110285714Y-116404761D01*
X110380952Y-116452380D01*
X110571428Y-116452380D01*
X110666666Y-116404761D01*
X110714285Y-116357142D01*
X110761904Y-116261904D01*
X110761904Y-116071428D01*
X110714285Y-115976190D01*
X110666666Y-115928571D01*
X110571428Y-115880952D01*
X101738095Y-115547619D02*
X101785714Y-115500000D01*
X101880952Y-115452380D01*
X102119047Y-115452380D01*
X102214285Y-115500000D01*
X102261904Y-115547619D01*
X102309523Y-115642857D01*
X102309523Y-115738095D01*
X102261904Y-115880952D01*
X101690476Y-116452380D01*
X102309523Y-116452380D01*
X102690476Y-115547619D02*
X102738095Y-115500000D01*
X102833333Y-115452380D01*
X103071428Y-115452380D01*
X103166666Y-115500000D01*
X103214285Y-115547619D01*
X103261904Y-115642857D01*
X103261904Y-115738095D01*
X103214285Y-115880952D01*
X102642857Y-116452380D01*
X103261904Y-116452380D01*
X97339977Y-109603185D02*
X96768549Y-109603185D01*
X97054263Y-109603185D02*
X97054263Y-108603185D01*
X96959025Y-108746043D01*
X96863787Y-108841281D01*
X96768549Y-108888900D01*
X97816168Y-109603185D02*
X98006644Y-109603185D01*
X98101882Y-109555566D01*
X98149501Y-109507947D01*
X98244739Y-109365090D01*
X98292358Y-109174614D01*
X98292358Y-108793662D01*
X98244739Y-108698424D01*
X98197120Y-108650805D01*
X98101882Y-108603185D01*
X97911406Y-108603185D01*
X97816168Y-108650805D01*
X97768549Y-108698424D01*
X97720930Y-108793662D01*
X97720930Y-109031757D01*
X97768549Y-109126995D01*
X97816168Y-109174614D01*
X97911406Y-109222233D01*
X98101882Y-109222233D01*
X98197120Y-109174614D01*
X98244739Y-109126995D01*
X98292358Y-109031757D01*
X99268549Y-108698424D02*
X99316168Y-108650805D01*
X99411406Y-108603185D01*
X99649501Y-108603185D01*
X99744739Y-108650805D01*
X99792358Y-108698424D01*
X99839977Y-108793662D01*
X99839977Y-108888900D01*
X99792358Y-109031757D01*
X99220930Y-109603185D01*
X99839977Y-109603185D01*
X100792358Y-109603185D02*
X100220930Y-109603185D01*
X100506644Y-109603185D02*
X100506644Y-108603185D01*
X100411406Y-108746043D01*
X100316168Y-108841281D01*
X100220930Y-108888900D01*
X99238095Y-115547619D02*
X99285714Y-115500000D01*
X99380952Y-115452380D01*
X99619047Y-115452380D01*
X99714285Y-115500000D01*
X99761904Y-115547619D01*
X99809523Y-115642857D01*
X99809523Y-115738095D01*
X99761904Y-115880952D01*
X99190476Y-116452380D01*
X99809523Y-116452380D01*
X100428571Y-115452380D02*
X100523809Y-115452380D01*
X100619047Y-115500000D01*
X100666666Y-115547619D01*
X100714285Y-115642857D01*
X100761904Y-115833333D01*
X100761904Y-116071428D01*
X100714285Y-116261904D01*
X100666666Y-116357142D01*
X100619047Y-116404761D01*
X100523809Y-116452380D01*
X100428571Y-116452380D01*
X100333333Y-116404761D01*
X100285714Y-116357142D01*
X100238095Y-116261904D01*
X100190476Y-116071428D01*
X100190476Y-115833333D01*
X100238095Y-115642857D01*
X100285714Y-115547619D01*
X100333333Y-115500000D01*
X100428571Y-115452380D01*
X106768549Y-108698424D02*
X106816168Y-108650805D01*
X106911406Y-108603185D01*
X107149501Y-108603185D01*
X107244739Y-108650805D01*
X107292358Y-108698424D01*
X107339977Y-108793662D01*
X107339977Y-108888900D01*
X107292358Y-109031757D01*
X106720930Y-109603185D01*
X107339977Y-109603185D01*
X107673311Y-108603185D02*
X108339977Y-108603185D01*
X107911406Y-109603185D01*
X104268549Y-108698424D02*
X104316168Y-108650805D01*
X104411406Y-108603185D01*
X104649501Y-108603185D01*
X104744739Y-108650805D01*
X104792358Y-108698424D01*
X104839977Y-108793662D01*
X104839977Y-108888900D01*
X104792358Y-109031757D01*
X104220930Y-109603185D01*
X104839977Y-109603185D01*
X105744739Y-108603185D02*
X105268549Y-108603185D01*
X105220930Y-109079376D01*
X105268549Y-109031757D01*
X105363787Y-108984138D01*
X105601882Y-108984138D01*
X105697120Y-109031757D01*
X105744739Y-109079376D01*
X105792358Y-109174614D01*
X105792358Y-109412709D01*
X105744739Y-109507947D01*
X105697120Y-109555566D01*
X105601882Y-109603185D01*
X105363787Y-109603185D01*
X105268549Y-109555566D01*
X105220930Y-109507947D01*
X121357142Y-120452380D02*
X121023809Y-119976190D01*
X120785714Y-120452380D02*
X120785714Y-119452380D01*
X121166666Y-119452380D01*
X121261904Y-119500000D01*
X121309523Y-119547619D01*
X121357142Y-119642857D01*
X121357142Y-119785714D01*
X121309523Y-119880952D01*
X121261904Y-119928571D01*
X121166666Y-119976190D01*
X120785714Y-119976190D01*
X121690476Y-119452380D02*
X122309523Y-119452380D01*
X121976190Y-119833333D01*
X122119047Y-119833333D01*
X122214285Y-119880952D01*
X122261904Y-119928571D01*
X122309523Y-120023809D01*
X122309523Y-120261904D01*
X122261904Y-120357142D01*
X122214285Y-120404761D01*
X122119047Y-120452380D01*
X121833333Y-120452380D01*
X121738095Y-120404761D01*
X121690476Y-120357142D01*
X123261904Y-120452380D02*
X122690476Y-120452380D01*
X122976190Y-120452380D02*
X122976190Y-119452380D01*
X122880952Y-119595238D01*
X122785714Y-119690476D01*
X122690476Y-119738095D01*
X114082142Y-85957142D02*
X114034523Y-86004761D01*
X113891666Y-86052380D01*
X113796428Y-86052380D01*
X113653571Y-86004761D01*
X113558333Y-85909523D01*
X113510714Y-85814285D01*
X113463095Y-85623809D01*
X113463095Y-85480952D01*
X113510714Y-85290476D01*
X113558333Y-85195238D01*
X113653571Y-85100000D01*
X113796428Y-85052380D01*
X113891666Y-85052380D01*
X114034523Y-85100000D01*
X114082142Y-85147619D01*
X115034523Y-86052380D02*
X114463095Y-86052380D01*
X114748809Y-86052380D02*
X114748809Y-85052380D01*
X114653571Y-85195238D01*
X114558333Y-85290476D01*
X114463095Y-85338095D01*
X115510714Y-86052380D02*
X115701190Y-86052380D01*
X115796428Y-86004761D01*
X115844047Y-85957142D01*
X115939285Y-85814285D01*
X115986904Y-85623809D01*
X115986904Y-85242857D01*
X115939285Y-85147619D01*
X115891666Y-85100000D01*
X115796428Y-85052380D01*
X115605952Y-85052380D01*
X115510714Y-85100000D01*
X115463095Y-85147619D01*
X115415476Y-85242857D01*
X115415476Y-85480952D01*
X115463095Y-85576190D01*
X115510714Y-85623809D01*
X115605952Y-85671428D01*
X115796428Y-85671428D01*
X115891666Y-85623809D01*
X115939285Y-85576190D01*
X115986904Y-85480952D01*
X186357142Y-91952380D02*
X186023809Y-91476190D01*
X185785714Y-91952380D02*
X185785714Y-90952380D01*
X186166666Y-90952380D01*
X186261904Y-91000000D01*
X186309523Y-91047619D01*
X186357142Y-91142857D01*
X186357142Y-91285714D01*
X186309523Y-91380952D01*
X186261904Y-91428571D01*
X186166666Y-91476190D01*
X185785714Y-91476190D01*
X187214285Y-91285714D02*
X187214285Y-91952380D01*
X186976190Y-90904761D02*
X186738095Y-91619047D01*
X187357142Y-91619047D01*
X187928571Y-90952380D02*
X188023809Y-90952380D01*
X188119047Y-91000000D01*
X188166666Y-91047619D01*
X188214285Y-91142857D01*
X188261904Y-91333333D01*
X188261904Y-91571428D01*
X188214285Y-91761904D01*
X188166666Y-91857142D01*
X188119047Y-91904761D01*
X188023809Y-91952380D01*
X187928571Y-91952380D01*
X187833333Y-91904761D01*
X187785714Y-91857142D01*
X187738095Y-91761904D01*
X187690476Y-91571428D01*
X187690476Y-91333333D01*
X187738095Y-91142857D01*
X187785714Y-91047619D01*
X187833333Y-91000000D01*
X187928571Y-90952380D01*
X196233333Y-123054380D02*
X196804761Y-123054380D01*
X196519047Y-124054380D02*
X196519047Y-123054380D01*
X197138095Y-124054380D02*
X197138095Y-123054380D01*
X197519047Y-123054380D01*
X197614285Y-123102000D01*
X197661904Y-123149619D01*
X197709523Y-123244857D01*
X197709523Y-123387714D01*
X197661904Y-123482952D01*
X197614285Y-123530571D01*
X197519047Y-123578190D01*
X197138095Y-123578190D01*
X197900000Y-124149619D02*
X198661904Y-124149619D01*
X199423809Y-123102000D02*
X199328571Y-123054380D01*
X199185714Y-123054380D01*
X199042857Y-123102000D01*
X198947619Y-123197238D01*
X198900000Y-123292476D01*
X198852380Y-123482952D01*
X198852380Y-123625809D01*
X198900000Y-123816285D01*
X198947619Y-123911523D01*
X199042857Y-124006761D01*
X199185714Y-124054380D01*
X199280952Y-124054380D01*
X199423809Y-124006761D01*
X199471428Y-123959142D01*
X199471428Y-123625809D01*
X199280952Y-123625809D01*
X199900000Y-124054380D02*
X199900000Y-123054380D01*
X200471428Y-124054380D01*
X200471428Y-123054380D01*
X200947619Y-124054380D02*
X200947619Y-123054380D01*
X201185714Y-123054380D01*
X201328571Y-123102000D01*
X201423809Y-123197238D01*
X201471428Y-123292476D01*
X201519047Y-123482952D01*
X201519047Y-123625809D01*
X201471428Y-123816285D01*
X201423809Y-123911523D01*
X201328571Y-124006761D01*
X201185714Y-124054380D01*
X200947619Y-124054380D01*
X202471428Y-124054380D02*
X201900000Y-124054380D01*
X202185714Y-124054380D02*
X202185714Y-123054380D01*
X202090476Y-123197238D01*
X201995238Y-123292476D01*
X201900000Y-123340095D01*
X117166666Y-130782380D02*
X117166666Y-131496666D01*
X117119047Y-131639523D01*
X117023809Y-131734761D01*
X116880952Y-131782380D01*
X116785714Y-131782380D01*
X118071428Y-130782380D02*
X117880952Y-130782380D01*
X117785714Y-130830000D01*
X117738095Y-130877619D01*
X117642857Y-131020476D01*
X117595238Y-131210952D01*
X117595238Y-131591904D01*
X117642857Y-131687142D01*
X117690476Y-131734761D01*
X117785714Y-131782380D01*
X117976190Y-131782380D01*
X118071428Y-131734761D01*
X118119047Y-131687142D01*
X118166666Y-131591904D01*
X118166666Y-131353809D01*
X118119047Y-131258571D01*
X118071428Y-131210952D01*
X117976190Y-131163333D01*
X117785714Y-131163333D01*
X117690476Y-131210952D01*
X117642857Y-131258571D01*
X117595238Y-131353809D01*
X105822380Y-69333333D02*
X106536666Y-69333333D01*
X106679523Y-69380952D01*
X106774761Y-69476190D01*
X106822380Y-69619047D01*
X106822380Y-69714285D01*
X106155714Y-68428571D02*
X106822380Y-68428571D01*
X105774761Y-68666666D02*
X106489047Y-68904761D01*
X106489047Y-68285714D01*
X204666666Y-96101130D02*
X204666666Y-96815416D01*
X204619047Y-96958273D01*
X204523809Y-97053511D01*
X204380952Y-97101130D01*
X204285714Y-97101130D01*
X205666666Y-97101130D02*
X205095238Y-97101130D01*
X205380952Y-97101130D02*
X205380952Y-96101130D01*
X205285714Y-96243988D01*
X205190476Y-96339226D01*
X205095238Y-96386845D01*
X99327142Y-92580357D02*
X99374761Y-92627976D01*
X99422380Y-92770833D01*
X99422380Y-92866071D01*
X99374761Y-93008928D01*
X99279523Y-93104166D01*
X99184285Y-93151785D01*
X98993809Y-93199404D01*
X98850952Y-93199404D01*
X98660476Y-93151785D01*
X98565238Y-93104166D01*
X98470000Y-93008928D01*
X98422380Y-92866071D01*
X98422380Y-92770833D01*
X98470000Y-92627976D01*
X98517619Y-92580357D01*
X99422380Y-91627976D02*
X99422380Y-92199404D01*
X99422380Y-91913690D02*
X98422380Y-91913690D01*
X98565238Y-92008928D01*
X98660476Y-92104166D01*
X98708095Y-92199404D01*
X98422380Y-90723214D02*
X98422380Y-91199404D01*
X98898571Y-91247023D01*
X98850952Y-91199404D01*
X98803333Y-91104166D01*
X98803333Y-90866071D01*
X98850952Y-90770833D01*
X98898571Y-90723214D01*
X98993809Y-90675595D01*
X99231904Y-90675595D01*
X99327142Y-90723214D01*
X99374761Y-90770833D01*
X99422380Y-90866071D01*
X99422380Y-91104166D01*
X99374761Y-91199404D01*
X99327142Y-91247023D01*
X96357142Y-120452380D02*
X96023809Y-119976190D01*
X95785714Y-120452380D02*
X95785714Y-119452380D01*
X96166666Y-119452380D01*
X96261904Y-119500000D01*
X96309523Y-119547619D01*
X96357142Y-119642857D01*
X96357142Y-119785714D01*
X96309523Y-119880952D01*
X96261904Y-119928571D01*
X96166666Y-119976190D01*
X95785714Y-119976190D01*
X96738095Y-119547619D02*
X96785714Y-119500000D01*
X96880952Y-119452380D01*
X97119047Y-119452380D01*
X97214285Y-119500000D01*
X97261904Y-119547619D01*
X97309523Y-119642857D01*
X97309523Y-119738095D01*
X97261904Y-119880952D01*
X96690476Y-120452380D01*
X97309523Y-120452380D01*
X97785714Y-120452380D02*
X97976190Y-120452380D01*
X98071428Y-120404761D01*
X98119047Y-120357142D01*
X98214285Y-120214285D01*
X98261904Y-120023809D01*
X98261904Y-119642857D01*
X98214285Y-119547619D01*
X98166666Y-119500000D01*
X98071428Y-119452380D01*
X97880952Y-119452380D01*
X97785714Y-119500000D01*
X97738095Y-119547619D01*
X97690476Y-119642857D01*
X97690476Y-119880952D01*
X97738095Y-119976190D01*
X97785714Y-120023809D01*
X97880952Y-120071428D01*
X98071428Y-120071428D01*
X98166666Y-120023809D01*
X98214285Y-119976190D01*
X98261904Y-119880952D01*
X198833333Y-113857142D02*
X198785714Y-113904761D01*
X198642857Y-113952380D01*
X198547619Y-113952380D01*
X198404761Y-113904761D01*
X198309523Y-113809523D01*
X198261904Y-113714285D01*
X198214285Y-113523809D01*
X198214285Y-113380952D01*
X198261904Y-113190476D01*
X198309523Y-113095238D01*
X198404761Y-113000000D01*
X198547619Y-112952380D01*
X198642857Y-112952380D01*
X198785714Y-113000000D01*
X198833333Y-113047619D01*
X199166666Y-112952380D02*
X199833333Y-112952380D01*
X199404761Y-113952380D01*
X157884880Y-120142857D02*
X157408690Y-120476190D01*
X157884880Y-120714285D02*
X156884880Y-120714285D01*
X156884880Y-120333333D01*
X156932500Y-120238095D01*
X156980119Y-120190476D01*
X157075357Y-120142857D01*
X157218214Y-120142857D01*
X157313452Y-120190476D01*
X157361071Y-120238095D01*
X157408690Y-120333333D01*
X157408690Y-120714285D01*
X157884880Y-119190476D02*
X157884880Y-119761904D01*
X157884880Y-119476190D02*
X156884880Y-119476190D01*
X157027738Y-119571428D01*
X157122976Y-119666666D01*
X157170595Y-119761904D01*
X156884880Y-118857142D02*
X156884880Y-118238095D01*
X157265833Y-118571428D01*
X157265833Y-118428571D01*
X157313452Y-118333333D01*
X157361071Y-118285714D01*
X157456309Y-118238095D01*
X157694404Y-118238095D01*
X157789642Y-118285714D01*
X157837261Y-118333333D01*
X157884880Y-118428571D01*
X157884880Y-118714285D01*
X157837261Y-118809523D01*
X157789642Y-118857142D01*
X108857142Y-122952380D02*
X108523809Y-122476190D01*
X108285714Y-122952380D02*
X108285714Y-121952380D01*
X108666666Y-121952380D01*
X108761904Y-122000000D01*
X108809523Y-122047619D01*
X108857142Y-122142857D01*
X108857142Y-122285714D01*
X108809523Y-122380952D01*
X108761904Y-122428571D01*
X108666666Y-122476190D01*
X108285714Y-122476190D01*
X109238095Y-122047619D02*
X109285714Y-122000000D01*
X109380952Y-121952380D01*
X109619047Y-121952380D01*
X109714285Y-122000000D01*
X109761904Y-122047619D01*
X109809523Y-122142857D01*
X109809523Y-122238095D01*
X109761904Y-122380952D01*
X109190476Y-122952380D01*
X109809523Y-122952380D01*
X110142857Y-121952380D02*
X110809523Y-121952380D01*
X110380952Y-122952380D01*
X186357142Y-93857142D02*
X186309523Y-93904761D01*
X186166666Y-93952380D01*
X186071428Y-93952380D01*
X185928571Y-93904761D01*
X185833333Y-93809523D01*
X185785714Y-93714285D01*
X185738095Y-93523809D01*
X185738095Y-93380952D01*
X185785714Y-93190476D01*
X185833333Y-93095238D01*
X185928571Y-93000000D01*
X186071428Y-92952380D01*
X186166666Y-92952380D01*
X186309523Y-93000000D01*
X186357142Y-93047619D01*
X187214285Y-93285714D02*
X187214285Y-93952380D01*
X186976190Y-92904761D02*
X186738095Y-93619047D01*
X187357142Y-93619047D01*
X188166666Y-93285714D02*
X188166666Y-93952380D01*
X187928571Y-92904761D02*
X187690476Y-93619047D01*
X188309523Y-93619047D01*
X89738095Y-71652380D02*
X89738095Y-70652380D01*
X89738095Y-71128571D02*
X90309523Y-71128571D01*
X90309523Y-71652380D02*
X90309523Y-70652380D01*
X91214285Y-70985714D02*
X91214285Y-71652380D01*
X90976190Y-70604761D02*
X90738095Y-71319047D01*
X91357142Y-71319047D01*
X159952380Y-130278095D02*
X158952380Y-130278095D01*
X158952380Y-130040000D01*
X159000000Y-129897142D01*
X159095238Y-129801904D01*
X159190476Y-129754285D01*
X159380952Y-129706666D01*
X159523809Y-129706666D01*
X159714285Y-129754285D01*
X159809523Y-129801904D01*
X159904761Y-129897142D01*
X159952380Y-130040000D01*
X159952380Y-130278095D01*
X158952380Y-128801904D02*
X158952380Y-129278095D01*
X159428571Y-129325714D01*
X159380952Y-129278095D01*
X159333333Y-129182857D01*
X159333333Y-128944761D01*
X159380952Y-128849523D01*
X159428571Y-128801904D01*
X159523809Y-128754285D01*
X159761904Y-128754285D01*
X159857142Y-128801904D01*
X159904761Y-128849523D01*
X159952380Y-128944761D01*
X159952380Y-129182857D01*
X159904761Y-129278095D01*
X159857142Y-129325714D01*
X173452380Y-131142857D02*
X172976190Y-131476190D01*
X173452380Y-131714285D02*
X172452380Y-131714285D01*
X172452380Y-131333333D01*
X172500000Y-131238095D01*
X172547619Y-131190476D01*
X172642857Y-131142857D01*
X172785714Y-131142857D01*
X172880952Y-131190476D01*
X172928571Y-131238095D01*
X172976190Y-131333333D01*
X172976190Y-131714285D01*
X172452380Y-130809523D02*
X172452380Y-130190476D01*
X172833333Y-130523809D01*
X172833333Y-130380952D01*
X172880952Y-130285714D01*
X172928571Y-130238095D01*
X173023809Y-130190476D01*
X173261904Y-130190476D01*
X173357142Y-130238095D01*
X173404761Y-130285714D01*
X173452380Y-130380952D01*
X173452380Y-130666666D01*
X173404761Y-130761904D01*
X173357142Y-130809523D01*
X172547619Y-129809523D02*
X172500000Y-129761904D01*
X172452380Y-129666666D01*
X172452380Y-129428571D01*
X172500000Y-129333333D01*
X172547619Y-129285714D01*
X172642857Y-129238095D01*
X172738095Y-129238095D01*
X172880952Y-129285714D01*
X173452380Y-129857142D01*
X173452380Y-129238095D01*
X192071428Y-119352380D02*
X192642857Y-119352380D01*
X192357142Y-120352380D02*
X192357142Y-119352380D01*
X192976190Y-120352380D02*
X192976190Y-119352380D01*
X193357142Y-119352380D01*
X193452380Y-119400000D01*
X193500000Y-119447619D01*
X193547619Y-119542857D01*
X193547619Y-119685714D01*
X193500000Y-119780952D01*
X193452380Y-119828571D01*
X193357142Y-119876190D01*
X192976190Y-119876190D01*
X193738095Y-120447619D02*
X194500000Y-120447619D01*
X194690476Y-120066666D02*
X195166666Y-120066666D01*
X194595238Y-120352380D02*
X194928571Y-119352380D01*
X195261904Y-120352380D01*
X195595238Y-120352380D02*
X195595238Y-119352380D01*
X195833333Y-119352380D01*
X195976190Y-119400000D01*
X196071428Y-119495238D01*
X196119047Y-119590476D01*
X196166666Y-119780952D01*
X196166666Y-119923809D01*
X196119047Y-120114285D01*
X196071428Y-120209523D01*
X195976190Y-120304761D01*
X195833333Y-120352380D01*
X195595238Y-120352380D01*
X197166666Y-120257142D02*
X197119047Y-120304761D01*
X196976190Y-120352380D01*
X196880952Y-120352380D01*
X196738095Y-120304761D01*
X196642857Y-120209523D01*
X196595238Y-120114285D01*
X196547619Y-119923809D01*
X196547619Y-119780952D01*
X196595238Y-119590476D01*
X196642857Y-119495238D01*
X196738095Y-119400000D01*
X196880952Y-119352380D01*
X196976190Y-119352380D01*
X197119047Y-119400000D01*
X197166666Y-119447619D01*
X197357142Y-120447619D02*
X198119047Y-120447619D01*
X198928571Y-120257142D02*
X198880952Y-120304761D01*
X198738095Y-120352380D01*
X198642857Y-120352380D01*
X198500000Y-120304761D01*
X198404761Y-120209523D01*
X198357142Y-120114285D01*
X198309523Y-119923809D01*
X198309523Y-119780952D01*
X198357142Y-119590476D01*
X198404761Y-119495238D01*
X198500000Y-119400000D01*
X198642857Y-119352380D01*
X198738095Y-119352380D01*
X198880952Y-119400000D01*
X198928571Y-119447619D01*
X199309523Y-120304761D02*
X199452380Y-120352380D01*
X199690476Y-120352380D01*
X199785714Y-120304761D01*
X199833333Y-120257142D01*
X199880952Y-120161904D01*
X199880952Y-120066666D01*
X199833333Y-119971428D01*
X199785714Y-119923809D01*
X199690476Y-119876190D01*
X199500000Y-119828571D01*
X199404761Y-119780952D01*
X199357142Y-119733333D01*
X199309523Y-119638095D01*
X199309523Y-119542857D01*
X199357142Y-119447619D01*
X199404761Y-119400000D01*
X199500000Y-119352380D01*
X199738095Y-119352380D01*
X199880952Y-119400000D01*
X200833333Y-120352380D02*
X200261904Y-120352380D01*
X200547619Y-120352380D02*
X200547619Y-119352380D01*
X200452380Y-119495238D01*
X200357142Y-119590476D01*
X200261904Y-119638095D01*
X198833333Y-115857142D02*
X198785714Y-115904761D01*
X198642857Y-115952380D01*
X198547619Y-115952380D01*
X198404761Y-115904761D01*
X198309523Y-115809523D01*
X198261904Y-115714285D01*
X198214285Y-115523809D01*
X198214285Y-115380952D01*
X198261904Y-115190476D01*
X198309523Y-115095238D01*
X198404761Y-115000000D01*
X198547619Y-114952380D01*
X198642857Y-114952380D01*
X198785714Y-115000000D01*
X198833333Y-115047619D01*
X199690476Y-114952380D02*
X199500000Y-114952380D01*
X199404761Y-115000000D01*
X199357142Y-115047619D01*
X199261904Y-115190476D01*
X199214285Y-115380952D01*
X199214285Y-115761904D01*
X199261904Y-115857142D01*
X199309523Y-115904761D01*
X199404761Y-115952380D01*
X199595238Y-115952380D01*
X199690476Y-115904761D01*
X199738095Y-115857142D01*
X199785714Y-115761904D01*
X199785714Y-115523809D01*
X199738095Y-115428571D01*
X199690476Y-115380952D01*
X199595238Y-115333333D01*
X199404761Y-115333333D01*
X199309523Y-115380952D01*
X199261904Y-115428571D01*
X199214285Y-115523809D01*
X96357142Y-128452380D02*
X96023809Y-127976190D01*
X95785714Y-128452380D02*
X95785714Y-127452380D01*
X96166666Y-127452380D01*
X96261904Y-127500000D01*
X96309523Y-127547619D01*
X96357142Y-127642857D01*
X96357142Y-127785714D01*
X96309523Y-127880952D01*
X96261904Y-127928571D01*
X96166666Y-127976190D01*
X95785714Y-127976190D01*
X96690476Y-127452380D02*
X97309523Y-127452380D01*
X96976190Y-127833333D01*
X97119047Y-127833333D01*
X97214285Y-127880952D01*
X97261904Y-127928571D01*
X97309523Y-128023809D01*
X97309523Y-128261904D01*
X97261904Y-128357142D01*
X97214285Y-128404761D01*
X97119047Y-128452380D01*
X96833333Y-128452380D01*
X96738095Y-128404761D01*
X96690476Y-128357142D01*
X98166666Y-127452380D02*
X97976190Y-127452380D01*
X97880952Y-127500000D01*
X97833333Y-127547619D01*
X97738095Y-127690476D01*
X97690476Y-127880952D01*
X97690476Y-128261904D01*
X97738095Y-128357142D01*
X97785714Y-128404761D01*
X97880952Y-128452380D01*
X98071428Y-128452380D01*
X98166666Y-128404761D01*
X98214285Y-128357142D01*
X98261904Y-128261904D01*
X98261904Y-128023809D01*
X98214285Y-127928571D01*
X98166666Y-127880952D01*
X98071428Y-127833333D01*
X97880952Y-127833333D01*
X97785714Y-127880952D01*
X97738095Y-127928571D01*
X97690476Y-128023809D01*
X129190476Y-122782380D02*
X129190476Y-123496666D01*
X129142857Y-123639523D01*
X129047619Y-123734761D01*
X128904761Y-123782380D01*
X128809523Y-123782380D01*
X130190476Y-123782380D02*
X129619047Y-123782380D01*
X129904761Y-123782380D02*
X129904761Y-122782380D01*
X129809523Y-122925238D01*
X129714285Y-123020476D01*
X129619047Y-123068095D01*
X131142857Y-123782380D02*
X130571428Y-123782380D01*
X130857142Y-123782380D02*
X130857142Y-122782380D01*
X130761904Y-122925238D01*
X130666666Y-123020476D01*
X130571428Y-123068095D01*
X136716562Y-125857142D02*
X136668943Y-125904761D01*
X136526086Y-125952380D01*
X136430848Y-125952380D01*
X136287991Y-125904761D01*
X136192753Y-125809523D01*
X136145134Y-125714285D01*
X136097515Y-125523809D01*
X136097515Y-125380952D01*
X136145134Y-125190476D01*
X136192753Y-125095238D01*
X136287991Y-125000000D01*
X136430848Y-124952380D01*
X136526086Y-124952380D01*
X136668943Y-125000000D01*
X136716562Y-125047619D01*
X137097515Y-125047619D02*
X137145134Y-125000000D01*
X137240372Y-124952380D01*
X137478467Y-124952380D01*
X137573705Y-125000000D01*
X137621324Y-125047619D01*
X137668943Y-125142857D01*
X137668943Y-125238095D01*
X137621324Y-125380952D01*
X137049896Y-125952380D01*
X137668943Y-125952380D01*
X138049896Y-125047619D02*
X138097515Y-125000000D01*
X138192753Y-124952380D01*
X138430848Y-124952380D01*
X138526086Y-125000000D01*
X138573705Y-125047619D01*
X138621324Y-125142857D01*
X138621324Y-125238095D01*
X138573705Y-125380952D01*
X138002277Y-125952380D01*
X138621324Y-125952380D01*
X107357142Y-107857142D02*
X107309523Y-107904761D01*
X107166666Y-107952380D01*
X107071428Y-107952380D01*
X106928571Y-107904761D01*
X106833333Y-107809523D01*
X106785714Y-107714285D01*
X106738095Y-107523809D01*
X106738095Y-107380952D01*
X106785714Y-107190476D01*
X106833333Y-107095238D01*
X106928571Y-107000000D01*
X107071428Y-106952380D01*
X107166666Y-106952380D01*
X107309523Y-107000000D01*
X107357142Y-107047619D01*
X108309523Y-107952380D02*
X107738095Y-107952380D01*
X108023809Y-107952380D02*
X108023809Y-106952380D01*
X107928571Y-107095238D01*
X107833333Y-107190476D01*
X107738095Y-107238095D01*
X108880952Y-107380952D02*
X108785714Y-107333333D01*
X108738095Y-107285714D01*
X108690476Y-107190476D01*
X108690476Y-107142857D01*
X108738095Y-107047619D01*
X108785714Y-107000000D01*
X108880952Y-106952380D01*
X109071428Y-106952380D01*
X109166666Y-107000000D01*
X109214285Y-107047619D01*
X109261904Y-107142857D01*
X109261904Y-107190476D01*
X109214285Y-107285714D01*
X109166666Y-107333333D01*
X109071428Y-107380952D01*
X108880952Y-107380952D01*
X108785714Y-107428571D01*
X108738095Y-107476190D01*
X108690476Y-107571428D01*
X108690476Y-107761904D01*
X108738095Y-107857142D01*
X108785714Y-107904761D01*
X108880952Y-107952380D01*
X109071428Y-107952380D01*
X109166666Y-107904761D01*
X109214285Y-107857142D01*
X109261904Y-107761904D01*
X109261904Y-107571428D01*
X109214285Y-107476190D01*
X109166666Y-107428571D01*
X109071428Y-107380952D01*
X113452380Y-105666666D02*
X112976190Y-106000000D01*
X113452380Y-106238095D02*
X112452380Y-106238095D01*
X112452380Y-105857142D01*
X112500000Y-105761904D01*
X112547619Y-105714285D01*
X112642857Y-105666666D01*
X112785714Y-105666666D01*
X112880952Y-105714285D01*
X112928571Y-105761904D01*
X112976190Y-105857142D01*
X112976190Y-106238095D01*
X113452380Y-104714285D02*
X113452380Y-105285714D01*
X113452380Y-105000000D02*
X112452380Y-105000000D01*
X112595238Y-105095238D01*
X112690476Y-105190476D01*
X112738095Y-105285714D01*
X190357142Y-87857142D02*
X190309523Y-87904761D01*
X190166666Y-87952380D01*
X190071428Y-87952380D01*
X189928571Y-87904761D01*
X189833333Y-87809523D01*
X189785714Y-87714285D01*
X189738095Y-87523809D01*
X189738095Y-87380952D01*
X189785714Y-87190476D01*
X189833333Y-87095238D01*
X189928571Y-87000000D01*
X190071428Y-86952380D01*
X190166666Y-86952380D01*
X190309523Y-87000000D01*
X190357142Y-87047619D01*
X190690476Y-86952380D02*
X191309523Y-86952380D01*
X190976190Y-87333333D01*
X191119047Y-87333333D01*
X191214285Y-87380952D01*
X191261904Y-87428571D01*
X191309523Y-87523809D01*
X191309523Y-87761904D01*
X191261904Y-87857142D01*
X191214285Y-87904761D01*
X191119047Y-87952380D01*
X190833333Y-87952380D01*
X190738095Y-87904761D01*
X190690476Y-87857142D01*
X192166666Y-86952380D02*
X191976190Y-86952380D01*
X191880952Y-87000000D01*
X191833333Y-87047619D01*
X191738095Y-87190476D01*
X191690476Y-87380952D01*
X191690476Y-87761904D01*
X191738095Y-87857142D01*
X191785714Y-87904761D01*
X191880952Y-87952380D01*
X192071428Y-87952380D01*
X192166666Y-87904761D01*
X192214285Y-87857142D01*
X192261904Y-87761904D01*
X192261904Y-87523809D01*
X192214285Y-87428571D01*
X192166666Y-87380952D01*
X192071428Y-87333333D01*
X191880952Y-87333333D01*
X191785714Y-87380952D01*
X191738095Y-87428571D01*
X191690476Y-87523809D01*
X157452380Y-130682857D02*
X156976190Y-131016190D01*
X157452380Y-131254285D02*
X156452380Y-131254285D01*
X156452380Y-130873333D01*
X156500000Y-130778095D01*
X156547619Y-130730476D01*
X156642857Y-130682857D01*
X156785714Y-130682857D01*
X156880952Y-130730476D01*
X156928571Y-130778095D01*
X156976190Y-130873333D01*
X156976190Y-131254285D01*
X157452380Y-129730476D02*
X157452380Y-130301904D01*
X157452380Y-130016190D02*
X156452380Y-130016190D01*
X156595238Y-130111428D01*
X156690476Y-130206666D01*
X156738095Y-130301904D01*
X156452380Y-129397142D02*
X156452380Y-128730476D01*
X157452380Y-129159047D01*
X116690476Y-122782380D02*
X116690476Y-123496666D01*
X116642857Y-123639523D01*
X116547619Y-123734761D01*
X116404761Y-123782380D01*
X116309523Y-123782380D01*
X117690476Y-123782380D02*
X117119047Y-123782380D01*
X117404761Y-123782380D02*
X117404761Y-122782380D01*
X117309523Y-122925238D01*
X117214285Y-123020476D01*
X117119047Y-123068095D01*
X118309523Y-122782380D02*
X118404761Y-122782380D01*
X118500000Y-122830000D01*
X118547619Y-122877619D01*
X118595238Y-122972857D01*
X118642857Y-123163333D01*
X118642857Y-123401428D01*
X118595238Y-123591904D01*
X118547619Y-123687142D01*
X118500000Y-123734761D01*
X118404761Y-123782380D01*
X118309523Y-123782380D01*
X118214285Y-123734761D01*
X118166666Y-123687142D01*
X118119047Y-123591904D01*
X118071428Y-123401428D01*
X118071428Y-123163333D01*
X118119047Y-122972857D01*
X118166666Y-122877619D01*
X118214285Y-122830000D01*
X118309523Y-122782380D01*
X119852380Y-110128571D02*
X119852380Y-109557142D01*
X120852380Y-109842857D02*
X119852380Y-109842857D01*
X120852380Y-109223809D02*
X119852380Y-109223809D01*
X119852380Y-108842857D01*
X119900000Y-108747619D01*
X119947619Y-108700000D01*
X120042857Y-108652380D01*
X120185714Y-108652380D01*
X120280952Y-108700000D01*
X120328571Y-108747619D01*
X120376190Y-108842857D01*
X120376190Y-109223809D01*
X120947619Y-108461904D02*
X120947619Y-107700000D01*
X120852380Y-107461904D02*
X119852380Y-107461904D01*
X119852380Y-107223809D01*
X119900000Y-107080952D01*
X119995238Y-106985714D01*
X120090476Y-106938095D01*
X120280952Y-106890476D01*
X120423809Y-106890476D01*
X120614285Y-106938095D01*
X120709523Y-106985714D01*
X120804761Y-107080952D01*
X120852380Y-107223809D01*
X120852380Y-107461904D01*
X120566666Y-106509523D02*
X120566666Y-106033333D01*
X120852380Y-106604761D02*
X119852380Y-106271428D01*
X120852380Y-105938095D01*
X120757142Y-105033333D02*
X120804761Y-105080952D01*
X120852380Y-105223809D01*
X120852380Y-105319047D01*
X120804761Y-105461904D01*
X120709523Y-105557142D01*
X120614285Y-105604761D01*
X120423809Y-105652380D01*
X120280952Y-105652380D01*
X120090476Y-105604761D01*
X119995238Y-105557142D01*
X119900000Y-105461904D01*
X119852380Y-105319047D01*
X119852380Y-105223809D01*
X119900000Y-105080952D01*
X119947619Y-105033333D01*
X120947619Y-104842857D02*
X120947619Y-104080952D01*
X120757142Y-103271428D02*
X120804761Y-103319047D01*
X120852380Y-103461904D01*
X120852380Y-103557142D01*
X120804761Y-103700000D01*
X120709523Y-103795238D01*
X120614285Y-103842857D01*
X120423809Y-103890476D01*
X120280952Y-103890476D01*
X120090476Y-103842857D01*
X119995238Y-103795238D01*
X119900000Y-103700000D01*
X119852380Y-103557142D01*
X119852380Y-103461904D01*
X119900000Y-103319047D01*
X119947619Y-103271428D01*
X120804761Y-102890476D02*
X120852380Y-102747619D01*
X120852380Y-102509523D01*
X120804761Y-102414285D01*
X120757142Y-102366666D01*
X120661904Y-102319047D01*
X120566666Y-102319047D01*
X120471428Y-102366666D01*
X120423809Y-102414285D01*
X120376190Y-102509523D01*
X120328571Y-102700000D01*
X120280952Y-102795238D01*
X120233333Y-102842857D01*
X120138095Y-102890476D01*
X120042857Y-102890476D01*
X119947619Y-102842857D01*
X119900000Y-102795238D01*
X119852380Y-102700000D01*
X119852380Y-102461904D01*
X119900000Y-102319047D01*
X120852380Y-101366666D02*
X120852380Y-101938095D01*
X120852380Y-101652380D02*
X119852380Y-101652380D01*
X119995238Y-101747619D01*
X120090476Y-101842857D01*
X120138095Y-101938095D01*
X201547619Y-109088095D02*
X200738095Y-109088095D01*
X200642857Y-109135714D01*
X200595238Y-109183333D01*
X200547619Y-109278571D01*
X200547619Y-109469047D01*
X200595238Y-109564285D01*
X200642857Y-109611904D01*
X200738095Y-109659523D01*
X201547619Y-109659523D01*
X201452380Y-110088095D02*
X201500000Y-110135714D01*
X201547619Y-110230952D01*
X201547619Y-110469047D01*
X201500000Y-110564285D01*
X201452380Y-110611904D01*
X201357142Y-110659523D01*
X201261904Y-110659523D01*
X201119047Y-110611904D01*
X200547619Y-110040476D01*
X200547619Y-110659523D01*
X106738095Y-94452380D02*
X106738095Y-95261904D01*
X106785714Y-95357142D01*
X106833333Y-95404761D01*
X106928571Y-95452380D01*
X107119047Y-95452380D01*
X107214285Y-95404761D01*
X107261904Y-95357142D01*
X107309523Y-95261904D01*
X107309523Y-94452380D01*
X107690476Y-94452380D02*
X108309523Y-94452380D01*
X107976190Y-94833333D01*
X108119047Y-94833333D01*
X108214285Y-94880952D01*
X108261904Y-94928571D01*
X108309523Y-95023809D01*
X108309523Y-95261904D01*
X108261904Y-95357142D01*
X108214285Y-95404761D01*
X108119047Y-95452380D01*
X107833333Y-95452380D01*
X107738095Y-95404761D01*
X107690476Y-95357142D01*
X105404761Y-78833333D02*
X105452380Y-78690476D01*
X105452380Y-78452380D01*
X105404761Y-78357142D01*
X105357142Y-78309523D01*
X105261904Y-78261904D01*
X105166666Y-78261904D01*
X105071428Y-78309523D01*
X105023809Y-78357142D01*
X104976190Y-78452380D01*
X104928571Y-78642857D01*
X104880952Y-78738095D01*
X104833333Y-78785714D01*
X104738095Y-78833333D01*
X104642857Y-78833333D01*
X104547619Y-78785714D01*
X104500000Y-78738095D01*
X104452380Y-78642857D01*
X104452380Y-78404761D01*
X104500000Y-78261904D01*
X104452380Y-77928571D02*
X105452380Y-77690476D01*
X104738095Y-77500000D01*
X105452380Y-77309523D01*
X104452380Y-77071428D01*
X105452380Y-76166666D02*
X105452380Y-76738095D01*
X105452380Y-76452380D02*
X104452380Y-76452380D01*
X104595238Y-76547619D01*
X104690476Y-76642857D01*
X104738095Y-76738095D01*
X133322380Y-130333333D02*
X134036666Y-130333333D01*
X134179523Y-130380952D01*
X134274761Y-130476190D01*
X134322380Y-130619047D01*
X134322380Y-130714285D01*
X133322380Y-129380952D02*
X133322380Y-129857142D01*
X133798571Y-129904761D01*
X133750952Y-129857142D01*
X133703333Y-129761904D01*
X133703333Y-129523809D01*
X133750952Y-129428571D01*
X133798571Y-129380952D01*
X133893809Y-129333333D01*
X134131904Y-129333333D01*
X134227142Y-129380952D01*
X134274761Y-129428571D01*
X134322380Y-129523809D01*
X134322380Y-129761904D01*
X134274761Y-129857142D01*
X134227142Y-129904761D01*
X200833333Y-87952380D02*
X200500000Y-87476190D01*
X200261904Y-87952380D02*
X200261904Y-86952380D01*
X200642857Y-86952380D01*
X200738095Y-87000000D01*
X200785714Y-87047619D01*
X200833333Y-87142857D01*
X200833333Y-87285714D01*
X200785714Y-87380952D01*
X200738095Y-87428571D01*
X200642857Y-87476190D01*
X200261904Y-87476190D01*
X201690476Y-87285714D02*
X201690476Y-87952380D01*
X201452380Y-86904761D02*
X201214285Y-87619047D01*
X201833333Y-87619047D01*
X168409523Y-101152380D02*
X168980952Y-101152380D01*
X168695238Y-102152380D02*
X168695238Y-101152380D01*
X169314285Y-102152380D02*
X169314285Y-101152380D01*
X169695238Y-101152380D01*
X169790476Y-101200000D01*
X169838095Y-101247619D01*
X169885714Y-101342857D01*
X169885714Y-101485714D01*
X169838095Y-101580952D01*
X169790476Y-101628571D01*
X169695238Y-101676190D01*
X169314285Y-101676190D01*
X170076190Y-102247619D02*
X170838095Y-102247619D01*
X170980952Y-101152380D02*
X171600000Y-101152380D01*
X171266666Y-101533333D01*
X171409523Y-101533333D01*
X171504761Y-101580952D01*
X171552380Y-101628571D01*
X171600000Y-101723809D01*
X171600000Y-101961904D01*
X171552380Y-102057142D01*
X171504761Y-102104761D01*
X171409523Y-102152380D01*
X171123809Y-102152380D01*
X171028571Y-102104761D01*
X170980952Y-102057142D01*
X172028571Y-102057142D02*
X172076190Y-102104761D01*
X172028571Y-102152380D01*
X171980952Y-102104761D01*
X172028571Y-102057142D01*
X172028571Y-102152380D01*
X172409523Y-101152380D02*
X173028571Y-101152380D01*
X172695238Y-101533333D01*
X172838095Y-101533333D01*
X172933333Y-101580952D01*
X172980952Y-101628571D01*
X173028571Y-101723809D01*
X173028571Y-101961904D01*
X172980952Y-102057142D01*
X172933333Y-102104761D01*
X172838095Y-102152380D01*
X172552380Y-102152380D01*
X172457142Y-102104761D01*
X172409523Y-102057142D01*
X173314285Y-101152380D02*
X173647619Y-102152380D01*
X173980952Y-101152380D01*
X174266666Y-101866666D02*
X174742857Y-101866666D01*
X174171428Y-102152380D02*
X174504761Y-101152380D01*
X174838095Y-102152380D01*
X175695238Y-102152380D02*
X175123809Y-102152380D01*
X175409523Y-102152380D02*
X175409523Y-101152380D01*
X175314285Y-101295238D01*
X175219047Y-101390476D01*
X175123809Y-101438095D01*
X186357142Y-82452380D02*
X186023809Y-81976190D01*
X185785714Y-82452380D02*
X185785714Y-81452380D01*
X186166666Y-81452380D01*
X186261904Y-81500000D01*
X186309523Y-81547619D01*
X186357142Y-81642857D01*
X186357142Y-81785714D01*
X186309523Y-81880952D01*
X186261904Y-81928571D01*
X186166666Y-81976190D01*
X185785714Y-81976190D01*
X186690476Y-81452380D02*
X187309523Y-81452380D01*
X186976190Y-81833333D01*
X187119047Y-81833333D01*
X187214285Y-81880952D01*
X187261904Y-81928571D01*
X187309523Y-82023809D01*
X187309523Y-82261904D01*
X187261904Y-82357142D01*
X187214285Y-82404761D01*
X187119047Y-82452380D01*
X186833333Y-82452380D01*
X186738095Y-82404761D01*
X186690476Y-82357142D01*
X187642857Y-81452380D02*
X188309523Y-81452380D01*
X187880952Y-82452380D01*
X173947619Y-118461904D02*
X173138095Y-118461904D01*
X173042857Y-118509523D01*
X172995238Y-118557142D01*
X172947619Y-118652380D01*
X172947619Y-118842857D01*
X172995238Y-118938095D01*
X173042857Y-118985714D01*
X173138095Y-119033333D01*
X173947619Y-119033333D01*
X172947619Y-120033333D02*
X172947619Y-119461904D01*
X172947619Y-119747619D02*
X173947619Y-119747619D01*
X173804761Y-119652380D01*
X173709523Y-119557142D01*
X173661904Y-119461904D01*
X173947619Y-120652380D02*
X173947619Y-120747619D01*
X173900000Y-120842857D01*
X173852380Y-120890476D01*
X173757142Y-120938095D01*
X173566666Y-120985714D01*
X173328571Y-120985714D01*
X173138095Y-120938095D01*
X173042857Y-120890476D01*
X172995238Y-120842857D01*
X172947619Y-120747619D01*
X172947619Y-120652380D01*
X172995238Y-120557142D01*
X173042857Y-120509523D01*
X173138095Y-120461904D01*
X173328571Y-120414285D01*
X173566666Y-120414285D01*
X173757142Y-120461904D01*
X173852380Y-120509523D01*
X173900000Y-120557142D01*
X173947619Y-120652380D01*
X177721220Y-116626600D02*
X177483124Y-116626600D01*
X177578362Y-116388504D02*
X177483124Y-116626600D01*
X177578362Y-116864695D01*
X177292648Y-116483742D02*
X177483124Y-116626600D01*
X177292648Y-116769457D01*
X176625981Y-116626600D02*
X176864077Y-116626600D01*
X176768839Y-116864695D02*
X176864077Y-116626600D01*
X176768839Y-116388504D01*
X177054553Y-116769457D02*
X176864077Y-116626600D01*
X177054553Y-116483742D01*
X108857142Y-120452380D02*
X108523809Y-119976190D01*
X108285714Y-120452380D02*
X108285714Y-119452380D01*
X108666666Y-119452380D01*
X108761904Y-119500000D01*
X108809523Y-119547619D01*
X108857142Y-119642857D01*
X108857142Y-119785714D01*
X108809523Y-119880952D01*
X108761904Y-119928571D01*
X108666666Y-119976190D01*
X108285714Y-119976190D01*
X109190476Y-119452380D02*
X109809523Y-119452380D01*
X109476190Y-119833333D01*
X109619047Y-119833333D01*
X109714285Y-119880952D01*
X109761904Y-119928571D01*
X109809523Y-120023809D01*
X109809523Y-120261904D01*
X109761904Y-120357142D01*
X109714285Y-120404761D01*
X109619047Y-120452380D01*
X109333333Y-120452380D01*
X109238095Y-120404761D01*
X109190476Y-120357142D01*
X110428571Y-119452380D02*
X110523809Y-119452380D01*
X110619047Y-119500000D01*
X110666666Y-119547619D01*
X110714285Y-119642857D01*
X110761904Y-119833333D01*
X110761904Y-120071428D01*
X110714285Y-120261904D01*
X110666666Y-120357142D01*
X110619047Y-120404761D01*
X110523809Y-120452380D01*
X110428571Y-120452380D01*
X110333333Y-120404761D01*
X110285714Y-120357142D01*
X110238095Y-120261904D01*
X110190476Y-120071428D01*
X110190476Y-119833333D01*
X110238095Y-119642857D01*
X110285714Y-119547619D01*
X110333333Y-119500000D01*
X110428571Y-119452380D01*
X112452380Y-113309523D02*
X113166666Y-113309523D01*
X113309523Y-113357142D01*
X113404761Y-113452380D01*
X113452380Y-113595238D01*
X113452380Y-113690476D01*
X113452380Y-112309523D02*
X113452380Y-112880952D01*
X113452380Y-112595238D02*
X112452380Y-112595238D01*
X112595238Y-112690476D01*
X112690476Y-112785714D01*
X112738095Y-112880952D01*
X112547619Y-111928571D02*
X112500000Y-111880952D01*
X112452380Y-111785714D01*
X112452380Y-111547619D01*
X112500000Y-111452380D01*
X112547619Y-111404761D01*
X112642857Y-111357142D01*
X112738095Y-111357142D01*
X112880952Y-111404761D01*
X113452380Y-111976190D01*
X113452380Y-111357142D01*
X204666666Y-86782380D02*
X204666666Y-87496666D01*
X204619047Y-87639523D01*
X204523809Y-87734761D01*
X204380952Y-87782380D01*
X204285714Y-87782380D01*
X205095238Y-86877619D02*
X205142857Y-86830000D01*
X205238095Y-86782380D01*
X205476190Y-86782380D01*
X205571428Y-86830000D01*
X205619047Y-86877619D01*
X205666666Y-86972857D01*
X205666666Y-87068095D01*
X205619047Y-87210952D01*
X205047619Y-87782380D01*
X205666666Y-87782380D01*
X153533333Y-119052380D02*
X153200000Y-118576190D01*
X152961904Y-119052380D02*
X152961904Y-118052380D01*
X153342857Y-118052380D01*
X153438095Y-118100000D01*
X153485714Y-118147619D01*
X153533333Y-118242857D01*
X153533333Y-118385714D01*
X153485714Y-118480952D01*
X153438095Y-118528571D01*
X153342857Y-118576190D01*
X152961904Y-118576190D01*
X153866666Y-118052380D02*
X154533333Y-118052380D01*
X154104761Y-119052380D01*
X129666666Y-130822380D02*
X129666666Y-131536666D01*
X129619047Y-131679523D01*
X129523809Y-131774761D01*
X129380952Y-131822380D01*
X129285714Y-131822380D01*
X130285714Y-131250952D02*
X130190476Y-131203333D01*
X130142857Y-131155714D01*
X130095238Y-131060476D01*
X130095238Y-131012857D01*
X130142857Y-130917619D01*
X130190476Y-130870000D01*
X130285714Y-130822380D01*
X130476190Y-130822380D01*
X130571428Y-130870000D01*
X130619047Y-130917619D01*
X130666666Y-131012857D01*
X130666666Y-131060476D01*
X130619047Y-131155714D01*
X130571428Y-131203333D01*
X130476190Y-131250952D01*
X130285714Y-131250952D01*
X130190476Y-131298571D01*
X130142857Y-131346190D01*
X130095238Y-131441428D01*
X130095238Y-131631904D01*
X130142857Y-131727142D01*
X130190476Y-131774761D01*
X130285714Y-131822380D01*
X130476190Y-131822380D01*
X130571428Y-131774761D01*
X130619047Y-131727142D01*
X130666666Y-131631904D01*
X130666666Y-131441428D01*
X130619047Y-131346190D01*
X130571428Y-131298571D01*
X130476190Y-131250952D01*
X132142857Y-119152380D02*
X132714285Y-119152380D01*
X132428571Y-120152380D02*
X132428571Y-119152380D01*
X133047619Y-120152380D02*
X133047619Y-119152380D01*
X133428571Y-119152380D01*
X133523809Y-119200000D01*
X133571428Y-119247619D01*
X133619047Y-119342857D01*
X133619047Y-119485714D01*
X133571428Y-119580952D01*
X133523809Y-119628571D01*
X133428571Y-119676190D01*
X133047619Y-119676190D01*
X133809523Y-120247619D02*
X134571428Y-120247619D01*
X134714285Y-119152380D02*
X135333333Y-119152380D01*
X135000000Y-119533333D01*
X135142857Y-119533333D01*
X135238095Y-119580952D01*
X135285714Y-119628571D01*
X135333333Y-119723809D01*
X135333333Y-119961904D01*
X135285714Y-120057142D01*
X135238095Y-120104761D01*
X135142857Y-120152380D01*
X134857142Y-120152380D01*
X134761904Y-120104761D01*
X134714285Y-120057142D01*
X135761904Y-120057142D02*
X135809523Y-120104761D01*
X135761904Y-120152380D01*
X135714285Y-120104761D01*
X135761904Y-120057142D01*
X135761904Y-120152380D01*
X136142857Y-119152380D02*
X136761904Y-119152380D01*
X136428571Y-119533333D01*
X136571428Y-119533333D01*
X136666666Y-119580952D01*
X136714285Y-119628571D01*
X136761904Y-119723809D01*
X136761904Y-119961904D01*
X136714285Y-120057142D01*
X136666666Y-120104761D01*
X136571428Y-120152380D01*
X136285714Y-120152380D01*
X136190476Y-120104761D01*
X136142857Y-120057142D01*
X91857142Y-98357142D02*
X91809523Y-98404761D01*
X91666666Y-98452380D01*
X91571428Y-98452380D01*
X91428571Y-98404761D01*
X91333333Y-98309523D01*
X91285714Y-98214285D01*
X91238095Y-98023809D01*
X91238095Y-97880952D01*
X91285714Y-97690476D01*
X91333333Y-97595238D01*
X91428571Y-97500000D01*
X91571428Y-97452380D01*
X91666666Y-97452380D01*
X91809523Y-97500000D01*
X91857142Y-97547619D01*
X92809523Y-98452380D02*
X92238095Y-98452380D01*
X92523809Y-98452380D02*
X92523809Y-97452380D01*
X92428571Y-97595238D01*
X92333333Y-97690476D01*
X92238095Y-97738095D01*
X93666666Y-97785714D02*
X93666666Y-98452380D01*
X93428571Y-97404761D02*
X93190476Y-98119047D01*
X93809523Y-98119047D01*
X154152380Y-111361904D02*
X154961904Y-111361904D01*
X155057142Y-111314285D01*
X155104761Y-111266666D01*
X155152380Y-111171428D01*
X155152380Y-110980952D01*
X155104761Y-110885714D01*
X155057142Y-110838095D01*
X154961904Y-110790476D01*
X154152380Y-110790476D01*
X154152380Y-109885714D02*
X154152380Y-110076190D01*
X154200000Y-110171428D01*
X154247619Y-110219047D01*
X154390476Y-110314285D01*
X154580952Y-110361904D01*
X154961904Y-110361904D01*
X155057142Y-110314285D01*
X155104761Y-110266666D01*
X155152380Y-110171428D01*
X155152380Y-109980952D01*
X155104761Y-109885714D01*
X155057142Y-109838095D01*
X154961904Y-109790476D01*
X154723809Y-109790476D01*
X154628571Y-109838095D01*
X154580952Y-109885714D01*
X154533333Y-109980952D01*
X154533333Y-110171428D01*
X154580952Y-110266666D01*
X154628571Y-110314285D01*
X154723809Y-110361904D01*
X201416666Y-97654761D02*
X201559523Y-97702380D01*
X201797619Y-97702380D01*
X201892857Y-97654761D01*
X201940476Y-97607142D01*
X201988095Y-97511904D01*
X201988095Y-97416666D01*
X201940476Y-97321428D01*
X201892857Y-97273809D01*
X201797619Y-97226190D01*
X201607142Y-97178571D01*
X201511904Y-97130952D01*
X201464285Y-97083333D01*
X201416666Y-96988095D01*
X201416666Y-96892857D01*
X201464285Y-96797619D01*
X201511904Y-96750000D01*
X201607142Y-96702380D01*
X201845238Y-96702380D01*
X201988095Y-96750000D01*
X202321428Y-96702380D02*
X202559523Y-97702380D01*
X202750000Y-96988095D01*
X202940476Y-97702380D01*
X203178571Y-96702380D01*
X203464285Y-96702380D02*
X204083333Y-96702380D01*
X203750000Y-97083333D01*
X203892857Y-97083333D01*
X203988095Y-97130952D01*
X204035714Y-97178571D01*
X204083333Y-97273809D01*
X204083333Y-97511904D01*
X204035714Y-97607142D01*
X203988095Y-97654761D01*
X203892857Y-97702380D01*
X203607142Y-97702380D01*
X203511904Y-97654761D01*
X203464285Y-97607142D01*
X186357142Y-95952380D02*
X186023809Y-95476190D01*
X185785714Y-95952380D02*
X185785714Y-94952380D01*
X186166666Y-94952380D01*
X186261904Y-95000000D01*
X186309523Y-95047619D01*
X186357142Y-95142857D01*
X186357142Y-95285714D01*
X186309523Y-95380952D01*
X186261904Y-95428571D01*
X186166666Y-95476190D01*
X185785714Y-95476190D01*
X186690476Y-94952380D02*
X187309523Y-94952380D01*
X186976190Y-95333333D01*
X187119047Y-95333333D01*
X187214285Y-95380952D01*
X187261904Y-95428571D01*
X187309523Y-95523809D01*
X187309523Y-95761904D01*
X187261904Y-95857142D01*
X187214285Y-95904761D01*
X187119047Y-95952380D01*
X186833333Y-95952380D01*
X186738095Y-95904761D01*
X186690476Y-95857142D01*
X188166666Y-95285714D02*
X188166666Y-95952380D01*
X187928571Y-94904761D02*
X187690476Y-95619047D01*
X188309523Y-95619047D01*
X96952380Y-90166666D02*
X96476190Y-90500000D01*
X96952380Y-90738095D02*
X95952380Y-90738095D01*
X95952380Y-90357142D01*
X96000000Y-90261904D01*
X96047619Y-90214285D01*
X96142857Y-90166666D01*
X96285714Y-90166666D01*
X96380952Y-90214285D01*
X96428571Y-90261904D01*
X96476190Y-90357142D01*
X96476190Y-90738095D01*
X96380952Y-89595238D02*
X96333333Y-89690476D01*
X96285714Y-89738095D01*
X96190476Y-89785714D01*
X96142857Y-89785714D01*
X96047619Y-89738095D01*
X96000000Y-89690476D01*
X95952380Y-89595238D01*
X95952380Y-89404761D01*
X96000000Y-89309523D01*
X96047619Y-89261904D01*
X96142857Y-89214285D01*
X96190476Y-89214285D01*
X96285714Y-89261904D01*
X96333333Y-89309523D01*
X96380952Y-89404761D01*
X96380952Y-89595238D01*
X96428571Y-89690476D01*
X96476190Y-89738095D01*
X96571428Y-89785714D01*
X96761904Y-89785714D01*
X96857142Y-89738095D01*
X96904761Y-89690476D01*
X96952380Y-89595238D01*
X96952380Y-89404761D01*
X96904761Y-89309523D01*
X96857142Y-89261904D01*
X96761904Y-89214285D01*
X96571428Y-89214285D01*
X96476190Y-89261904D01*
X96428571Y-89309523D01*
X96380952Y-89404761D01*
X92857142Y-88357142D02*
X92809523Y-88404761D01*
X92666666Y-88452380D01*
X92571428Y-88452380D01*
X92428571Y-88404761D01*
X92333333Y-88309523D01*
X92285714Y-88214285D01*
X92238095Y-88023809D01*
X92238095Y-87880952D01*
X92285714Y-87690476D01*
X92333333Y-87595238D01*
X92428571Y-87500000D01*
X92571428Y-87452380D01*
X92666666Y-87452380D01*
X92809523Y-87500000D01*
X92857142Y-87547619D01*
X93238095Y-87547619D02*
X93285714Y-87500000D01*
X93380952Y-87452380D01*
X93619047Y-87452380D01*
X93714285Y-87500000D01*
X93761904Y-87547619D01*
X93809523Y-87642857D01*
X93809523Y-87738095D01*
X93761904Y-87880952D01*
X93190476Y-88452380D01*
X93809523Y-88452380D01*
X94428571Y-87452380D02*
X94523809Y-87452380D01*
X94619047Y-87500000D01*
X94666666Y-87547619D01*
X94714285Y-87642857D01*
X94761904Y-87833333D01*
X94761904Y-88071428D01*
X94714285Y-88261904D01*
X94666666Y-88357142D01*
X94619047Y-88404761D01*
X94523809Y-88452380D01*
X94428571Y-88452380D01*
X94333333Y-88404761D01*
X94285714Y-88357142D01*
X94238095Y-88261904D01*
X94190476Y-88071428D01*
X94190476Y-87833333D01*
X94238095Y-87642857D01*
X94285714Y-87547619D01*
X94333333Y-87500000D01*
X94428571Y-87452380D01*
X200857142Y-91952380D02*
X200523809Y-91476190D01*
X200285714Y-91952380D02*
X200285714Y-90952380D01*
X200666666Y-90952380D01*
X200761904Y-91000000D01*
X200809523Y-91047619D01*
X200857142Y-91142857D01*
X200857142Y-91285714D01*
X200809523Y-91380952D01*
X200761904Y-91428571D01*
X200666666Y-91476190D01*
X200285714Y-91476190D01*
X201190476Y-90952380D02*
X201809523Y-90952380D01*
X201476190Y-91333333D01*
X201619047Y-91333333D01*
X201714285Y-91380952D01*
X201761904Y-91428571D01*
X201809523Y-91523809D01*
X201809523Y-91761904D01*
X201761904Y-91857142D01*
X201714285Y-91904761D01*
X201619047Y-91952380D01*
X201333333Y-91952380D01*
X201238095Y-91904761D01*
X201190476Y-91857142D01*
X202380952Y-91380952D02*
X202285714Y-91333333D01*
X202238095Y-91285714D01*
X202190476Y-91190476D01*
X202190476Y-91142857D01*
X202238095Y-91047619D01*
X202285714Y-91000000D01*
X202380952Y-90952380D01*
X202571428Y-90952380D01*
X202666666Y-91000000D01*
X202714285Y-91047619D01*
X202761904Y-91142857D01*
X202761904Y-91190476D01*
X202714285Y-91285714D01*
X202666666Y-91333333D01*
X202571428Y-91380952D01*
X202380952Y-91380952D01*
X202285714Y-91428571D01*
X202238095Y-91476190D01*
X202190476Y-91571428D01*
X202190476Y-91761904D01*
X202238095Y-91857142D01*
X202285714Y-91904761D01*
X202380952Y-91952380D01*
X202571428Y-91952380D01*
X202666666Y-91904761D01*
X202714285Y-91857142D01*
X202761904Y-91761904D01*
X202761904Y-91571428D01*
X202714285Y-91476190D01*
X202666666Y-91428571D01*
X202571428Y-91380952D01*
X204214285Y-116928571D02*
X204357142Y-116976190D01*
X204404761Y-117023809D01*
X204452380Y-117119047D01*
X204452380Y-117261904D01*
X204404761Y-117357142D01*
X204357142Y-117404761D01*
X204261904Y-117452380D01*
X203880952Y-117452380D01*
X203880952Y-116452380D01*
X204214285Y-116452380D01*
X204309523Y-116500000D01*
X204357142Y-116547619D01*
X204404761Y-116642857D01*
X204404761Y-116738095D01*
X204357142Y-116833333D01*
X204309523Y-116880952D01*
X204214285Y-116928571D01*
X203880952Y-116928571D01*
X204738095Y-116452380D02*
X205309523Y-116452380D01*
X205023809Y-117452380D02*
X205023809Y-116452380D01*
X206166666Y-117452380D02*
X205595238Y-117452380D01*
X205880952Y-117452380D02*
X205880952Y-116452380D01*
X205785714Y-116595238D01*
X205690476Y-116690476D01*
X205595238Y-116738095D01*
X145957142Y-130952380D02*
X146528571Y-130952380D01*
X146242857Y-131952380D02*
X146242857Y-130952380D01*
X146861904Y-131952380D02*
X146861904Y-130952380D01*
X147242857Y-130952380D01*
X147338095Y-131000000D01*
X147385714Y-131047619D01*
X147433333Y-131142857D01*
X147433333Y-131285714D01*
X147385714Y-131380952D01*
X147338095Y-131428571D01*
X147242857Y-131476190D01*
X146861904Y-131476190D01*
X147623809Y-132047619D02*
X148385714Y-132047619D01*
X148576190Y-131904761D02*
X148719047Y-131952380D01*
X148957142Y-131952380D01*
X149052380Y-131904761D01*
X149100000Y-131857142D01*
X149147619Y-131761904D01*
X149147619Y-131666666D01*
X149100000Y-131571428D01*
X149052380Y-131523809D01*
X148957142Y-131476190D01*
X148766666Y-131428571D01*
X148671428Y-131380952D01*
X148623809Y-131333333D01*
X148576190Y-131238095D01*
X148576190Y-131142857D01*
X148623809Y-131047619D01*
X148671428Y-131000000D01*
X148766666Y-130952380D01*
X149004761Y-130952380D01*
X149147619Y-131000000D01*
X149576190Y-131952380D02*
X149576190Y-130952380D01*
X149814285Y-130952380D01*
X149957142Y-131000000D01*
X150052380Y-131095238D01*
X150100000Y-131190476D01*
X150147619Y-131380952D01*
X150147619Y-131523809D01*
X150100000Y-131714285D01*
X150052380Y-131809523D01*
X149957142Y-131904761D01*
X149814285Y-131952380D01*
X149576190Y-131952380D01*
X150766666Y-130952380D02*
X150957142Y-130952380D01*
X151052380Y-131000000D01*
X151147619Y-131095238D01*
X151195238Y-131285714D01*
X151195238Y-131619047D01*
X151147619Y-131809523D01*
X151052380Y-131904761D01*
X150957142Y-131952380D01*
X150766666Y-131952380D01*
X150671428Y-131904761D01*
X150576190Y-131809523D01*
X150528571Y-131619047D01*
X150528571Y-131285714D01*
X150576190Y-131095238D01*
X150671428Y-131000000D01*
X150766666Y-130952380D01*
X152147619Y-131952380D02*
X151576190Y-131952380D01*
X151861904Y-131952380D02*
X151861904Y-130952380D01*
X151766666Y-131095238D01*
X151671428Y-131190476D01*
X151576190Y-131238095D01*
X93522380Y-106738095D02*
X92522380Y-106738095D01*
X92522380Y-106500000D01*
X92570000Y-106357142D01*
X92665238Y-106261904D01*
X92760476Y-106214285D01*
X92950952Y-106166666D01*
X93093809Y-106166666D01*
X93284285Y-106214285D01*
X93379523Y-106261904D01*
X93474761Y-106357142D01*
X93522380Y-106500000D01*
X93522380Y-106738095D01*
X92617619Y-105785714D02*
X92570000Y-105738095D01*
X92522380Y-105642857D01*
X92522380Y-105404761D01*
X92570000Y-105309523D01*
X92617619Y-105261904D01*
X92712857Y-105214285D01*
X92808095Y-105214285D01*
X92950952Y-105261904D01*
X93522380Y-105833333D01*
X93522380Y-105214285D01*
X110738095Y-86892380D02*
X110738095Y-87701904D01*
X110785714Y-87797142D01*
X110833333Y-87844761D01*
X110928571Y-87892380D01*
X111119047Y-87892380D01*
X111214285Y-87844761D01*
X111261904Y-87797142D01*
X111309523Y-87701904D01*
X111309523Y-86892380D01*
X111833333Y-87892380D02*
X112023809Y-87892380D01*
X112119047Y-87844761D01*
X112166666Y-87797142D01*
X112261904Y-87654285D01*
X112309523Y-87463809D01*
X112309523Y-87082857D01*
X112261904Y-86987619D01*
X112214285Y-86940000D01*
X112119047Y-86892380D01*
X111928571Y-86892380D01*
X111833333Y-86940000D01*
X111785714Y-86987619D01*
X111738095Y-87082857D01*
X111738095Y-87320952D01*
X111785714Y-87416190D01*
X111833333Y-87463809D01*
X111928571Y-87511428D01*
X112119047Y-87511428D01*
X112214285Y-87463809D01*
X112261904Y-87416190D01*
X112309523Y-87320952D01*
X90023809Y-91976190D02*
X90023809Y-92452380D01*
X89690476Y-91452380D02*
X90023809Y-91976190D01*
X90357142Y-91452380D01*
X91214285Y-92452380D02*
X90642857Y-92452380D01*
X90928571Y-92452380D02*
X90928571Y-91452380D01*
X90833333Y-91595238D01*
X90738095Y-91690476D01*
X90642857Y-91738095D01*
X186333333Y-87952380D02*
X186000000Y-87476190D01*
X185761904Y-87952380D02*
X185761904Y-86952380D01*
X186142857Y-86952380D01*
X186238095Y-87000000D01*
X186285714Y-87047619D01*
X186333333Y-87142857D01*
X186333333Y-87285714D01*
X186285714Y-87380952D01*
X186238095Y-87428571D01*
X186142857Y-87476190D01*
X185761904Y-87476190D01*
X186666666Y-86952380D02*
X187285714Y-86952380D01*
X186952380Y-87333333D01*
X187095238Y-87333333D01*
X187190476Y-87380952D01*
X187238095Y-87428571D01*
X187285714Y-87523809D01*
X187285714Y-87761904D01*
X187238095Y-87857142D01*
X187190476Y-87904761D01*
X187095238Y-87952380D01*
X186809523Y-87952380D01*
X186714285Y-87904761D01*
X186666666Y-87857142D01*
X200857142Y-93952380D02*
X200523809Y-93476190D01*
X200285714Y-93952380D02*
X200285714Y-92952380D01*
X200666666Y-92952380D01*
X200761904Y-93000000D01*
X200809523Y-93047619D01*
X200857142Y-93142857D01*
X200857142Y-93285714D01*
X200809523Y-93380952D01*
X200761904Y-93428571D01*
X200666666Y-93476190D01*
X200285714Y-93476190D01*
X201809523Y-93952380D02*
X201238095Y-93952380D01*
X201523809Y-93952380D02*
X201523809Y-92952380D01*
X201428571Y-93095238D01*
X201333333Y-93190476D01*
X201238095Y-93238095D01*
X202761904Y-93952380D02*
X202190476Y-93952380D01*
X202476190Y-93952380D02*
X202476190Y-92952380D01*
X202380952Y-93095238D01*
X202285714Y-93190476D01*
X202190476Y-93238095D01*
X149557142Y-116517857D02*
X149604761Y-116565476D01*
X149652380Y-116708333D01*
X149652380Y-116803571D01*
X149604761Y-116946428D01*
X149509523Y-117041666D01*
X149414285Y-117089285D01*
X149223809Y-117136904D01*
X149080952Y-117136904D01*
X148890476Y-117089285D01*
X148795238Y-117041666D01*
X148700000Y-116946428D01*
X148652380Y-116803571D01*
X148652380Y-116708333D01*
X148700000Y-116565476D01*
X148747619Y-116517857D01*
X148747619Y-116136904D02*
X148700000Y-116089285D01*
X148652380Y-115994047D01*
X148652380Y-115755952D01*
X148700000Y-115660714D01*
X148747619Y-115613095D01*
X148842857Y-115565476D01*
X148938095Y-115565476D01*
X149080952Y-115613095D01*
X149652380Y-116184523D01*
X149652380Y-115565476D01*
X148985714Y-114708333D02*
X149652380Y-114708333D01*
X148604761Y-114946428D02*
X149319047Y-115184523D01*
X149319047Y-114565476D01*
X190952380Y-117761904D02*
X191761904Y-117761904D01*
X191857142Y-117714285D01*
X191904761Y-117666666D01*
X191952380Y-117571428D01*
X191952380Y-117380952D01*
X191904761Y-117285714D01*
X191857142Y-117238095D01*
X191761904Y-117190476D01*
X190952380Y-117190476D01*
X190952380Y-116238095D02*
X190952380Y-116714285D01*
X191428571Y-116761904D01*
X191380952Y-116714285D01*
X191333333Y-116619047D01*
X191333333Y-116380952D01*
X191380952Y-116285714D01*
X191428571Y-116238095D01*
X191523809Y-116190476D01*
X191761904Y-116190476D01*
X191857142Y-116238095D01*
X191904761Y-116285714D01*
X191952380Y-116380952D01*
X191952380Y-116619047D01*
X191904761Y-116714285D01*
X191857142Y-116761904D01*
X158947619Y-123152380D02*
X159519047Y-123152380D01*
X159233333Y-124152380D02*
X159233333Y-123152380D01*
X159852380Y-124152380D02*
X159852380Y-123152380D01*
X160233333Y-123152380D01*
X160328571Y-123200000D01*
X160376190Y-123247619D01*
X160423809Y-123342857D01*
X160423809Y-123485714D01*
X160376190Y-123580952D01*
X160328571Y-123628571D01*
X160233333Y-123676190D01*
X159852380Y-123676190D01*
X160614285Y-124247619D02*
X161376190Y-124247619D01*
X161471428Y-123152380D02*
X161804761Y-124152380D01*
X162138095Y-123152380D01*
X163042857Y-124152380D02*
X162709523Y-123676190D01*
X162471428Y-124152380D02*
X162471428Y-123152380D01*
X162852380Y-123152380D01*
X162947619Y-123200000D01*
X162995238Y-123247619D01*
X163042857Y-123342857D01*
X163042857Y-123485714D01*
X162995238Y-123580952D01*
X162947619Y-123628571D01*
X162852380Y-123676190D01*
X162471428Y-123676190D01*
X163471428Y-123628571D02*
X163804761Y-123628571D01*
X163947619Y-124152380D02*
X163471428Y-124152380D01*
X163471428Y-123152380D01*
X163947619Y-123152380D01*
X164709523Y-123628571D02*
X164376190Y-123628571D01*
X164376190Y-124152380D02*
X164376190Y-123152380D01*
X164852380Y-123152380D01*
X165757142Y-124152380D02*
X165185714Y-124152380D01*
X165471428Y-124152380D02*
X165471428Y-123152380D01*
X165376190Y-123295238D01*
X165280952Y-123390476D01*
X165185714Y-123438095D01*
X111452380Y-105666666D02*
X110976190Y-106000000D01*
X111452380Y-106238095D02*
X110452380Y-106238095D01*
X110452380Y-105857142D01*
X110500000Y-105761904D01*
X110547619Y-105714285D01*
X110642857Y-105666666D01*
X110785714Y-105666666D01*
X110880952Y-105714285D01*
X110928571Y-105761904D01*
X110976190Y-105857142D01*
X110976190Y-106238095D01*
X110547619Y-105285714D02*
X110500000Y-105238095D01*
X110452380Y-105142857D01*
X110452380Y-104904761D01*
X110500000Y-104809523D01*
X110547619Y-104761904D01*
X110642857Y-104714285D01*
X110738095Y-104714285D01*
X110880952Y-104761904D01*
X111452380Y-105333333D01*
X111452380Y-104714285D01*
X189080952Y-127452380D02*
X189652380Y-127452380D01*
X189366666Y-128452380D02*
X189366666Y-127452380D01*
X189985714Y-128452380D02*
X189985714Y-127452380D01*
X190366666Y-127452380D01*
X190461904Y-127500000D01*
X190509523Y-127547619D01*
X190557142Y-127642857D01*
X190557142Y-127785714D01*
X190509523Y-127880952D01*
X190461904Y-127928571D01*
X190366666Y-127976190D01*
X189985714Y-127976190D01*
X190747619Y-128547619D02*
X191509523Y-128547619D01*
X191700000Y-128404761D02*
X191842857Y-128452380D01*
X192080952Y-128452380D01*
X192176190Y-128404761D01*
X192223809Y-128357142D01*
X192271428Y-128261904D01*
X192271428Y-128166666D01*
X192223809Y-128071428D01*
X192176190Y-128023809D01*
X192080952Y-127976190D01*
X191890476Y-127928571D01*
X191795238Y-127880952D01*
X191747619Y-127833333D01*
X191700000Y-127738095D01*
X191700000Y-127642857D01*
X191747619Y-127547619D01*
X191795238Y-127500000D01*
X191890476Y-127452380D01*
X192128571Y-127452380D01*
X192271428Y-127500000D01*
X193271428Y-128357142D02*
X193223809Y-128404761D01*
X193080952Y-128452380D01*
X192985714Y-128452380D01*
X192842857Y-128404761D01*
X192747619Y-128309523D01*
X192700000Y-128214285D01*
X192652380Y-128023809D01*
X192652380Y-127880952D01*
X192700000Y-127690476D01*
X192747619Y-127595238D01*
X192842857Y-127500000D01*
X192985714Y-127452380D01*
X193080952Y-127452380D01*
X193223809Y-127500000D01*
X193271428Y-127547619D01*
X193700000Y-128452380D02*
X193700000Y-127452380D01*
X194271428Y-128452380D02*
X193842857Y-127880952D01*
X194271428Y-127452380D02*
X193700000Y-128023809D01*
X195223809Y-128452380D02*
X194652380Y-128452380D01*
X194938095Y-128452380D02*
X194938095Y-127452380D01*
X194842857Y-127595238D01*
X194747619Y-127690476D01*
X194652380Y-127738095D01*
X103857142Y-107357142D02*
X103809523Y-107404761D01*
X103666666Y-107452380D01*
X103571428Y-107452380D01*
X103428571Y-107404761D01*
X103333333Y-107309523D01*
X103285714Y-107214285D01*
X103238095Y-107023809D01*
X103238095Y-106880952D01*
X103285714Y-106690476D01*
X103333333Y-106595238D01*
X103428571Y-106500000D01*
X103571428Y-106452380D01*
X103666666Y-106452380D01*
X103809523Y-106500000D01*
X103857142Y-106547619D01*
X104809523Y-107452380D02*
X104238095Y-107452380D01*
X104523809Y-107452380D02*
X104523809Y-106452380D01*
X104428571Y-106595238D01*
X104333333Y-106690476D01*
X104238095Y-106738095D01*
X105190476Y-106547619D02*
X105238095Y-106500000D01*
X105333333Y-106452380D01*
X105571428Y-106452380D01*
X105666666Y-106500000D01*
X105714285Y-106547619D01*
X105761904Y-106642857D01*
X105761904Y-106738095D01*
X105714285Y-106880952D01*
X105142857Y-107452380D01*
X105761904Y-107452380D01*
X108857142Y-117857142D02*
X108809523Y-117904761D01*
X108666666Y-117952380D01*
X108571428Y-117952380D01*
X108428571Y-117904761D01*
X108333333Y-117809523D01*
X108285714Y-117714285D01*
X108238095Y-117523809D01*
X108238095Y-117380952D01*
X108285714Y-117190476D01*
X108333333Y-117095238D01*
X108428571Y-117000000D01*
X108571428Y-116952380D01*
X108666666Y-116952380D01*
X108809523Y-117000000D01*
X108857142Y-117047619D01*
X109190476Y-116952380D02*
X109809523Y-116952380D01*
X109476190Y-117333333D01*
X109619047Y-117333333D01*
X109714285Y-117380952D01*
X109761904Y-117428571D01*
X109809523Y-117523809D01*
X109809523Y-117761904D01*
X109761904Y-117857142D01*
X109714285Y-117904761D01*
X109619047Y-117952380D01*
X109333333Y-117952380D01*
X109238095Y-117904761D01*
X109190476Y-117857142D01*
X110666666Y-117285714D02*
X110666666Y-117952380D01*
X110428571Y-116904761D02*
X110190476Y-117619047D01*
X110809523Y-117619047D01*
X111357142Y-96857142D02*
X111309523Y-96904761D01*
X111166666Y-96952380D01*
X111071428Y-96952380D01*
X110928571Y-96904761D01*
X110833333Y-96809523D01*
X110785714Y-96714285D01*
X110738095Y-96523809D01*
X110738095Y-96380952D01*
X110785714Y-96190476D01*
X110833333Y-96095238D01*
X110928571Y-96000000D01*
X111071428Y-95952380D01*
X111166666Y-95952380D01*
X111309523Y-96000000D01*
X111357142Y-96047619D01*
X112309523Y-96952380D02*
X111738095Y-96952380D01*
X112023809Y-96952380D02*
X112023809Y-95952380D01*
X111928571Y-96095238D01*
X111833333Y-96190476D01*
X111738095Y-96238095D01*
X112928571Y-95952380D02*
X113023809Y-95952380D01*
X113119047Y-96000000D01*
X113166666Y-96047619D01*
X113214285Y-96142857D01*
X113261904Y-96333333D01*
X113261904Y-96571428D01*
X113214285Y-96761904D01*
X113166666Y-96857142D01*
X113119047Y-96904761D01*
X113023809Y-96952380D01*
X112928571Y-96952380D01*
X112833333Y-96904761D01*
X112785714Y-96857142D01*
X112738095Y-96761904D01*
X112690476Y-96571428D01*
X112690476Y-96333333D01*
X112738095Y-96142857D01*
X112785714Y-96047619D01*
X112833333Y-96000000D01*
X112928571Y-95952380D01*
X96357142Y-125857142D02*
X96309523Y-125904761D01*
X96166666Y-125952380D01*
X96071428Y-125952380D01*
X95928571Y-125904761D01*
X95833333Y-125809523D01*
X95785714Y-125714285D01*
X95738095Y-125523809D01*
X95738095Y-125380952D01*
X95785714Y-125190476D01*
X95833333Y-125095238D01*
X95928571Y-125000000D01*
X96071428Y-124952380D01*
X96166666Y-124952380D01*
X96309523Y-125000000D01*
X96357142Y-125047619D01*
X96690476Y-124952380D02*
X97309523Y-124952380D01*
X96976190Y-125333333D01*
X97119047Y-125333333D01*
X97214285Y-125380952D01*
X97261904Y-125428571D01*
X97309523Y-125523809D01*
X97309523Y-125761904D01*
X97261904Y-125857142D01*
X97214285Y-125904761D01*
X97119047Y-125952380D01*
X96833333Y-125952380D01*
X96738095Y-125904761D01*
X96690476Y-125857142D01*
X97928571Y-124952380D02*
X98023809Y-124952380D01*
X98119047Y-125000000D01*
X98166666Y-125047619D01*
X98214285Y-125142857D01*
X98261904Y-125333333D01*
X98261904Y-125571428D01*
X98214285Y-125761904D01*
X98166666Y-125857142D01*
X98119047Y-125904761D01*
X98023809Y-125952380D01*
X97928571Y-125952380D01*
X97833333Y-125904761D01*
X97785714Y-125857142D01*
X97738095Y-125761904D01*
X97690476Y-125571428D01*
X97690476Y-125333333D01*
X97738095Y-125142857D01*
X97785714Y-125047619D01*
X97833333Y-125000000D01*
X97928571Y-124952380D01*
X104857142Y-87452380D02*
X104523809Y-86976190D01*
X104285714Y-87452380D02*
X104285714Y-86452380D01*
X104666666Y-86452380D01*
X104761904Y-86500000D01*
X104809523Y-86547619D01*
X104857142Y-86642857D01*
X104857142Y-86785714D01*
X104809523Y-86880952D01*
X104761904Y-86928571D01*
X104666666Y-86976190D01*
X104285714Y-86976190D01*
X105809523Y-87452380D02*
X105238095Y-87452380D01*
X105523809Y-87452380D02*
X105523809Y-86452380D01*
X105428571Y-86595238D01*
X105333333Y-86690476D01*
X105238095Y-86738095D01*
X106380952Y-86880952D02*
X106285714Y-86833333D01*
X106238095Y-86785714D01*
X106190476Y-86690476D01*
X106190476Y-86642857D01*
X106238095Y-86547619D01*
X106285714Y-86500000D01*
X106380952Y-86452380D01*
X106571428Y-86452380D01*
X106666666Y-86500000D01*
X106714285Y-86547619D01*
X106761904Y-86642857D01*
X106761904Y-86690476D01*
X106714285Y-86785714D01*
X106666666Y-86833333D01*
X106571428Y-86880952D01*
X106380952Y-86880952D01*
X106285714Y-86928571D01*
X106238095Y-86976190D01*
X106190476Y-87071428D01*
X106190476Y-87261904D01*
X106238095Y-87357142D01*
X106285714Y-87404761D01*
X106380952Y-87452380D01*
X106571428Y-87452380D01*
X106666666Y-87404761D01*
X106714285Y-87357142D01*
X106761904Y-87261904D01*
X106761904Y-87071428D01*
X106714285Y-86976190D01*
X106666666Y-86928571D01*
X106571428Y-86880952D01*
X149627142Y-111742857D02*
X149674761Y-111790476D01*
X149722380Y-111933333D01*
X149722380Y-112028571D01*
X149674761Y-112171428D01*
X149579523Y-112266666D01*
X149484285Y-112314285D01*
X149293809Y-112361904D01*
X149150952Y-112361904D01*
X148960476Y-112314285D01*
X148865238Y-112266666D01*
X148770000Y-112171428D01*
X148722380Y-112028571D01*
X148722380Y-111933333D01*
X148770000Y-111790476D01*
X148817619Y-111742857D01*
X148817619Y-111361904D02*
X148770000Y-111314285D01*
X148722380Y-111219047D01*
X148722380Y-110980952D01*
X148770000Y-110885714D01*
X148817619Y-110838095D01*
X148912857Y-110790476D01*
X149008095Y-110790476D01*
X149150952Y-110838095D01*
X149722380Y-111409523D01*
X149722380Y-110790476D01*
X148722380Y-110457142D02*
X148722380Y-109838095D01*
X149103333Y-110171428D01*
X149103333Y-110028571D01*
X149150952Y-109933333D01*
X149198571Y-109885714D01*
X149293809Y-109838095D01*
X149531904Y-109838095D01*
X149627142Y-109885714D01*
X149674761Y-109933333D01*
X149722380Y-110028571D01*
X149722380Y-110314285D01*
X149674761Y-110409523D01*
X149627142Y-110457142D01*
X108857142Y-125857142D02*
X108809523Y-125904761D01*
X108666666Y-125952380D01*
X108571428Y-125952380D01*
X108428571Y-125904761D01*
X108333333Y-125809523D01*
X108285714Y-125714285D01*
X108238095Y-125523809D01*
X108238095Y-125380952D01*
X108285714Y-125190476D01*
X108333333Y-125095238D01*
X108428571Y-125000000D01*
X108571428Y-124952380D01*
X108666666Y-124952380D01*
X108809523Y-125000000D01*
X108857142Y-125047619D01*
X109238095Y-125047619D02*
X109285714Y-125000000D01*
X109380952Y-124952380D01*
X109619047Y-124952380D01*
X109714285Y-125000000D01*
X109761904Y-125047619D01*
X109809523Y-125142857D01*
X109809523Y-125238095D01*
X109761904Y-125380952D01*
X109190476Y-125952380D01*
X109809523Y-125952380D01*
X110380952Y-125380952D02*
X110285714Y-125333333D01*
X110238095Y-125285714D01*
X110190476Y-125190476D01*
X110190476Y-125142857D01*
X110238095Y-125047619D01*
X110285714Y-125000000D01*
X110380952Y-124952380D01*
X110571428Y-124952380D01*
X110666666Y-125000000D01*
X110714285Y-125047619D01*
X110761904Y-125142857D01*
X110761904Y-125190476D01*
X110714285Y-125285714D01*
X110666666Y-125333333D01*
X110571428Y-125380952D01*
X110380952Y-125380952D01*
X110285714Y-125428571D01*
X110238095Y-125476190D01*
X110190476Y-125571428D01*
X110190476Y-125761904D01*
X110238095Y-125857142D01*
X110285714Y-125904761D01*
X110380952Y-125952380D01*
X110571428Y-125952380D01*
X110666666Y-125904761D01*
X110714285Y-125857142D01*
X110761904Y-125761904D01*
X110761904Y-125571428D01*
X110714285Y-125476190D01*
X110666666Y-125428571D01*
X110571428Y-125380952D01*
X200857142Y-89857142D02*
X200809523Y-89904761D01*
X200666666Y-89952380D01*
X200571428Y-89952380D01*
X200428571Y-89904761D01*
X200333333Y-89809523D01*
X200285714Y-89714285D01*
X200238095Y-89523809D01*
X200238095Y-89380952D01*
X200285714Y-89190476D01*
X200333333Y-89095238D01*
X200428571Y-89000000D01*
X200571428Y-88952380D01*
X200666666Y-88952380D01*
X200809523Y-89000000D01*
X200857142Y-89047619D01*
X201714285Y-89285714D02*
X201714285Y-89952380D01*
X201476190Y-88904761D02*
X201238095Y-89619047D01*
X201857142Y-89619047D01*
X202428571Y-88952380D02*
X202523809Y-88952380D01*
X202619047Y-89000000D01*
X202666666Y-89047619D01*
X202714285Y-89142857D01*
X202761904Y-89333333D01*
X202761904Y-89571428D01*
X202714285Y-89761904D01*
X202666666Y-89857142D01*
X202619047Y-89904761D01*
X202523809Y-89952380D01*
X202428571Y-89952380D01*
X202333333Y-89904761D01*
X202285714Y-89857142D01*
X202238095Y-89761904D01*
X202190476Y-89571428D01*
X202190476Y-89333333D01*
X202238095Y-89142857D01*
X202285714Y-89047619D01*
X202333333Y-89000000D01*
X202428571Y-88952380D01*
X190357142Y-90157142D02*
X190309523Y-90204761D01*
X190166666Y-90252380D01*
X190071428Y-90252380D01*
X189928571Y-90204761D01*
X189833333Y-90109523D01*
X189785714Y-90014285D01*
X189738095Y-89823809D01*
X189738095Y-89680952D01*
X189785714Y-89490476D01*
X189833333Y-89395238D01*
X189928571Y-89300000D01*
X190071428Y-89252380D01*
X190166666Y-89252380D01*
X190309523Y-89300000D01*
X190357142Y-89347619D01*
X191214285Y-89585714D02*
X191214285Y-90252380D01*
X190976190Y-89204761D02*
X190738095Y-89919047D01*
X191357142Y-89919047D01*
X191690476Y-89347619D02*
X191738095Y-89300000D01*
X191833333Y-89252380D01*
X192071428Y-89252380D01*
X192166666Y-89300000D01*
X192214285Y-89347619D01*
X192261904Y-89442857D01*
X192261904Y-89538095D01*
X192214285Y-89680952D01*
X191642857Y-90252380D01*
X192261904Y-90252380D01*
X148552380Y-128347619D02*
X148552380Y-127776190D01*
X149552380Y-128061904D02*
X148552380Y-128061904D01*
X149552380Y-127442857D02*
X148552380Y-127442857D01*
X148552380Y-127061904D01*
X148600000Y-126966666D01*
X148647619Y-126919047D01*
X148742857Y-126871428D01*
X148885714Y-126871428D01*
X148980952Y-126919047D01*
X149028571Y-126966666D01*
X149076190Y-127061904D01*
X149076190Y-127442857D01*
X149647619Y-126680952D02*
X149647619Y-125919047D01*
X149504761Y-125728571D02*
X149552380Y-125585714D01*
X149552380Y-125347619D01*
X149504761Y-125252380D01*
X149457142Y-125204761D01*
X149361904Y-125157142D01*
X149266666Y-125157142D01*
X149171428Y-125204761D01*
X149123809Y-125252380D01*
X149076190Y-125347619D01*
X149028571Y-125538095D01*
X148980952Y-125633333D01*
X148933333Y-125680952D01*
X148838095Y-125728571D01*
X148742857Y-125728571D01*
X148647619Y-125680952D01*
X148600000Y-125633333D01*
X148552380Y-125538095D01*
X148552380Y-125300000D01*
X148600000Y-125157142D01*
X149552380Y-124728571D02*
X148552380Y-124728571D01*
X148552380Y-124490476D01*
X148600000Y-124347619D01*
X148695238Y-124252380D01*
X148790476Y-124204761D01*
X148980952Y-124157142D01*
X149123809Y-124157142D01*
X149314285Y-124204761D01*
X149409523Y-124252380D01*
X149504761Y-124347619D01*
X149552380Y-124490476D01*
X149552380Y-124728571D01*
X149266666Y-123776190D02*
X149266666Y-123300000D01*
X149552380Y-123871428D02*
X148552380Y-123538095D01*
X149552380Y-123204761D01*
X149552380Y-122347619D02*
X149552380Y-122919047D01*
X149552380Y-122633333D02*
X148552380Y-122633333D01*
X148695238Y-122728571D01*
X148790476Y-122823809D01*
X148838095Y-122919047D01*
X154952380Y-131254285D02*
X153952380Y-131254285D01*
X153952380Y-131016190D01*
X154000000Y-130873333D01*
X154095238Y-130778095D01*
X154190476Y-130730476D01*
X154380952Y-130682857D01*
X154523809Y-130682857D01*
X154714285Y-130730476D01*
X154809523Y-130778095D01*
X154904761Y-130873333D01*
X154952380Y-131016190D01*
X154952380Y-131254285D01*
X154952380Y-129730476D02*
X154952380Y-130301904D01*
X154952380Y-130016190D02*
X153952380Y-130016190D01*
X154095238Y-130111428D01*
X154190476Y-130206666D01*
X154238095Y-130301904D01*
X153952380Y-129397142D02*
X153952380Y-128778095D01*
X154333333Y-129111428D01*
X154333333Y-128968571D01*
X154380952Y-128873333D01*
X154428571Y-128825714D01*
X154523809Y-128778095D01*
X154761904Y-128778095D01*
X154857142Y-128825714D01*
X154904761Y-128873333D01*
X154952380Y-128968571D01*
X154952380Y-129254285D01*
X154904761Y-129349523D01*
X154857142Y-129397142D01*
X162452380Y-130682857D02*
X161976190Y-131016190D01*
X162452380Y-131254285D02*
X161452380Y-131254285D01*
X161452380Y-130873333D01*
X161500000Y-130778095D01*
X161547619Y-130730476D01*
X161642857Y-130682857D01*
X161785714Y-130682857D01*
X161880952Y-130730476D01*
X161928571Y-130778095D01*
X161976190Y-130873333D01*
X161976190Y-131254285D01*
X161547619Y-130301904D02*
X161500000Y-130254285D01*
X161452380Y-130159047D01*
X161452380Y-129920952D01*
X161500000Y-129825714D01*
X161547619Y-129778095D01*
X161642857Y-129730476D01*
X161738095Y-129730476D01*
X161880952Y-129778095D01*
X162452380Y-130349523D01*
X162452380Y-129730476D01*
X162452380Y-128778095D02*
X162452380Y-129349523D01*
X162452380Y-129063809D02*
X161452380Y-129063809D01*
X161595238Y-129159047D01*
X161690476Y-129254285D01*
X161738095Y-129349523D01*
X158100595Y-116452380D02*
X158100595Y-117261904D01*
X158148214Y-117357142D01*
X158195833Y-117404761D01*
X158291071Y-117452380D01*
X158481547Y-117452380D01*
X158576785Y-117404761D01*
X158624404Y-117357142D01*
X158672023Y-117261904D01*
X158672023Y-116452380D01*
X159052976Y-116452380D02*
X159719642Y-116452380D01*
X159291071Y-117452380D01*
X121357142Y-122952380D02*
X121023809Y-122476190D01*
X120785714Y-122952380D02*
X120785714Y-121952380D01*
X121166666Y-121952380D01*
X121261904Y-122000000D01*
X121309523Y-122047619D01*
X121357142Y-122142857D01*
X121357142Y-122285714D01*
X121309523Y-122380952D01*
X121261904Y-122428571D01*
X121166666Y-122476190D01*
X120785714Y-122476190D01*
X121738095Y-122047619D02*
X121785714Y-122000000D01*
X121880952Y-121952380D01*
X122119047Y-121952380D01*
X122214285Y-122000000D01*
X122261904Y-122047619D01*
X122309523Y-122142857D01*
X122309523Y-122238095D01*
X122261904Y-122380952D01*
X121690476Y-122952380D01*
X122309523Y-122952380D01*
X122880952Y-122380952D02*
X122785714Y-122333333D01*
X122738095Y-122285714D01*
X122690476Y-122190476D01*
X122690476Y-122142857D01*
X122738095Y-122047619D01*
X122785714Y-122000000D01*
X122880952Y-121952380D01*
X123071428Y-121952380D01*
X123166666Y-122000000D01*
X123214285Y-122047619D01*
X123261904Y-122142857D01*
X123261904Y-122190476D01*
X123214285Y-122285714D01*
X123166666Y-122333333D01*
X123071428Y-122380952D01*
X122880952Y-122380952D01*
X122785714Y-122428571D01*
X122738095Y-122476190D01*
X122690476Y-122571428D01*
X122690476Y-122761904D01*
X122738095Y-122857142D01*
X122785714Y-122904761D01*
X122880952Y-122952380D01*
X123071428Y-122952380D01*
X123166666Y-122904761D01*
X123214285Y-122857142D01*
X123261904Y-122761904D01*
X123261904Y-122571428D01*
X123214285Y-122476190D01*
X123166666Y-122428571D01*
X123071428Y-122380952D01*
X96357142Y-130952380D02*
X96023809Y-130476190D01*
X95785714Y-130952380D02*
X95785714Y-129952380D01*
X96166666Y-129952380D01*
X96261904Y-130000000D01*
X96309523Y-130047619D01*
X96357142Y-130142857D01*
X96357142Y-130285714D01*
X96309523Y-130380952D01*
X96261904Y-130428571D01*
X96166666Y-130476190D01*
X95785714Y-130476190D01*
X96690476Y-129952380D02*
X97309523Y-129952380D01*
X96976190Y-130333333D01*
X97119047Y-130333333D01*
X97214285Y-130380952D01*
X97261904Y-130428571D01*
X97309523Y-130523809D01*
X97309523Y-130761904D01*
X97261904Y-130857142D01*
X97214285Y-130904761D01*
X97119047Y-130952380D01*
X96833333Y-130952380D01*
X96738095Y-130904761D01*
X96690476Y-130857142D01*
X98214285Y-129952380D02*
X97738095Y-129952380D01*
X97690476Y-130428571D01*
X97738095Y-130380952D01*
X97833333Y-130333333D01*
X98071428Y-130333333D01*
X98166666Y-130380952D01*
X98214285Y-130428571D01*
X98261904Y-130523809D01*
X98261904Y-130761904D01*
X98214285Y-130857142D01*
X98166666Y-130904761D01*
X98071428Y-130952380D01*
X97833333Y-130952380D01*
X97738095Y-130904761D01*
X97690476Y-130857142D01*
X109357142Y-105642857D02*
X109404761Y-105690476D01*
X109452380Y-105833333D01*
X109452380Y-105928571D01*
X109404761Y-106071428D01*
X109309523Y-106166666D01*
X109214285Y-106214285D01*
X109023809Y-106261904D01*
X108880952Y-106261904D01*
X108690476Y-106214285D01*
X108595238Y-106166666D01*
X108500000Y-106071428D01*
X108452380Y-105928571D01*
X108452380Y-105833333D01*
X108500000Y-105690476D01*
X108547619Y-105642857D01*
X109452380Y-104690476D02*
X109452380Y-105261904D01*
X109452380Y-104976190D02*
X108452380Y-104976190D01*
X108595238Y-105071428D01*
X108690476Y-105166666D01*
X108738095Y-105261904D01*
X108452380Y-104357142D02*
X108452380Y-103690476D01*
X109452380Y-104119047D01*
X199133333Y-81557142D02*
X199085714Y-81604761D01*
X198942857Y-81652380D01*
X198847619Y-81652380D01*
X198704761Y-81604761D01*
X198609523Y-81509523D01*
X198561904Y-81414285D01*
X198514285Y-81223809D01*
X198514285Y-81080952D01*
X198561904Y-80890476D01*
X198609523Y-80795238D01*
X198704761Y-80700000D01*
X198847619Y-80652380D01*
X198942857Y-80652380D01*
X199085714Y-80700000D01*
X199133333Y-80747619D01*
X200038095Y-80652380D02*
X199561904Y-80652380D01*
X199514285Y-81128571D01*
X199561904Y-81080952D01*
X199657142Y-81033333D01*
X199895238Y-81033333D01*
X199990476Y-81080952D01*
X200038095Y-81128571D01*
X200085714Y-81223809D01*
X200085714Y-81461904D01*
X200038095Y-81557142D01*
X199990476Y-81604761D01*
X199895238Y-81652380D01*
X199657142Y-81652380D01*
X199561904Y-81604761D01*
X199514285Y-81557142D01*
X176827380Y-131195833D02*
X177541666Y-131195833D01*
X177684523Y-131243452D01*
X177779761Y-131338690D01*
X177827380Y-131481547D01*
X177827380Y-131576785D01*
X177827380Y-130719642D02*
X176827380Y-130719642D01*
X176827380Y-130338690D01*
X176875000Y-130243452D01*
X176922619Y-130195833D01*
X177017857Y-130148214D01*
X177160714Y-130148214D01*
X177255952Y-130195833D01*
X177303571Y-130243452D01*
X177351190Y-130338690D01*
X177351190Y-130719642D01*
X176922619Y-129767261D02*
X176875000Y-129719642D01*
X176827380Y-129624404D01*
X176827380Y-129386309D01*
X176875000Y-129291071D01*
X176922619Y-129243452D01*
X177017857Y-129195833D01*
X177113095Y-129195833D01*
X177255952Y-129243452D01*
X177827380Y-129814880D01*
X177827380Y-129195833D01*
X169827380Y-131108333D02*
X170541666Y-131108333D01*
X170684523Y-131155952D01*
X170779761Y-131251190D01*
X170827380Y-131394047D01*
X170827380Y-131489285D01*
X170827380Y-130632142D02*
X169827380Y-130632142D01*
X169827380Y-130251190D01*
X169875000Y-130155952D01*
X169922619Y-130108333D01*
X170017857Y-130060714D01*
X170160714Y-130060714D01*
X170255952Y-130108333D01*
X170303571Y-130155952D01*
X170351190Y-130251190D01*
X170351190Y-130632142D01*
X170827380Y-129108333D02*
X170827380Y-129679761D01*
X170827380Y-129394047D02*
X169827380Y-129394047D01*
X169970238Y-129489285D01*
X170065476Y-129584523D01*
X170113095Y-129679761D01*
X138333333Y-117357142D02*
X138285714Y-117404761D01*
X138142857Y-117452380D01*
X138047619Y-117452380D01*
X137904761Y-117404761D01*
X137809523Y-117309523D01*
X137761904Y-117214285D01*
X137714285Y-117023809D01*
X137714285Y-116880952D01*
X137761904Y-116690476D01*
X137809523Y-116595238D01*
X137904761Y-116500000D01*
X138047619Y-116452380D01*
X138142857Y-116452380D01*
X138285714Y-116500000D01*
X138333333Y-116547619D01*
X138714285Y-116547619D02*
X138761904Y-116500000D01*
X138857142Y-116452380D01*
X139095238Y-116452380D01*
X139190476Y-116500000D01*
X139238095Y-116547619D01*
X139285714Y-116642857D01*
X139285714Y-116738095D01*
X139238095Y-116880952D01*
X138666666Y-117452380D01*
X139285714Y-117452380D01*
X104857142Y-85452380D02*
X104523809Y-84976190D01*
X104285714Y-85452380D02*
X104285714Y-84452380D01*
X104666666Y-84452380D01*
X104761904Y-84500000D01*
X104809523Y-84547619D01*
X104857142Y-84642857D01*
X104857142Y-84785714D01*
X104809523Y-84880952D01*
X104761904Y-84928571D01*
X104666666Y-84976190D01*
X104285714Y-84976190D01*
X105809523Y-85452380D02*
X105238095Y-85452380D01*
X105523809Y-85452380D02*
X105523809Y-84452380D01*
X105428571Y-84595238D01*
X105333333Y-84690476D01*
X105238095Y-84738095D01*
X106285714Y-85452380D02*
X106476190Y-85452380D01*
X106571428Y-85404761D01*
X106619047Y-85357142D01*
X106714285Y-85214285D01*
X106761904Y-85023809D01*
X106761904Y-84642857D01*
X106714285Y-84547619D01*
X106666666Y-84500000D01*
X106571428Y-84452380D01*
X106380952Y-84452380D01*
X106285714Y-84500000D01*
X106238095Y-84547619D01*
X106190476Y-84642857D01*
X106190476Y-84880952D01*
X106238095Y-84976190D01*
X106285714Y-85023809D01*
X106380952Y-85071428D01*
X106571428Y-85071428D01*
X106666666Y-85023809D01*
X106714285Y-84976190D01*
X106761904Y-84880952D01*
X119652380Y-96066666D02*
X119652380Y-95495238D01*
X120652380Y-95780952D02*
X119652380Y-95780952D01*
X120652380Y-95161904D02*
X119652380Y-95161904D01*
X119652380Y-94780952D01*
X119700000Y-94685714D01*
X119747619Y-94638095D01*
X119842857Y-94590476D01*
X119985714Y-94590476D01*
X120080952Y-94638095D01*
X120128571Y-94685714D01*
X120176190Y-94780952D01*
X120176190Y-95161904D01*
X120747619Y-94400000D02*
X120747619Y-93638095D01*
X119700000Y-92876190D02*
X119652380Y-92971428D01*
X119652380Y-93114285D01*
X119700000Y-93257142D01*
X119795238Y-93352380D01*
X119890476Y-93400000D01*
X120080952Y-93447619D01*
X120223809Y-93447619D01*
X120414285Y-93400000D01*
X120509523Y-93352380D01*
X120604761Y-93257142D01*
X120652380Y-93114285D01*
X120652380Y-93019047D01*
X120604761Y-92876190D01*
X120557142Y-92828571D01*
X120223809Y-92828571D01*
X120223809Y-93019047D01*
X120652380Y-92400000D02*
X119652380Y-92400000D01*
X120652380Y-91828571D01*
X119652380Y-91828571D01*
X120652380Y-91352380D02*
X119652380Y-91352380D01*
X119652380Y-91114285D01*
X119700000Y-90971428D01*
X119795238Y-90876190D01*
X119890476Y-90828571D01*
X120080952Y-90780952D01*
X120223809Y-90780952D01*
X120414285Y-90828571D01*
X120509523Y-90876190D01*
X120604761Y-90971428D01*
X120652380Y-91114285D01*
X120652380Y-91352380D01*
X119747619Y-90400000D02*
X119700000Y-90352380D01*
X119652380Y-90257142D01*
X119652380Y-90019047D01*
X119700000Y-89923809D01*
X119747619Y-89876190D01*
X119842857Y-89828571D01*
X119938095Y-89828571D01*
X120080952Y-89876190D01*
X120652380Y-90447619D01*
X120652380Y-89828571D01*
X167149642Y-120142857D02*
X167197261Y-120190476D01*
X167244880Y-120333333D01*
X167244880Y-120428571D01*
X167197261Y-120571428D01*
X167102023Y-120666666D01*
X167006785Y-120714285D01*
X166816309Y-120761904D01*
X166673452Y-120761904D01*
X166482976Y-120714285D01*
X166387738Y-120666666D01*
X166292500Y-120571428D01*
X166244880Y-120428571D01*
X166244880Y-120333333D01*
X166292500Y-120190476D01*
X166340119Y-120142857D01*
X166340119Y-119761904D02*
X166292500Y-119714285D01*
X166244880Y-119619047D01*
X166244880Y-119380952D01*
X166292500Y-119285714D01*
X166340119Y-119238095D01*
X166435357Y-119190476D01*
X166530595Y-119190476D01*
X166673452Y-119238095D01*
X167244880Y-119809523D01*
X167244880Y-119190476D01*
X166244880Y-118333333D02*
X166244880Y-118523809D01*
X166292500Y-118619047D01*
X166340119Y-118666666D01*
X166482976Y-118761904D01*
X166673452Y-118809523D01*
X167054404Y-118809523D01*
X167149642Y-118761904D01*
X167197261Y-118714285D01*
X167244880Y-118619047D01*
X167244880Y-118428571D01*
X167197261Y-118333333D01*
X167149642Y-118285714D01*
X167054404Y-118238095D01*
X166816309Y-118238095D01*
X166721071Y-118285714D01*
X166673452Y-118333333D01*
X166625833Y-118428571D01*
X166625833Y-118619047D01*
X166673452Y-118714285D01*
X166721071Y-118761904D01*
X166816309Y-118809523D01*
X180657142Y-119557142D02*
X180609523Y-119604761D01*
X180466666Y-119652380D01*
X180371428Y-119652380D01*
X180228571Y-119604761D01*
X180133333Y-119509523D01*
X180085714Y-119414285D01*
X180038095Y-119223809D01*
X180038095Y-119080952D01*
X180085714Y-118890476D01*
X180133333Y-118795238D01*
X180228571Y-118700000D01*
X180371428Y-118652380D01*
X180466666Y-118652380D01*
X180609523Y-118700000D01*
X180657142Y-118747619D01*
X180990476Y-118652380D02*
X181609523Y-118652380D01*
X181276190Y-119033333D01*
X181419047Y-119033333D01*
X181514285Y-119080952D01*
X181561904Y-119128571D01*
X181609523Y-119223809D01*
X181609523Y-119461904D01*
X181561904Y-119557142D01*
X181514285Y-119604761D01*
X181419047Y-119652380D01*
X181133333Y-119652380D01*
X181038095Y-119604761D01*
X180990476Y-119557142D01*
X181990476Y-118747619D02*
X182038095Y-118700000D01*
X182133333Y-118652380D01*
X182371428Y-118652380D01*
X182466666Y-118700000D01*
X182514285Y-118747619D01*
X182561904Y-118842857D01*
X182561904Y-118938095D01*
X182514285Y-119080952D01*
X181942857Y-119652380D01*
X182561904Y-119652380D01*
X92333333Y-100357142D02*
X92285714Y-100404761D01*
X92142857Y-100452380D01*
X92047619Y-100452380D01*
X91904761Y-100404761D01*
X91809523Y-100309523D01*
X91761904Y-100214285D01*
X91714285Y-100023809D01*
X91714285Y-99880952D01*
X91761904Y-99690476D01*
X91809523Y-99595238D01*
X91904761Y-99500000D01*
X92047619Y-99452380D01*
X92142857Y-99452380D01*
X92285714Y-99500000D01*
X92333333Y-99547619D01*
X92809523Y-100452380D02*
X93000000Y-100452380D01*
X93095238Y-100404761D01*
X93142857Y-100357142D01*
X93238095Y-100214285D01*
X93285714Y-100023809D01*
X93285714Y-99642857D01*
X93238095Y-99547619D01*
X93190476Y-99500000D01*
X93095238Y-99452380D01*
X92904761Y-99452380D01*
X92809523Y-99500000D01*
X92761904Y-99547619D01*
X92714285Y-99642857D01*
X92714285Y-99880952D01*
X92761904Y-99976190D01*
X92809523Y-100023809D01*
X92904761Y-100071428D01*
X93095238Y-100071428D01*
X93190476Y-100023809D01*
X93238095Y-99976190D01*
X93285714Y-99880952D01*
X121357142Y-117857142D02*
X121309523Y-117904761D01*
X121166666Y-117952380D01*
X121071428Y-117952380D01*
X120928571Y-117904761D01*
X120833333Y-117809523D01*
X120785714Y-117714285D01*
X120738095Y-117523809D01*
X120738095Y-117380952D01*
X120785714Y-117190476D01*
X120833333Y-117095238D01*
X120928571Y-117000000D01*
X121071428Y-116952380D01*
X121166666Y-116952380D01*
X121309523Y-117000000D01*
X121357142Y-117047619D01*
X121690476Y-116952380D02*
X122309523Y-116952380D01*
X121976190Y-117333333D01*
X122119047Y-117333333D01*
X122214285Y-117380952D01*
X122261904Y-117428571D01*
X122309523Y-117523809D01*
X122309523Y-117761904D01*
X122261904Y-117857142D01*
X122214285Y-117904761D01*
X122119047Y-117952380D01*
X121833333Y-117952380D01*
X121738095Y-117904761D01*
X121690476Y-117857142D01*
X123214285Y-116952380D02*
X122738095Y-116952380D01*
X122690476Y-117428571D01*
X122738095Y-117380952D01*
X122833333Y-117333333D01*
X123071428Y-117333333D01*
X123166666Y-117380952D01*
X123214285Y-117428571D01*
X123261904Y-117523809D01*
X123261904Y-117761904D01*
X123214285Y-117857142D01*
X123166666Y-117904761D01*
X123071428Y-117952380D01*
X122833333Y-117952380D01*
X122738095Y-117904761D01*
X122690476Y-117857142D01*
X180657142Y-121419642D02*
X180609523Y-121467261D01*
X180466666Y-121514880D01*
X180371428Y-121514880D01*
X180228571Y-121467261D01*
X180133333Y-121372023D01*
X180085714Y-121276785D01*
X180038095Y-121086309D01*
X180038095Y-120943452D01*
X180085714Y-120752976D01*
X180133333Y-120657738D01*
X180228571Y-120562500D01*
X180371428Y-120514880D01*
X180466666Y-120514880D01*
X180609523Y-120562500D01*
X180657142Y-120610119D01*
X180990476Y-120514880D02*
X181609523Y-120514880D01*
X181276190Y-120895833D01*
X181419047Y-120895833D01*
X181514285Y-120943452D01*
X181561904Y-120991071D01*
X181609523Y-121086309D01*
X181609523Y-121324404D01*
X181561904Y-121419642D01*
X181514285Y-121467261D01*
X181419047Y-121514880D01*
X181133333Y-121514880D01*
X181038095Y-121467261D01*
X180990476Y-121419642D01*
X182561904Y-121514880D02*
X181990476Y-121514880D01*
X182276190Y-121514880D02*
X182276190Y-120514880D01*
X182180952Y-120657738D01*
X182085714Y-120752976D01*
X181990476Y-120800595D01*
X104666666Y-122782380D02*
X104666666Y-123496666D01*
X104619047Y-123639523D01*
X104523809Y-123734761D01*
X104380952Y-123782380D01*
X104285714Y-123782380D01*
X105190476Y-123782380D02*
X105380952Y-123782380D01*
X105476190Y-123734761D01*
X105523809Y-123687142D01*
X105619047Y-123544285D01*
X105666666Y-123353809D01*
X105666666Y-122972857D01*
X105619047Y-122877619D01*
X105571428Y-122830000D01*
X105476190Y-122782380D01*
X105285714Y-122782380D01*
X105190476Y-122830000D01*
X105142857Y-122877619D01*
X105095238Y-122972857D01*
X105095238Y-123210952D01*
X105142857Y-123306190D01*
X105190476Y-123353809D01*
X105285714Y-123401428D01*
X105476190Y-123401428D01*
X105571428Y-123353809D01*
X105619047Y-123306190D01*
X105666666Y-123210952D01*
X93452380Y-110738095D02*
X92452380Y-110738095D01*
X92452380Y-110500000D01*
X92500000Y-110357142D01*
X92595238Y-110261904D01*
X92690476Y-110214285D01*
X92880952Y-110166666D01*
X93023809Y-110166666D01*
X93214285Y-110214285D01*
X93309523Y-110261904D01*
X93404761Y-110357142D01*
X93452380Y-110500000D01*
X93452380Y-110738095D01*
X93452380Y-109214285D02*
X93452380Y-109785714D01*
X93452380Y-109500000D02*
X92452380Y-109500000D01*
X92595238Y-109595238D01*
X92690476Y-109690476D01*
X92738095Y-109785714D01*
X164952380Y-131254285D02*
X163952380Y-131254285D01*
X163952380Y-131016190D01*
X164000000Y-130873333D01*
X164095238Y-130778095D01*
X164190476Y-130730476D01*
X164380952Y-130682857D01*
X164523809Y-130682857D01*
X164714285Y-130730476D01*
X164809523Y-130778095D01*
X164904761Y-130873333D01*
X164952380Y-131016190D01*
X164952380Y-131254285D01*
X164952380Y-129730476D02*
X164952380Y-130301904D01*
X164952380Y-130016190D02*
X163952380Y-130016190D01*
X164095238Y-130111428D01*
X164190476Y-130206666D01*
X164238095Y-130301904D01*
X164047619Y-129349523D02*
X164000000Y-129301904D01*
X163952380Y-129206666D01*
X163952380Y-128968571D01*
X164000000Y-128873333D01*
X164047619Y-128825714D01*
X164142857Y-128778095D01*
X164238095Y-128778095D01*
X164380952Y-128825714D01*
X164952380Y-129397142D01*
X164952380Y-128778095D01*
X111357142Y-98857142D02*
X111309523Y-98904761D01*
X111166666Y-98952380D01*
X111071428Y-98952380D01*
X110928571Y-98904761D01*
X110833333Y-98809523D01*
X110785714Y-98714285D01*
X110738095Y-98523809D01*
X110738095Y-98380952D01*
X110785714Y-98190476D01*
X110833333Y-98095238D01*
X110928571Y-98000000D01*
X111071428Y-97952380D01*
X111166666Y-97952380D01*
X111309523Y-98000000D01*
X111357142Y-98047619D01*
X112309523Y-98952380D02*
X111738095Y-98952380D01*
X112023809Y-98952380D02*
X112023809Y-97952380D01*
X111928571Y-98095238D01*
X111833333Y-98190476D01*
X111738095Y-98238095D01*
X113261904Y-98952380D02*
X112690476Y-98952380D01*
X112976190Y-98952380D02*
X112976190Y-97952380D01*
X112880952Y-98095238D01*
X112785714Y-98190476D01*
X112690476Y-98238095D01*
X98201740Y-78833333D02*
X98249359Y-78690476D01*
X98249359Y-78452380D01*
X98201740Y-78357142D01*
X98154121Y-78309523D01*
X98058883Y-78261904D01*
X97963645Y-78261904D01*
X97868407Y-78309523D01*
X97820788Y-78357142D01*
X97773169Y-78452380D01*
X97725550Y-78642857D01*
X97677931Y-78738095D01*
X97630312Y-78785714D01*
X97535074Y-78833333D01*
X97439836Y-78833333D01*
X97344598Y-78785714D01*
X97296979Y-78738095D01*
X97249359Y-78642857D01*
X97249359Y-78404761D01*
X97296979Y-78261904D01*
X97249359Y-77928571D02*
X98249359Y-77690476D01*
X97535074Y-77500000D01*
X98249359Y-77309523D01*
X97249359Y-77071428D01*
X97344598Y-76738095D02*
X97296979Y-76690476D01*
X97249359Y-76595238D01*
X97249359Y-76357142D01*
X97296979Y-76261904D01*
X97344598Y-76214285D01*
X97439836Y-76166666D01*
X97535074Y-76166666D01*
X97677931Y-76214285D01*
X98249359Y-76785714D01*
X98249359Y-76166666D01*
X189761904Y-96552380D02*
X189761904Y-97361904D01*
X189809523Y-97457142D01*
X189857142Y-97504761D01*
X189952380Y-97552380D01*
X190142857Y-97552380D01*
X190238095Y-97504761D01*
X190285714Y-97457142D01*
X190333333Y-97361904D01*
X190333333Y-96552380D01*
X191333333Y-97552380D02*
X190761904Y-97552380D01*
X191047619Y-97552380D02*
X191047619Y-96552380D01*
X190952380Y-96695238D01*
X190857142Y-96790476D01*
X190761904Y-96838095D01*
X192285714Y-97552380D02*
X191714285Y-97552380D01*
X192000000Y-97552380D02*
X192000000Y-96552380D01*
X191904761Y-96695238D01*
X191809523Y-96790476D01*
X191714285Y-96838095D01*
X121357142Y-125897142D02*
X121309523Y-125944761D01*
X121166666Y-125992380D01*
X121071428Y-125992380D01*
X120928571Y-125944761D01*
X120833333Y-125849523D01*
X120785714Y-125754285D01*
X120738095Y-125563809D01*
X120738095Y-125420952D01*
X120785714Y-125230476D01*
X120833333Y-125135238D01*
X120928571Y-125040000D01*
X121071428Y-124992380D01*
X121166666Y-124992380D01*
X121309523Y-125040000D01*
X121357142Y-125087619D01*
X121738095Y-125087619D02*
X121785714Y-125040000D01*
X121880952Y-124992380D01*
X122119047Y-124992380D01*
X122214285Y-125040000D01*
X122261904Y-125087619D01*
X122309523Y-125182857D01*
X122309523Y-125278095D01*
X122261904Y-125420952D01*
X121690476Y-125992380D01*
X122309523Y-125992380D01*
X122785714Y-125992380D02*
X122976190Y-125992380D01*
X123071428Y-125944761D01*
X123119047Y-125897142D01*
X123214285Y-125754285D01*
X123261904Y-125563809D01*
X123261904Y-125182857D01*
X123214285Y-125087619D01*
X123166666Y-125040000D01*
X123071428Y-124992380D01*
X122880952Y-124992380D01*
X122785714Y-125040000D01*
X122738095Y-125087619D01*
X122690476Y-125182857D01*
X122690476Y-125420952D01*
X122738095Y-125516190D01*
X122785714Y-125563809D01*
X122880952Y-125611428D01*
X123071428Y-125611428D01*
X123166666Y-125563809D01*
X123214285Y-125516190D01*
X123261904Y-125420952D01*
X187052380Y-117840904D02*
X187861904Y-117840904D01*
X187957142Y-117793285D01*
X188004761Y-117745666D01*
X188052380Y-117650428D01*
X188052380Y-117459952D01*
X188004761Y-117364714D01*
X187957142Y-117317095D01*
X187861904Y-117269476D01*
X187052380Y-117269476D01*
X187385714Y-116364714D02*
X188052380Y-116364714D01*
X187004761Y-116602809D02*
X187719047Y-116840904D01*
X187719047Y-116221857D01*
X104666666Y-130782380D02*
X104666666Y-131496666D01*
X104619047Y-131639523D01*
X104523809Y-131734761D01*
X104380952Y-131782380D01*
X104285714Y-131782380D01*
X105047619Y-130782380D02*
X105714285Y-130782380D01*
X105285714Y-131782380D01*
X89247619Y-113766666D02*
X88533333Y-113766666D01*
X88390476Y-113719047D01*
X88295238Y-113623809D01*
X88247619Y-113480952D01*
X88247619Y-113385714D01*
X89247619Y-114147619D02*
X89247619Y-114766666D01*
X88866666Y-114433333D01*
X88866666Y-114576190D01*
X88819047Y-114671428D01*
X88771428Y-114719047D01*
X88676190Y-114766666D01*
X88438095Y-114766666D01*
X88342857Y-114719047D01*
X88295238Y-114671428D01*
X88247619Y-114576190D01*
X88247619Y-114290476D01*
X88295238Y-114195238D01*
X88342857Y-114147619D01*
X186357142Y-80357142D02*
X186309523Y-80404761D01*
X186166666Y-80452380D01*
X186071428Y-80452380D01*
X185928571Y-80404761D01*
X185833333Y-80309523D01*
X185785714Y-80214285D01*
X185738095Y-80023809D01*
X185738095Y-79880952D01*
X185785714Y-79690476D01*
X185833333Y-79595238D01*
X185928571Y-79500000D01*
X186071428Y-79452380D01*
X186166666Y-79452380D01*
X186309523Y-79500000D01*
X186357142Y-79547619D01*
X186690476Y-79452380D02*
X187309523Y-79452380D01*
X186976190Y-79833333D01*
X187119047Y-79833333D01*
X187214285Y-79880952D01*
X187261904Y-79928571D01*
X187309523Y-80023809D01*
X187309523Y-80261904D01*
X187261904Y-80357142D01*
X187214285Y-80404761D01*
X187119047Y-80452380D01*
X186833333Y-80452380D01*
X186738095Y-80404761D01*
X186690476Y-80357142D01*
X187880952Y-79880952D02*
X187785714Y-79833333D01*
X187738095Y-79785714D01*
X187690476Y-79690476D01*
X187690476Y-79642857D01*
X187738095Y-79547619D01*
X187785714Y-79500000D01*
X187880952Y-79452380D01*
X188071428Y-79452380D01*
X188166666Y-79500000D01*
X188214285Y-79547619D01*
X188261904Y-79642857D01*
X188261904Y-79690476D01*
X188214285Y-79785714D01*
X188166666Y-79833333D01*
X188071428Y-79880952D01*
X187880952Y-79880952D01*
X187785714Y-79928571D01*
X187738095Y-79976190D01*
X187690476Y-80071428D01*
X187690476Y-80261904D01*
X187738095Y-80357142D01*
X187785714Y-80404761D01*
X187880952Y-80452380D01*
X188071428Y-80452380D01*
X188166666Y-80404761D01*
X188214285Y-80357142D01*
X188261904Y-80261904D01*
X188261904Y-80071428D01*
X188214285Y-79976190D01*
X188166666Y-79928571D01*
X188071428Y-79880952D01*
X167452380Y-130682857D02*
X166976190Y-131016190D01*
X167452380Y-131254285D02*
X166452380Y-131254285D01*
X166452380Y-130873333D01*
X166500000Y-130778095D01*
X166547619Y-130730476D01*
X166642857Y-130682857D01*
X166785714Y-130682857D01*
X166880952Y-130730476D01*
X166928571Y-130778095D01*
X166976190Y-130873333D01*
X166976190Y-131254285D01*
X167452380Y-129730476D02*
X167452380Y-130301904D01*
X167452380Y-130016190D02*
X166452380Y-130016190D01*
X166595238Y-130111428D01*
X166690476Y-130206666D01*
X166738095Y-130301904D01*
X166452380Y-128873333D02*
X166452380Y-129063809D01*
X166500000Y-129159047D01*
X166547619Y-129206666D01*
X166690476Y-129301904D01*
X166880952Y-129349523D01*
X167261904Y-129349523D01*
X167357142Y-129301904D01*
X167404761Y-129254285D01*
X167452380Y-129159047D01*
X167452380Y-128968571D01*
X167404761Y-128873333D01*
X167357142Y-128825714D01*
X167261904Y-128778095D01*
X167023809Y-128778095D01*
X166928571Y-128825714D01*
X166880952Y-128873333D01*
X166833333Y-128968571D01*
X166833333Y-129159047D01*
X166880952Y-129254285D01*
X166928571Y-129301904D01*
X167023809Y-129349523D01*
X89738095Y-126752380D02*
X89738095Y-125752380D01*
X89738095Y-126228571D02*
X90309523Y-126228571D01*
X90309523Y-126752380D02*
X90309523Y-125752380D01*
X90738095Y-125847619D02*
X90785714Y-125800000D01*
X90880952Y-125752380D01*
X91119047Y-125752380D01*
X91214285Y-125800000D01*
X91261904Y-125847619D01*
X91309523Y-125942857D01*
X91309523Y-126038095D01*
X91261904Y-126180952D01*
X90690476Y-126752380D01*
X91309523Y-126752380D01*
X177904761Y-108552380D02*
X178476190Y-108552380D01*
X178190476Y-109552380D02*
X178190476Y-108552380D01*
X178809523Y-109552380D02*
X178809523Y-108552380D01*
X179190476Y-108552380D01*
X179285714Y-108600000D01*
X179333333Y-108647619D01*
X179380952Y-108742857D01*
X179380952Y-108885714D01*
X179333333Y-108980952D01*
X179285714Y-109028571D01*
X179190476Y-109076190D01*
X178809523Y-109076190D01*
X179571428Y-109647619D02*
X180333333Y-109647619D01*
X181095238Y-108600000D02*
X181000000Y-108552380D01*
X180857142Y-108552380D01*
X180714285Y-108600000D01*
X180619047Y-108695238D01*
X180571428Y-108790476D01*
X180523809Y-108980952D01*
X180523809Y-109123809D01*
X180571428Y-109314285D01*
X180619047Y-109409523D01*
X180714285Y-109504761D01*
X180857142Y-109552380D01*
X180952380Y-109552380D01*
X181095238Y-109504761D01*
X181142857Y-109457142D01*
X181142857Y-109123809D01*
X180952380Y-109123809D01*
X181571428Y-109552380D02*
X181571428Y-108552380D01*
X182142857Y-109552380D01*
X182142857Y-108552380D01*
X182619047Y-109552380D02*
X182619047Y-108552380D01*
X182857142Y-108552380D01*
X183000000Y-108600000D01*
X183095238Y-108695238D01*
X183142857Y-108790476D01*
X183190476Y-108980952D01*
X183190476Y-109123809D01*
X183142857Y-109314285D01*
X183095238Y-109409523D01*
X183000000Y-109504761D01*
X182857142Y-109552380D01*
X182619047Y-109552380D01*
X183571428Y-109266666D02*
X184047619Y-109266666D01*
X183476190Y-109552380D02*
X183809523Y-108552380D01*
X184142857Y-109552380D01*
X185000000Y-109552380D02*
X184428571Y-109552380D01*
X184714285Y-109552380D02*
X184714285Y-108552380D01*
X184619047Y-108695238D01*
X184523809Y-108790476D01*
X184428571Y-108838095D01*
X203738095Y-71652380D02*
X203738095Y-70652380D01*
X203738095Y-71128571D02*
X204309523Y-71128571D01*
X204309523Y-71652380D02*
X204309523Y-70652380D01*
X205309523Y-71652380D02*
X204738095Y-71652380D01*
X205023809Y-71652380D02*
X205023809Y-70652380D01*
X204928571Y-70795238D01*
X204833333Y-70890476D01*
X204738095Y-70938095D01*
X186357142Y-89952380D02*
X186023809Y-89476190D01*
X185785714Y-89952380D02*
X185785714Y-88952380D01*
X186166666Y-88952380D01*
X186261904Y-89000000D01*
X186309523Y-89047619D01*
X186357142Y-89142857D01*
X186357142Y-89285714D01*
X186309523Y-89380952D01*
X186261904Y-89428571D01*
X186166666Y-89476190D01*
X185785714Y-89476190D01*
X186690476Y-88952380D02*
X187309523Y-88952380D01*
X186976190Y-89333333D01*
X187119047Y-89333333D01*
X187214285Y-89380952D01*
X187261904Y-89428571D01*
X187309523Y-89523809D01*
X187309523Y-89761904D01*
X187261904Y-89857142D01*
X187214285Y-89904761D01*
X187119047Y-89952380D01*
X186833333Y-89952380D01*
X186738095Y-89904761D01*
X186690476Y-89857142D01*
X187785714Y-89952380D02*
X187976190Y-89952380D01*
X188071428Y-89904761D01*
X188119047Y-89857142D01*
X188214285Y-89714285D01*
X188261904Y-89523809D01*
X188261904Y-89142857D01*
X188214285Y-89047619D01*
X188166666Y-89000000D01*
X188071428Y-88952380D01*
X187880952Y-88952380D01*
X187785714Y-89000000D01*
X187738095Y-89047619D01*
X187690476Y-89142857D01*
X187690476Y-89380952D01*
X187738095Y-89476190D01*
X187785714Y-89523809D01*
X187880952Y-89571428D01*
X188071428Y-89571428D01*
X188166666Y-89523809D01*
X188214285Y-89476190D01*
X188261904Y-89380952D01*
X189638095Y-78252380D02*
X189638095Y-79061904D01*
X189685714Y-79157142D01*
X189733333Y-79204761D01*
X189828571Y-79252380D01*
X190019047Y-79252380D01*
X190114285Y-79204761D01*
X190161904Y-79157142D01*
X190209523Y-79061904D01*
X190209523Y-78252380D01*
X190828571Y-78680952D02*
X190733333Y-78633333D01*
X190685714Y-78585714D01*
X190638095Y-78490476D01*
X190638095Y-78442857D01*
X190685714Y-78347619D01*
X190733333Y-78300000D01*
X190828571Y-78252380D01*
X191019047Y-78252380D01*
X191114285Y-78300000D01*
X191161904Y-78347619D01*
X191209523Y-78442857D01*
X191209523Y-78490476D01*
X191161904Y-78585714D01*
X191114285Y-78633333D01*
X191019047Y-78680952D01*
X190828571Y-78680952D01*
X190733333Y-78728571D01*
X190685714Y-78776190D01*
X190638095Y-78871428D01*
X190638095Y-79061904D01*
X190685714Y-79157142D01*
X190733333Y-79204761D01*
X190828571Y-79252380D01*
X191019047Y-79252380D01*
X191114285Y-79204761D01*
X191161904Y-79157142D01*
X191209523Y-79061904D01*
X191209523Y-78871428D01*
X191161904Y-78776190D01*
X191114285Y-78728571D01*
X191019047Y-78680952D01*
X161719642Y-122287142D02*
X161672023Y-122334761D01*
X161529166Y-122382380D01*
X161433928Y-122382380D01*
X161291071Y-122334761D01*
X161195833Y-122239523D01*
X161148214Y-122144285D01*
X161100595Y-121953809D01*
X161100595Y-121810952D01*
X161148214Y-121620476D01*
X161195833Y-121525238D01*
X161291071Y-121430000D01*
X161433928Y-121382380D01*
X161529166Y-121382380D01*
X161672023Y-121430000D01*
X161719642Y-121477619D01*
X162100595Y-121477619D02*
X162148214Y-121430000D01*
X162243452Y-121382380D01*
X162481547Y-121382380D01*
X162576785Y-121430000D01*
X162624404Y-121477619D01*
X162672023Y-121572857D01*
X162672023Y-121668095D01*
X162624404Y-121810952D01*
X162052976Y-122382380D01*
X162672023Y-122382380D01*
X163005357Y-121382380D02*
X163672023Y-121382380D01*
X163243452Y-122382380D01*
X108857142Y-128452380D02*
X108523809Y-127976190D01*
X108285714Y-128452380D02*
X108285714Y-127452380D01*
X108666666Y-127452380D01*
X108761904Y-127500000D01*
X108809523Y-127547619D01*
X108857142Y-127642857D01*
X108857142Y-127785714D01*
X108809523Y-127880952D01*
X108761904Y-127928571D01*
X108666666Y-127976190D01*
X108285714Y-127976190D01*
X109238095Y-127547619D02*
X109285714Y-127500000D01*
X109380952Y-127452380D01*
X109619047Y-127452380D01*
X109714285Y-127500000D01*
X109761904Y-127547619D01*
X109809523Y-127642857D01*
X109809523Y-127738095D01*
X109761904Y-127880952D01*
X109190476Y-128452380D01*
X109809523Y-128452380D01*
X110666666Y-127785714D02*
X110666666Y-128452380D01*
X110428571Y-127404761D02*
X110190476Y-128119047D01*
X110809523Y-128119047D01*
X108857142Y-130952380D02*
X108523809Y-130476190D01*
X108285714Y-130952380D02*
X108285714Y-129952380D01*
X108666666Y-129952380D01*
X108761904Y-130000000D01*
X108809523Y-130047619D01*
X108857142Y-130142857D01*
X108857142Y-130285714D01*
X108809523Y-130380952D01*
X108761904Y-130428571D01*
X108666666Y-130476190D01*
X108285714Y-130476190D01*
X109238095Y-130047619D02*
X109285714Y-130000000D01*
X109380952Y-129952380D01*
X109619047Y-129952380D01*
X109714285Y-130000000D01*
X109761904Y-130047619D01*
X109809523Y-130142857D01*
X109809523Y-130238095D01*
X109761904Y-130380952D01*
X109190476Y-130952380D01*
X109809523Y-130952380D01*
X110190476Y-130047619D02*
X110238095Y-130000000D01*
X110333333Y-129952380D01*
X110571428Y-129952380D01*
X110666666Y-130000000D01*
X110714285Y-130047619D01*
X110761904Y-130142857D01*
X110761904Y-130238095D01*
X110714285Y-130380952D01*
X110142857Y-130952380D01*
X110761904Y-130952380D01*
X96357142Y-122952380D02*
X96023809Y-122476190D01*
X95785714Y-122952380D02*
X95785714Y-121952380D01*
X96166666Y-121952380D01*
X96261904Y-122000000D01*
X96309523Y-122047619D01*
X96357142Y-122142857D01*
X96357142Y-122285714D01*
X96309523Y-122380952D01*
X96261904Y-122428571D01*
X96166666Y-122476190D01*
X95785714Y-122476190D01*
X96738095Y-122047619D02*
X96785714Y-122000000D01*
X96880952Y-121952380D01*
X97119047Y-121952380D01*
X97214285Y-122000000D01*
X97261904Y-122047619D01*
X97309523Y-122142857D01*
X97309523Y-122238095D01*
X97261904Y-122380952D01*
X96690476Y-122952380D01*
X97309523Y-122952380D01*
X98166666Y-121952380D02*
X97976190Y-121952380D01*
X97880952Y-122000000D01*
X97833333Y-122047619D01*
X97738095Y-122190476D01*
X97690476Y-122380952D01*
X97690476Y-122761904D01*
X97738095Y-122857142D01*
X97785714Y-122904761D01*
X97880952Y-122952380D01*
X98071428Y-122952380D01*
X98166666Y-122904761D01*
X98214285Y-122857142D01*
X98261904Y-122761904D01*
X98261904Y-122523809D01*
X98214285Y-122428571D01*
X98166666Y-122380952D01*
X98071428Y-122333333D01*
X97880952Y-122333333D01*
X97785714Y-122380952D01*
X97738095Y-122428571D01*
X97690476Y-122523809D01*
X110833333Y-101357142D02*
X110785714Y-101404761D01*
X110642857Y-101452380D01*
X110547619Y-101452380D01*
X110404761Y-101404761D01*
X110309523Y-101309523D01*
X110261904Y-101214285D01*
X110214285Y-101023809D01*
X110214285Y-100880952D01*
X110261904Y-100690476D01*
X110309523Y-100595238D01*
X110404761Y-100500000D01*
X110547619Y-100452380D01*
X110642857Y-100452380D01*
X110785714Y-100500000D01*
X110833333Y-100547619D01*
X111404761Y-100880952D02*
X111309523Y-100833333D01*
X111261904Y-100785714D01*
X111214285Y-100690476D01*
X111214285Y-100642857D01*
X111261904Y-100547619D01*
X111309523Y-100500000D01*
X111404761Y-100452380D01*
X111595238Y-100452380D01*
X111690476Y-100500000D01*
X111738095Y-100547619D01*
X111785714Y-100642857D01*
X111785714Y-100690476D01*
X111738095Y-100785714D01*
X111690476Y-100833333D01*
X111595238Y-100880952D01*
X111404761Y-100880952D01*
X111309523Y-100928571D01*
X111261904Y-100976190D01*
X111214285Y-101071428D01*
X111214285Y-101261904D01*
X111261904Y-101357142D01*
X111309523Y-101404761D01*
X111404761Y-101452380D01*
X111595238Y-101452380D01*
X111690476Y-101404761D01*
X111738095Y-101357142D01*
X111785714Y-101261904D01*
X111785714Y-101071428D01*
X111738095Y-100976190D01*
X111690476Y-100928571D01*
X111595238Y-100880952D01*
X103427142Y-92580357D02*
X103474761Y-92627976D01*
X103522380Y-92770833D01*
X103522380Y-92866071D01*
X103474761Y-93008928D01*
X103379523Y-93104166D01*
X103284285Y-93151785D01*
X103093809Y-93199404D01*
X102950952Y-93199404D01*
X102760476Y-93151785D01*
X102665238Y-93104166D01*
X102570000Y-93008928D01*
X102522380Y-92866071D01*
X102522380Y-92770833D01*
X102570000Y-92627976D01*
X102617619Y-92580357D01*
X103522380Y-91627976D02*
X103522380Y-92199404D01*
X103522380Y-91913690D02*
X102522380Y-91913690D01*
X102665238Y-92008928D01*
X102760476Y-92104166D01*
X102808095Y-92199404D01*
X102522380Y-90770833D02*
X102522380Y-90961309D01*
X102570000Y-91056547D01*
X102617619Y-91104166D01*
X102760476Y-91199404D01*
X102950952Y-91247023D01*
X103331904Y-91247023D01*
X103427142Y-91199404D01*
X103474761Y-91151785D01*
X103522380Y-91056547D01*
X103522380Y-90866071D01*
X103474761Y-90770833D01*
X103427142Y-90723214D01*
X103331904Y-90675595D01*
X103093809Y-90675595D01*
X102998571Y-90723214D01*
X102950952Y-90770833D01*
X102903333Y-90866071D01*
X102903333Y-91056547D01*
X102950952Y-91151785D01*
X102998571Y-91199404D01*
X103093809Y-91247023D01*
X175452380Y-131142857D02*
X174976190Y-131476190D01*
X175452380Y-131714285D02*
X174452380Y-131714285D01*
X174452380Y-131333333D01*
X174500000Y-131238095D01*
X174547619Y-131190476D01*
X174642857Y-131142857D01*
X174785714Y-131142857D01*
X174880952Y-131190476D01*
X174928571Y-131238095D01*
X174976190Y-131333333D01*
X174976190Y-131714285D01*
X174452380Y-130809523D02*
X174452380Y-130190476D01*
X174833333Y-130523809D01*
X174833333Y-130380952D01*
X174880952Y-130285714D01*
X174928571Y-130238095D01*
X175023809Y-130190476D01*
X175261904Y-130190476D01*
X175357142Y-130238095D01*
X175404761Y-130285714D01*
X175452380Y-130380952D01*
X175452380Y-130666666D01*
X175404761Y-130761904D01*
X175357142Y-130809523D01*
X174452380Y-129857142D02*
X174452380Y-129238095D01*
X174833333Y-129571428D01*
X174833333Y-129428571D01*
X174880952Y-129333333D01*
X174928571Y-129285714D01*
X175023809Y-129238095D01*
X175261904Y-129238095D01*
X175357142Y-129285714D01*
X175404761Y-129333333D01*
X175452380Y-129428571D01*
X175452380Y-129714285D01*
X175404761Y-129809523D01*
X175357142Y-129857142D01*
X132033333Y-122752380D02*
X132604761Y-122752380D01*
X132319047Y-123752380D02*
X132319047Y-122752380D01*
X132938095Y-123752380D02*
X132938095Y-122752380D01*
X133319047Y-122752380D01*
X133414285Y-122800000D01*
X133461904Y-122847619D01*
X133509523Y-122942857D01*
X133509523Y-123085714D01*
X133461904Y-123180952D01*
X133414285Y-123228571D01*
X133319047Y-123276190D01*
X132938095Y-123276190D01*
X133700000Y-123847619D02*
X134461904Y-123847619D01*
X135223809Y-122800000D02*
X135128571Y-122752380D01*
X134985714Y-122752380D01*
X134842857Y-122800000D01*
X134747619Y-122895238D01*
X134700000Y-122990476D01*
X134652380Y-123180952D01*
X134652380Y-123323809D01*
X134700000Y-123514285D01*
X134747619Y-123609523D01*
X134842857Y-123704761D01*
X134985714Y-123752380D01*
X135080952Y-123752380D01*
X135223809Y-123704761D01*
X135271428Y-123657142D01*
X135271428Y-123323809D01*
X135080952Y-123323809D01*
X135700000Y-123752380D02*
X135700000Y-122752380D01*
X136271428Y-123752380D01*
X136271428Y-122752380D01*
X136747619Y-123752380D02*
X136747619Y-122752380D01*
X136985714Y-122752380D01*
X137128571Y-122800000D01*
X137223809Y-122895238D01*
X137271428Y-122990476D01*
X137319047Y-123180952D01*
X137319047Y-123323809D01*
X137271428Y-123514285D01*
X137223809Y-123609523D01*
X137128571Y-123704761D01*
X136985714Y-123752380D01*
X136747619Y-123752380D01*
X137652380Y-122752380D02*
X138271428Y-122752380D01*
X137938095Y-123133333D01*
X138080952Y-123133333D01*
X138176190Y-123180952D01*
X138223809Y-123228571D01*
X138271428Y-123323809D01*
X138271428Y-123561904D01*
X138223809Y-123657142D01*
X138176190Y-123704761D01*
X138080952Y-123752380D01*
X137795238Y-123752380D01*
X137700000Y-123704761D01*
X137652380Y-123657142D01*
X189242857Y-122052380D02*
X189814285Y-122052380D01*
X189528571Y-123052380D02*
X189528571Y-122052380D01*
X190147619Y-123052380D02*
X190147619Y-122052380D01*
X190528571Y-122052380D01*
X190623809Y-122100000D01*
X190671428Y-122147619D01*
X190719047Y-122242857D01*
X190719047Y-122385714D01*
X190671428Y-122480952D01*
X190623809Y-122528571D01*
X190528571Y-122576190D01*
X190147619Y-122576190D01*
X190909523Y-123147619D02*
X191671428Y-123147619D01*
X191861904Y-123004761D02*
X192004761Y-123052380D01*
X192242857Y-123052380D01*
X192338095Y-123004761D01*
X192385714Y-122957142D01*
X192433333Y-122861904D01*
X192433333Y-122766666D01*
X192385714Y-122671428D01*
X192338095Y-122623809D01*
X192242857Y-122576190D01*
X192052380Y-122528571D01*
X191957142Y-122480952D01*
X191909523Y-122433333D01*
X191861904Y-122338095D01*
X191861904Y-122242857D01*
X191909523Y-122147619D01*
X191957142Y-122100000D01*
X192052380Y-122052380D01*
X192290476Y-122052380D01*
X192433333Y-122100000D01*
X192861904Y-123052380D02*
X192861904Y-122052380D01*
X193100000Y-122052380D01*
X193242857Y-122100000D01*
X193338095Y-122195238D01*
X193385714Y-122290476D01*
X193433333Y-122480952D01*
X193433333Y-122623809D01*
X193385714Y-122814285D01*
X193338095Y-122909523D01*
X193242857Y-123004761D01*
X193100000Y-123052380D01*
X192861904Y-123052380D01*
X193861904Y-123052380D02*
X193861904Y-122052380D01*
X194861904Y-123052380D02*
X194290476Y-123052380D01*
X194576190Y-123052380D02*
X194576190Y-122052380D01*
X194480952Y-122195238D01*
X194385714Y-122290476D01*
X194290476Y-122338095D01*
X96357142Y-117857142D02*
X96309523Y-117904761D01*
X96166666Y-117952380D01*
X96071428Y-117952380D01*
X95928571Y-117904761D01*
X95833333Y-117809523D01*
X95785714Y-117714285D01*
X95738095Y-117523809D01*
X95738095Y-117380952D01*
X95785714Y-117190476D01*
X95833333Y-117095238D01*
X95928571Y-117000000D01*
X96071428Y-116952380D01*
X96166666Y-116952380D01*
X96309523Y-117000000D01*
X96357142Y-117047619D01*
X96690476Y-116952380D02*
X97309523Y-116952380D01*
X96976190Y-117333333D01*
X97119047Y-117333333D01*
X97214285Y-117380952D01*
X97261904Y-117428571D01*
X97309523Y-117523809D01*
X97309523Y-117761904D01*
X97261904Y-117857142D01*
X97214285Y-117904761D01*
X97119047Y-117952380D01*
X96833333Y-117952380D01*
X96738095Y-117904761D01*
X96690476Y-117857142D01*
X97642857Y-116952380D02*
X98261904Y-116952380D01*
X97928571Y-117333333D01*
X98071428Y-117333333D01*
X98166666Y-117380952D01*
X98214285Y-117428571D01*
X98261904Y-117523809D01*
X98261904Y-117761904D01*
X98214285Y-117857142D01*
X98166666Y-117904761D01*
X98071428Y-117952380D01*
X97785714Y-117952380D01*
X97690476Y-117904761D01*
X97642857Y-117857142D01*
X89452380Y-94967857D02*
X88976190Y-95301190D01*
X89452380Y-95539285D02*
X88452380Y-95539285D01*
X88452380Y-95158333D01*
X88500000Y-95063095D01*
X88547619Y-95015476D01*
X88642857Y-94967857D01*
X88785714Y-94967857D01*
X88880952Y-95015476D01*
X88928571Y-95063095D01*
X88976190Y-95158333D01*
X88976190Y-95539285D01*
X88547619Y-94586904D02*
X88500000Y-94539285D01*
X88452380Y-94444047D01*
X88452380Y-94205952D01*
X88500000Y-94110714D01*
X88547619Y-94063095D01*
X88642857Y-94015476D01*
X88738095Y-94015476D01*
X88880952Y-94063095D01*
X89452380Y-94634523D01*
X89452380Y-94015476D01*
X88452380Y-93396428D02*
X88452380Y-93301190D01*
X88500000Y-93205952D01*
X88547619Y-93158333D01*
X88642857Y-93110714D01*
X88833333Y-93063095D01*
X89071428Y-93063095D01*
X89261904Y-93110714D01*
X89357142Y-93158333D01*
X89404761Y-93205952D01*
X89452380Y-93301190D01*
X89452380Y-93396428D01*
X89404761Y-93491666D01*
X89357142Y-93539285D01*
X89261904Y-93586904D01*
X89071428Y-93634523D01*
X88833333Y-93634523D01*
X88642857Y-93586904D01*
X88547619Y-93539285D01*
X88500000Y-93491666D01*
X88452380Y-93396428D01*
X186262333Y-113006142D02*
X186214714Y-113053761D01*
X186071857Y-113101380D01*
X185976619Y-113101380D01*
X185833761Y-113053761D01*
X185738523Y-112958523D01*
X185690904Y-112863285D01*
X185643285Y-112672809D01*
X185643285Y-112529952D01*
X185690904Y-112339476D01*
X185738523Y-112244238D01*
X185833761Y-112149000D01*
X185976619Y-112101380D01*
X186071857Y-112101380D01*
X186214714Y-112149000D01*
X186262333Y-112196619D01*
X186595666Y-112101380D02*
X187214714Y-112101380D01*
X186881380Y-112482333D01*
X187024238Y-112482333D01*
X187119476Y-112529952D01*
X187167095Y-112577571D01*
X187214714Y-112672809D01*
X187214714Y-112910904D01*
X187167095Y-113006142D01*
X187119476Y-113053761D01*
X187024238Y-113101380D01*
X186738523Y-113101380D01*
X186643285Y-113053761D01*
X186595666Y-113006142D01*
X95857142Y-95857142D02*
X95809523Y-95904761D01*
X95666666Y-95952380D01*
X95571428Y-95952380D01*
X95428571Y-95904761D01*
X95333333Y-95809523D01*
X95285714Y-95714285D01*
X95238095Y-95523809D01*
X95238095Y-95380952D01*
X95285714Y-95190476D01*
X95333333Y-95095238D01*
X95428571Y-95000000D01*
X95571428Y-94952380D01*
X95666666Y-94952380D01*
X95809523Y-95000000D01*
X95857142Y-95047619D01*
X96238095Y-95047619D02*
X96285714Y-95000000D01*
X96380952Y-94952380D01*
X96619047Y-94952380D01*
X96714285Y-95000000D01*
X96761904Y-95047619D01*
X96809523Y-95142857D01*
X96809523Y-95238095D01*
X96761904Y-95380952D01*
X96190476Y-95952380D01*
X96809523Y-95952380D01*
X97761904Y-95952380D02*
X97190476Y-95952380D01*
X97476190Y-95952380D02*
X97476190Y-94952380D01*
X97380952Y-95095238D01*
X97285714Y-95190476D01*
X97190476Y-95238095D01*
X190357142Y-85857142D02*
X190309523Y-85904761D01*
X190166666Y-85952380D01*
X190071428Y-85952380D01*
X189928571Y-85904761D01*
X189833333Y-85809523D01*
X189785714Y-85714285D01*
X189738095Y-85523809D01*
X189738095Y-85380952D01*
X189785714Y-85190476D01*
X189833333Y-85095238D01*
X189928571Y-85000000D01*
X190071428Y-84952380D01*
X190166666Y-84952380D01*
X190309523Y-85000000D01*
X190357142Y-85047619D01*
X190690476Y-84952380D02*
X191309523Y-84952380D01*
X190976190Y-85333333D01*
X191119047Y-85333333D01*
X191214285Y-85380952D01*
X191261904Y-85428571D01*
X191309523Y-85523809D01*
X191309523Y-85761904D01*
X191261904Y-85857142D01*
X191214285Y-85904761D01*
X191119047Y-85952380D01*
X190833333Y-85952380D01*
X190738095Y-85904761D01*
X190690476Y-85857142D01*
X191642857Y-84952380D02*
X192309523Y-84952380D01*
X191880952Y-85952380D01*
X143952380Y-123561904D02*
X144761904Y-123561904D01*
X144857142Y-123514285D01*
X144904761Y-123466666D01*
X144952380Y-123371428D01*
X144952380Y-123180952D01*
X144904761Y-123085714D01*
X144857142Y-123038095D01*
X144761904Y-122990476D01*
X143952380Y-122990476D01*
X144952380Y-121990476D02*
X144952380Y-122561904D01*
X144952380Y-122276190D02*
X143952380Y-122276190D01*
X144095238Y-122371428D01*
X144190476Y-122466666D01*
X144238095Y-122561904D01*
X188286142Y-122745666D02*
X188333761Y-122793285D01*
X188381380Y-122936142D01*
X188381380Y-123031380D01*
X188333761Y-123174238D01*
X188238523Y-123269476D01*
X188143285Y-123317095D01*
X187952809Y-123364714D01*
X187809952Y-123364714D01*
X187619476Y-123317095D01*
X187524238Y-123269476D01*
X187429000Y-123174238D01*
X187381380Y-123031380D01*
X187381380Y-122936142D01*
X187429000Y-122793285D01*
X187476619Y-122745666D01*
X187714714Y-121888523D02*
X188381380Y-121888523D01*
X187333761Y-122126619D02*
X188048047Y-122364714D01*
X188048047Y-121745666D01*
X194157142Y-97557142D02*
X194109523Y-97604761D01*
X193966666Y-97652380D01*
X193871428Y-97652380D01*
X193728571Y-97604761D01*
X193633333Y-97509523D01*
X193585714Y-97414285D01*
X193538095Y-97223809D01*
X193538095Y-97080952D01*
X193585714Y-96890476D01*
X193633333Y-96795238D01*
X193728571Y-96700000D01*
X193871428Y-96652380D01*
X193966666Y-96652380D01*
X194109523Y-96700000D01*
X194157142Y-96747619D01*
X195014285Y-96985714D02*
X195014285Y-97652380D01*
X194776190Y-96604761D02*
X194538095Y-97319047D01*
X195157142Y-97319047D01*
X195442857Y-96652380D02*
X196061904Y-96652380D01*
X195728571Y-97033333D01*
X195871428Y-97033333D01*
X195966666Y-97080952D01*
X196014285Y-97128571D01*
X196061904Y-97223809D01*
X196061904Y-97461904D01*
X196014285Y-97557142D01*
X195966666Y-97604761D01*
X195871428Y-97652380D01*
X195585714Y-97652380D01*
X195490476Y-97604761D01*
X195442857Y-97557142D01*
X165219642Y-115857142D02*
X165172023Y-115904761D01*
X165029166Y-115952380D01*
X164933928Y-115952380D01*
X164791071Y-115904761D01*
X164695833Y-115809523D01*
X164648214Y-115714285D01*
X164600595Y-115523809D01*
X164600595Y-115380952D01*
X164648214Y-115190476D01*
X164695833Y-115095238D01*
X164791071Y-115000000D01*
X164933928Y-114952380D01*
X165029166Y-114952380D01*
X165172023Y-115000000D01*
X165219642Y-115047619D01*
X165600595Y-115047619D02*
X165648214Y-115000000D01*
X165743452Y-114952380D01*
X165981547Y-114952380D01*
X166076785Y-115000000D01*
X166124404Y-115047619D01*
X166172023Y-115142857D01*
X166172023Y-115238095D01*
X166124404Y-115380952D01*
X165552976Y-115952380D01*
X166172023Y-115952380D01*
X167076785Y-114952380D02*
X166600595Y-114952380D01*
X166552976Y-115428571D01*
X166600595Y-115380952D01*
X166695833Y-115333333D01*
X166933928Y-115333333D01*
X167029166Y-115380952D01*
X167076785Y-115428571D01*
X167124404Y-115523809D01*
X167124404Y-115761904D01*
X167076785Y-115857142D01*
X167029166Y-115904761D01*
X166933928Y-115952380D01*
X166695833Y-115952380D01*
X166600595Y-115904761D01*
X166552976Y-115857142D01*
X99857142Y-107357142D02*
X99809523Y-107404761D01*
X99666666Y-107452380D01*
X99571428Y-107452380D01*
X99428571Y-107404761D01*
X99333333Y-107309523D01*
X99285714Y-107214285D01*
X99238095Y-107023809D01*
X99238095Y-106880952D01*
X99285714Y-106690476D01*
X99333333Y-106595238D01*
X99428571Y-106500000D01*
X99571428Y-106452380D01*
X99666666Y-106452380D01*
X99809523Y-106500000D01*
X99857142Y-106547619D01*
X100809523Y-107452380D02*
X100238095Y-107452380D01*
X100523809Y-107452380D02*
X100523809Y-106452380D01*
X100428571Y-106595238D01*
X100333333Y-106690476D01*
X100238095Y-106738095D01*
X101142857Y-106452380D02*
X101761904Y-106452380D01*
X101428571Y-106833333D01*
X101571428Y-106833333D01*
X101666666Y-106880952D01*
X101714285Y-106928571D01*
X101761904Y-107023809D01*
X101761904Y-107261904D01*
X101714285Y-107357142D01*
X101666666Y-107404761D01*
X101571428Y-107452380D01*
X101285714Y-107452380D01*
X101190476Y-107404761D01*
X101142857Y-107357142D01*
X141833333Y-117427142D02*
X141785714Y-117474761D01*
X141642857Y-117522380D01*
X141547619Y-117522380D01*
X141404761Y-117474761D01*
X141309523Y-117379523D01*
X141261904Y-117284285D01*
X141214285Y-117093809D01*
X141214285Y-116950952D01*
X141261904Y-116760476D01*
X141309523Y-116665238D01*
X141404761Y-116570000D01*
X141547619Y-116522380D01*
X141642857Y-116522380D01*
X141785714Y-116570000D01*
X141833333Y-116617619D01*
X142785714Y-117522380D02*
X142214285Y-117522380D01*
X142500000Y-117522380D02*
X142500000Y-116522380D01*
X142404761Y-116665238D01*
X142309523Y-116760476D01*
X142214285Y-116808095D01*
X121357142Y-130992380D02*
X121023809Y-130516190D01*
X120785714Y-130992380D02*
X120785714Y-129992380D01*
X121166666Y-129992380D01*
X121261904Y-130040000D01*
X121309523Y-130087619D01*
X121357142Y-130182857D01*
X121357142Y-130325714D01*
X121309523Y-130420952D01*
X121261904Y-130468571D01*
X121166666Y-130516190D01*
X120785714Y-130516190D01*
X121738095Y-130087619D02*
X121785714Y-130040000D01*
X121880952Y-129992380D01*
X122119047Y-129992380D01*
X122214285Y-130040000D01*
X122261904Y-130087619D01*
X122309523Y-130182857D01*
X122309523Y-130278095D01*
X122261904Y-130420952D01*
X121690476Y-130992380D01*
X122309523Y-130992380D01*
X122642857Y-129992380D02*
X123261904Y-129992380D01*
X122928571Y-130373333D01*
X123071428Y-130373333D01*
X123166666Y-130420952D01*
X123214285Y-130468571D01*
X123261904Y-130563809D01*
X123261904Y-130801904D01*
X123214285Y-130897142D01*
X123166666Y-130944761D01*
X123071428Y-130992380D01*
X122785714Y-130992380D01*
X122690476Y-130944761D01*
X122642857Y-130897142D01*
X121357142Y-128452380D02*
X121023809Y-127976190D01*
X120785714Y-128452380D02*
X120785714Y-127452380D01*
X121166666Y-127452380D01*
X121261904Y-127500000D01*
X121309523Y-127547619D01*
X121357142Y-127642857D01*
X121357142Y-127785714D01*
X121309523Y-127880952D01*
X121261904Y-127928571D01*
X121166666Y-127976190D01*
X120785714Y-127976190D01*
X121738095Y-127547619D02*
X121785714Y-127500000D01*
X121880952Y-127452380D01*
X122119047Y-127452380D01*
X122214285Y-127500000D01*
X122261904Y-127547619D01*
X122309523Y-127642857D01*
X122309523Y-127738095D01*
X122261904Y-127880952D01*
X121690476Y-128452380D01*
X122309523Y-128452380D01*
X123214285Y-127452380D02*
X122738095Y-127452380D01*
X122690476Y-127928571D01*
X122738095Y-127880952D01*
X122833333Y-127833333D01*
X123071428Y-127833333D01*
X123166666Y-127880952D01*
X123214285Y-127928571D01*
X123261904Y-128023809D01*
X123261904Y-128261904D01*
X123214285Y-128357142D01*
X123166666Y-128404761D01*
X123071428Y-128452380D01*
X122833333Y-128452380D01*
X122738095Y-128404761D01*
X122690476Y-128357142D01*
X100357142Y-86952380D02*
X100023809Y-86476190D01*
X99785714Y-86952380D02*
X99785714Y-85952380D01*
X100166666Y-85952380D01*
X100261904Y-86000000D01*
X100309523Y-86047619D01*
X100357142Y-86142857D01*
X100357142Y-86285714D01*
X100309523Y-86380952D01*
X100261904Y-86428571D01*
X100166666Y-86476190D01*
X99785714Y-86476190D01*
X101309523Y-86952380D02*
X100738095Y-86952380D01*
X101023809Y-86952380D02*
X101023809Y-85952380D01*
X100928571Y-86095238D01*
X100833333Y-86190476D01*
X100738095Y-86238095D01*
X102166666Y-86285714D02*
X102166666Y-86952380D01*
X101928571Y-85904761D02*
X101690476Y-86619047D01*
X102309523Y-86619047D01*
X193482142Y-76857142D02*
X193434523Y-76904761D01*
X193291666Y-76952380D01*
X193196428Y-76952380D01*
X193053571Y-76904761D01*
X192958333Y-76809523D01*
X192910714Y-76714285D01*
X192863095Y-76523809D01*
X192863095Y-76380952D01*
X192910714Y-76190476D01*
X192958333Y-76095238D01*
X193053571Y-76000000D01*
X193196428Y-75952380D01*
X193291666Y-75952380D01*
X193434523Y-76000000D01*
X193482142Y-76047619D01*
X193815476Y-75952380D02*
X194434523Y-75952380D01*
X194101190Y-76333333D01*
X194244047Y-76333333D01*
X194339285Y-76380952D01*
X194386904Y-76428571D01*
X194434523Y-76523809D01*
X194434523Y-76761904D01*
X194386904Y-76857142D01*
X194339285Y-76904761D01*
X194244047Y-76952380D01*
X193958333Y-76952380D01*
X193863095Y-76904761D01*
X193815476Y-76857142D01*
X194910714Y-76952380D02*
X195101190Y-76952380D01*
X195196428Y-76904761D01*
X195244047Y-76857142D01*
X195339285Y-76714285D01*
X195386904Y-76523809D01*
X195386904Y-76142857D01*
X195339285Y-76047619D01*
X195291666Y-76000000D01*
X195196428Y-75952380D01*
X195005952Y-75952380D01*
X194910714Y-76000000D01*
X194863095Y-76047619D01*
X194815476Y-76142857D01*
X194815476Y-76380952D01*
X194863095Y-76476190D01*
X194910714Y-76523809D01*
X195005952Y-76571428D01*
X195196428Y-76571428D01*
X195291666Y-76523809D01*
X195339285Y-76476190D01*
X195386904Y-76380952D01*
X96857142Y-86952380D02*
X96523809Y-86476190D01*
X96285714Y-86952380D02*
X96285714Y-85952380D01*
X96666666Y-85952380D01*
X96761904Y-86000000D01*
X96809523Y-86047619D01*
X96857142Y-86142857D01*
X96857142Y-86285714D01*
X96809523Y-86380952D01*
X96761904Y-86428571D01*
X96666666Y-86476190D01*
X96285714Y-86476190D01*
X97809523Y-86952380D02*
X97238095Y-86952380D01*
X97523809Y-86952380D02*
X97523809Y-85952380D01*
X97428571Y-86095238D01*
X97333333Y-86190476D01*
X97238095Y-86238095D01*
X98714285Y-85952380D02*
X98238095Y-85952380D01*
X98190476Y-86428571D01*
X98238095Y-86380952D01*
X98333333Y-86333333D01*
X98571428Y-86333333D01*
X98666666Y-86380952D01*
X98714285Y-86428571D01*
X98761904Y-86523809D01*
X98761904Y-86761904D01*
X98714285Y-86857142D01*
X98666666Y-86904761D01*
X98571428Y-86952380D01*
X98333333Y-86952380D01*
X98238095Y-86904761D01*
X98190476Y-86857142D01*
X203738095Y-126752380D02*
X203738095Y-125752380D01*
X203738095Y-126228571D02*
X204309523Y-126228571D01*
X204309523Y-126752380D02*
X204309523Y-125752380D01*
X204690476Y-125752380D02*
X205309523Y-125752380D01*
X204976190Y-126133333D01*
X205119047Y-126133333D01*
X205214285Y-126180952D01*
X205261904Y-126228571D01*
X205309523Y-126323809D01*
X205309523Y-126561904D01*
X205261904Y-126657142D01*
X205214285Y-126704761D01*
X205119047Y-126752380D01*
X204833333Y-126752380D01*
X204738095Y-126704761D01*
X204690476Y-126657142D01*
X151752380Y-128223809D02*
X151752380Y-127652380D01*
X152752380Y-127938095D02*
X151752380Y-127938095D01*
X152752380Y-127319047D02*
X151752380Y-127319047D01*
X151752380Y-126938095D01*
X151800000Y-126842857D01*
X151847619Y-126795238D01*
X151942857Y-126747619D01*
X152085714Y-126747619D01*
X152180952Y-126795238D01*
X152228571Y-126842857D01*
X152276190Y-126938095D01*
X152276190Y-127319047D01*
X152847619Y-126557142D02*
X152847619Y-125795238D01*
X152704761Y-125604761D02*
X152752380Y-125461904D01*
X152752380Y-125223809D01*
X152704761Y-125128571D01*
X152657142Y-125080952D01*
X152561904Y-125033333D01*
X152466666Y-125033333D01*
X152371428Y-125080952D01*
X152323809Y-125128571D01*
X152276190Y-125223809D01*
X152228571Y-125414285D01*
X152180952Y-125509523D01*
X152133333Y-125557142D01*
X152038095Y-125604761D01*
X151942857Y-125604761D01*
X151847619Y-125557142D01*
X151800000Y-125509523D01*
X151752380Y-125414285D01*
X151752380Y-125176190D01*
X151800000Y-125033333D01*
X152657142Y-124033333D02*
X152704761Y-124080952D01*
X152752380Y-124223809D01*
X152752380Y-124319047D01*
X152704761Y-124461904D01*
X152609523Y-124557142D01*
X152514285Y-124604761D01*
X152323809Y-124652380D01*
X152180952Y-124652380D01*
X151990476Y-124604761D01*
X151895238Y-124557142D01*
X151800000Y-124461904D01*
X151752380Y-124319047D01*
X151752380Y-124223809D01*
X151800000Y-124080952D01*
X151847619Y-124033333D01*
X152752380Y-123128571D02*
X152752380Y-123604761D01*
X151752380Y-123604761D01*
X152752380Y-122271428D02*
X152752380Y-122842857D01*
X152752380Y-122557142D02*
X151752380Y-122557142D01*
X151895238Y-122652380D01*
X151990476Y-122747619D01*
X152038095Y-122842857D01*
D11*
X124762742Y-120522500D02*
X125237258Y-120522500D01*
X124762742Y-119477500D02*
X125237258Y-119477500D01*
X114865580Y-87510000D02*
X114584420Y-87510000D01*
X114865580Y-86490000D02*
X114584420Y-86490000D01*
X184237258Y-90977500D02*
X183762742Y-90977500D01*
X184237258Y-92022500D02*
X183762742Y-92022500D01*
X200600000Y-125600000D02*
G75*
G03*
X200600000Y-125600000I-1200000J0D01*
G01*
X118830000Y-127730000D02*
X118830000Y-125130000D01*
X118830000Y-125130000D02*
X116170000Y-125130000D01*
X118830000Y-129000000D02*
X118830000Y-130330000D01*
X116170000Y-127730000D02*
X116170000Y-125130000D01*
X118830000Y-130330000D02*
X117500000Y-130330000D01*
X118830000Y-127730000D02*
X116170000Y-127730000D01*
X102770000Y-70330000D02*
X97630000Y-70330000D01*
X97630000Y-67670000D02*
X97630000Y-70330000D01*
X102770000Y-67670000D02*
X102770000Y-70330000D01*
X102770000Y-67670000D02*
X97630000Y-67670000D01*
X104040000Y-67670000D02*
X105370000Y-67670000D01*
X105370000Y-67670000D02*
X105370000Y-69000000D01*
X206330000Y-94318750D02*
X206330000Y-95648750D01*
X206330000Y-93048750D02*
X206330000Y-90448750D01*
X203670000Y-93048750D02*
X203670000Y-90448750D01*
X206330000Y-90448750D02*
X203670000Y-90448750D01*
X206330000Y-95648750D02*
X205000000Y-95648750D01*
X206330000Y-93048750D02*
X203670000Y-93048750D01*
X99890000Y-92078080D02*
X99890000Y-91796920D01*
X100910000Y-92078080D02*
X100910000Y-91796920D01*
X99762742Y-120522500D02*
X100237258Y-120522500D01*
X99762742Y-119477500D02*
X100237258Y-119477500D01*
X196539420Y-114010000D02*
X196820580Y-114010000D01*
X196539420Y-112990000D02*
X196820580Y-112990000D01*
X158340000Y-119737258D02*
X158340000Y-119262742D01*
X159385000Y-119737258D02*
X159385000Y-119262742D01*
X112737258Y-121977500D02*
X112262742Y-121977500D01*
X112737258Y-123022500D02*
X112262742Y-123022500D01*
X184140580Y-94010000D02*
X183859420Y-94010000D01*
X184140580Y-92990000D02*
X183859420Y-92990000D01*
X160235000Y-127840000D02*
X160235000Y-125555000D01*
X158765000Y-125555000D02*
X158765000Y-127840000D01*
X160235000Y-125555000D02*
X158765000Y-125555000D01*
X172352500Y-127075242D02*
X172352500Y-127549758D01*
X173397500Y-127075242D02*
X173397500Y-127549758D01*
X192000000Y-119900000D02*
G75*
G03*
X192000000Y-119900000I-1200000J0D01*
G01*
X196539420Y-114990000D02*
X196820580Y-114990000D01*
X196539420Y-116010000D02*
X196820580Y-116010000D01*
X99762742Y-128522500D02*
X100237258Y-128522500D01*
X99762742Y-127477500D02*
X100237258Y-127477500D01*
X131330000Y-119730000D02*
X128670000Y-119730000D01*
X131330000Y-117130000D02*
X128670000Y-117130000D01*
X131330000Y-122330000D02*
X130000000Y-122330000D01*
X131330000Y-121000000D02*
X131330000Y-122330000D01*
X128670000Y-119730000D02*
X128670000Y-117130000D01*
X131330000Y-119730000D02*
X131330000Y-117130000D01*
X137640580Y-127510000D02*
X137359420Y-127510000D01*
X137640580Y-126490000D02*
X137359420Y-126490000D01*
X106490000Y-105296920D02*
X106490000Y-105578080D01*
X107510000Y-105296920D02*
X107510000Y-105578080D01*
X113522500Y-102875242D02*
X113522500Y-103349758D01*
X112477500Y-102875242D02*
X112477500Y-103349758D01*
X194140580Y-86990000D02*
X193859420Y-86990000D01*
X194140580Y-88010000D02*
X193859420Y-88010000D01*
X157522500Y-126802742D02*
X157522500Y-127277258D01*
X156477500Y-126802742D02*
X156477500Y-127277258D01*
X116170000Y-119730000D02*
X116170000Y-117130000D01*
X118830000Y-119730000D02*
X116170000Y-119730000D01*
X118830000Y-122330000D02*
X117500000Y-122330000D01*
X118830000Y-119730000D02*
X118830000Y-117130000D01*
X118830000Y-121000000D02*
X118830000Y-122330000D01*
X118830000Y-117130000D02*
X116170000Y-117130000D01*
X121500000Y-111800000D02*
G75*
G03*
X121500000Y-111800000I-1200000J0D01*
G01*
X97975000Y-101437500D02*
X97975000Y-102462500D01*
X97975000Y-95437500D02*
X97975000Y-94412500D01*
X106025000Y-95437500D02*
X106025000Y-94125000D01*
X97975000Y-102462500D02*
X99000000Y-102462500D01*
X106025000Y-102462500D02*
X105000000Y-102462500D01*
X106025000Y-101437500D02*
X106025000Y-102462500D01*
X97975000Y-94412500D02*
X99000000Y-94412500D01*
X102917200Y-74223400D02*
X102917200Y-80776600D01*
X107082800Y-74223400D02*
X105612140Y-74223400D01*
X107082800Y-80776600D02*
X107082800Y-74223400D01*
X105612140Y-80776600D02*
X107082800Y-80776600D01*
X104387860Y-74223400D02*
X102917200Y-74223400D01*
X102917200Y-80776600D02*
X104387860Y-80776600D01*
X137470000Y-131330000D02*
X137470000Y-128670000D01*
X137470000Y-128670000D02*
X145150000Y-128670000D01*
X134870000Y-131330000D02*
X134870000Y-130000000D01*
X136200000Y-131330000D02*
X134870000Y-131330000D01*
X145150000Y-131330000D02*
X145150000Y-128670000D01*
X137470000Y-131330000D02*
X145150000Y-131330000D01*
X198262742Y-88022500D02*
X198737258Y-88022500D01*
X198262742Y-86977500D02*
X198737258Y-86977500D01*
X175300000Y-104400000D02*
G75*
G03*
X175300000Y-104400000I-1200000J0D01*
G01*
X183762742Y-82522500D02*
X184237258Y-82522500D01*
X183762742Y-81477500D02*
X184237258Y-81477500D01*
D12*
X170847300Y-118036189D02*
X170847300Y-121363811D01*
X175952700Y-121363811D02*
X175952700Y-118036189D01*
X175952700Y-119395200D02*
G75*
G03*
X175952700Y-120004800I0J-304800D01*
G01*
G36*
X171965499Y-123865600D02*
G01*
X171584499Y-123865600D01*
X171584499Y-123611600D01*
X171965499Y-123611600D01*
X171965499Y-123865600D01*
G37*
D11*
X112262742Y-120522500D02*
X112737258Y-120522500D01*
X112262742Y-119477500D02*
X112737258Y-119477500D01*
X98690000Y-115105000D02*
X111450000Y-115105000D01*
X96090000Y-115105000D02*
X96090000Y-113775000D01*
X111450000Y-115105000D02*
X111450000Y-109905000D01*
X96090000Y-109905000D02*
X111450000Y-109905000D01*
X98690000Y-115105000D02*
X98690000Y-112505000D01*
X96090000Y-112505000D02*
X96090000Y-109905000D01*
X97420000Y-115105000D02*
X96090000Y-115105000D01*
X98690000Y-112505000D02*
X96090000Y-112505000D01*
X206330000Y-81130000D02*
X203670000Y-81130000D01*
X206330000Y-86330000D02*
X205000000Y-86330000D01*
X206330000Y-83730000D02*
X206330000Y-81130000D01*
X206330000Y-85000000D02*
X206330000Y-86330000D01*
X203670000Y-83730000D02*
X203670000Y-81130000D01*
X206330000Y-83730000D02*
X203670000Y-83730000D01*
X153462742Y-116577500D02*
X153937258Y-116577500D01*
X153462742Y-117622500D02*
X153937258Y-117622500D01*
X131330000Y-129040000D02*
X131330000Y-130370000D01*
X128670000Y-127770000D02*
X128670000Y-125170000D01*
X131330000Y-130370000D02*
X130000000Y-130370000D01*
X131330000Y-127770000D02*
X131330000Y-125170000D01*
X131330000Y-127770000D02*
X128670000Y-127770000D01*
X131330000Y-125170000D02*
X128670000Y-125170000D01*
X135500000Y-117300000D02*
G75*
G03*
X135500000Y-117300000I-1200000J0D01*
G01*
X95640580Y-97427500D02*
X95359420Y-97427500D01*
X95640580Y-98447500D02*
X95359420Y-98447500D01*
X152140000Y-113600000D02*
X152140000Y-115400000D01*
X152140000Y-113600000D02*
X152140000Y-112800000D01*
X155260000Y-113600000D02*
X155260000Y-114400000D01*
X155260000Y-113600000D02*
X155260000Y-112800000D01*
X199100000Y-98400000D02*
X197900000Y-98400000D01*
X197900000Y-102600000D02*
X199100000Y-102600000D01*
X207100000Y-98400000D02*
X207100000Y-102600000D01*
X197600000Y-98100000D02*
X197600000Y-99300000D01*
X207100000Y-102600000D02*
X205900000Y-102600000D01*
X197900000Y-98400000D02*
X197900000Y-102600000D01*
X205900000Y-98400000D02*
X207100000Y-98400000D01*
X198800000Y-98100000D02*
X197600000Y-98100000D01*
X184237258Y-94977500D02*
X183762742Y-94977500D01*
X184237258Y-96022500D02*
X183762742Y-96022500D01*
X97022500Y-92737258D02*
X97022500Y-92262742D01*
X95977500Y-92737258D02*
X95977500Y-92262742D01*
X93640580Y-88990000D02*
X93359420Y-88990000D01*
X93640580Y-90010000D02*
X93359420Y-90010000D01*
X198262742Y-92022500D02*
X198737258Y-92022500D01*
X198262742Y-90977500D02*
X198737258Y-90977500D01*
X203670000Y-115595000D02*
X206330000Y-115595000D01*
X206330000Y-112995000D02*
X206330000Y-115595000D01*
X203670000Y-112995000D02*
X206330000Y-112995000D01*
X203670000Y-112995000D02*
X203670000Y-115595000D01*
X203670000Y-111725000D02*
X203670000Y-110395000D01*
X203670000Y-110395000D02*
X205000000Y-110395000D01*
X148400000Y-129200000D02*
G75*
G03*
X148400000Y-129200000I-1200000J0D01*
G01*
X95235000Y-107485000D02*
X95235000Y-105200000D01*
X93765000Y-107485000D02*
X95235000Y-107485000D01*
X93765000Y-105200000D02*
X93765000Y-107485000D01*
X111500000Y-88275000D02*
X108775000Y-88275000D01*
X111500000Y-93725000D02*
X114225000Y-93725000D01*
X108775000Y-88275000D02*
X108775000Y-88535000D01*
X108775000Y-88535000D02*
X107100000Y-88535000D01*
X108775000Y-93725000D02*
X108775000Y-93465000D01*
X111500000Y-88275000D02*
X114225000Y-88275000D01*
X111500000Y-93725000D02*
X108775000Y-93725000D01*
X114225000Y-88275000D02*
X114225000Y-88535000D01*
X114225000Y-93725000D02*
X114225000Y-93465000D01*
X91850000Y-91100000D02*
X91850000Y-93900000D01*
X91850000Y-93900000D02*
X95150000Y-93900000D01*
X183762742Y-88022500D02*
X184237258Y-88022500D01*
X183762742Y-86977500D02*
X184237258Y-86977500D01*
X198737258Y-92977500D02*
X198262742Y-92977500D01*
X198737258Y-94022500D02*
X198262742Y-94022500D01*
X151210000Y-115734420D02*
X151210000Y-116015580D01*
X150190000Y-115734420D02*
X150190000Y-116015580D01*
X192340000Y-116300000D02*
X192340000Y-118200000D01*
X194660000Y-117700000D02*
X194660000Y-116300000D01*
X168400000Y-122800000D02*
G75*
G03*
X168400000Y-122800000I-1200000J0D01*
G01*
X111522500Y-102875242D02*
X111522500Y-103349758D01*
X110477500Y-102875242D02*
X110477500Y-103349758D01*
X192800000Y-130300000D02*
G75*
G03*
X192800000Y-130300000I-1200000J0D01*
G01*
X104490000Y-104796920D02*
X104490000Y-105078080D01*
X105510000Y-104796920D02*
X105510000Y-105078080D01*
X112359420Y-116990000D02*
X112640580Y-116990000D01*
X112359420Y-118010000D02*
X112640580Y-118010000D01*
X108859420Y-96947500D02*
X109140580Y-96947500D01*
X108859420Y-95927500D02*
X109140580Y-95927500D01*
X99859420Y-126010000D02*
X100140580Y-126010000D01*
X99859420Y-124990000D02*
X100140580Y-124990000D01*
X108262742Y-87522500D02*
X108737258Y-87522500D01*
X108262742Y-86477500D02*
X108737258Y-86477500D01*
X150190000Y-111240580D02*
X150190000Y-110959420D01*
X151210000Y-111240580D02*
X151210000Y-110959420D01*
X112359420Y-124990000D02*
X112640580Y-124990000D01*
X112359420Y-126010000D02*
X112640580Y-126010000D01*
X198359420Y-90010000D02*
X198640580Y-90010000D01*
X198359420Y-88990000D02*
X198640580Y-88990000D01*
X194140580Y-89290000D02*
X193859420Y-89290000D01*
X194140580Y-90310000D02*
X193859420Y-90310000D01*
X150300000Y-120700000D02*
G75*
G03*
X150300000Y-120700000I-1200000J0D01*
G01*
X155235000Y-125555000D02*
X153765000Y-125555000D01*
X155235000Y-127840000D02*
X155235000Y-125555000D01*
X153765000Y-125555000D02*
X153765000Y-127840000D01*
X162522500Y-126802742D02*
X162522500Y-127277258D01*
X161477500Y-126802742D02*
X161477500Y-127277258D01*
X162000000Y-115940000D02*
X162800000Y-115940000D01*
X162000000Y-119060000D02*
X161200000Y-119060000D01*
X162000000Y-115940000D02*
X160200000Y-115940000D01*
X162000000Y-119060000D02*
X162800000Y-119060000D01*
X125237258Y-123022500D02*
X124762742Y-123022500D01*
X125237258Y-121977500D02*
X124762742Y-121977500D01*
X100237258Y-131022500D02*
X99762742Y-131022500D01*
X100237258Y-129977500D02*
X99762742Y-129977500D01*
X108359420Y-103447500D02*
X108640580Y-103447500D01*
X108359420Y-102427500D02*
X108640580Y-102427500D01*
X198588748Y-84860000D02*
X200011252Y-84860000D01*
X198588748Y-82140000D02*
X200011252Y-82140000D01*
X178375000Y-126100000D02*
X178375000Y-128900000D01*
X176375000Y-126100000D02*
X178375000Y-126100000D01*
X176375000Y-128900000D02*
X176375000Y-126100000D01*
X178375000Y-128900000D02*
X176375000Y-128900000D01*
X169375000Y-128900000D02*
X169375000Y-126100000D01*
X171375000Y-126100000D02*
X171375000Y-128900000D01*
X171375000Y-128900000D02*
X169375000Y-128900000D01*
X169375000Y-126100000D02*
X171375000Y-126100000D01*
X138640580Y-119010000D02*
X138359420Y-119010000D01*
X138640580Y-117990000D02*
X138359420Y-117990000D01*
X108262742Y-84477500D02*
X108737258Y-84477500D01*
X108262742Y-85522500D02*
X108737258Y-85522500D01*
X121500000Y-97500000D02*
G75*
G03*
X121500000Y-97500000I-1200000J0D01*
G01*
X165872500Y-119359420D02*
X165872500Y-119640580D01*
X164852500Y-119359420D02*
X164852500Y-119640580D01*
X178159420Y-119710000D02*
X178440580Y-119710000D01*
X178159420Y-118690000D02*
X178440580Y-118690000D01*
X95240580Y-100410000D02*
X94959420Y-100410000D01*
X95240580Y-99390000D02*
X94959420Y-99390000D01*
X124859420Y-116990000D02*
X125140580Y-116990000D01*
X124859420Y-118010000D02*
X125140580Y-118010000D01*
X178159420Y-121572500D02*
X178440580Y-121572500D01*
X178159420Y-120552500D02*
X178440580Y-120552500D01*
X106330000Y-121000000D02*
X106330000Y-122330000D01*
X106330000Y-122330000D02*
X105000000Y-122330000D01*
X106330000Y-117130000D02*
X103670000Y-117130000D01*
X106330000Y-119730000D02*
X106330000Y-117130000D01*
X103670000Y-119730000D02*
X103670000Y-117130000D01*
X106330000Y-119730000D02*
X103670000Y-119730000D01*
X95235000Y-108515000D02*
X93765000Y-108515000D01*
X95235000Y-110800000D02*
X95235000Y-108515000D01*
X93765000Y-108515000D02*
X93765000Y-110800000D01*
X165235000Y-125555000D02*
X163765000Y-125555000D01*
X165235000Y-127840000D02*
X165235000Y-125555000D01*
X163765000Y-125555000D02*
X163765000Y-127840000D01*
X108859420Y-97927500D02*
X109140580Y-97927500D01*
X108859420Y-98947500D02*
X109140580Y-98947500D01*
X98612140Y-80776600D02*
X100082800Y-80776600D01*
X100082800Y-80776600D02*
X100082800Y-74223400D01*
X95917200Y-74223400D02*
X95917200Y-80776600D01*
X97387860Y-74223400D02*
X95917200Y-74223400D01*
X100082800Y-74223400D02*
X98612140Y-74223400D01*
X95917200Y-80776600D02*
X97387860Y-80776600D01*
X125140580Y-125030000D02*
X124859420Y-125030000D01*
X125140580Y-126050000D02*
X124859420Y-126050000D01*
D10*
X183325000Y-120175000D02*
X183625000Y-120175000D01*
X186450000Y-116825000D02*
X186450000Y-115600000D01*
X183325000Y-116825000D02*
X183625000Y-116825000D01*
X183325000Y-116825000D02*
X183325000Y-120175000D01*
X186675000Y-116825000D02*
X186675000Y-120175000D01*
X186675000Y-120175000D02*
X186375000Y-120175000D01*
X186675000Y-116825000D02*
X186450000Y-116825000D01*
D11*
X106330000Y-127730000D02*
X103670000Y-127730000D01*
X106330000Y-125130000D02*
X103670000Y-125130000D01*
X103670000Y-127730000D02*
X103670000Y-125130000D01*
X106330000Y-129000000D02*
X106330000Y-130330000D01*
X106330000Y-127730000D02*
X106330000Y-125130000D01*
X106330000Y-130330000D02*
X105000000Y-130330000D01*
X183859420Y-80510000D02*
X184140580Y-80510000D01*
X183859420Y-79490000D02*
X184140580Y-79490000D01*
X166477500Y-126802742D02*
X166477500Y-127277258D01*
X167522500Y-126802742D02*
X167522500Y-127277258D01*
X177400000Y-109000000D02*
G75*
G03*
X177400000Y-109000000I-1200000J0D01*
G01*
X184237258Y-88977500D02*
X183762742Y-88977500D01*
X184237258Y-90022500D02*
X183762742Y-90022500D01*
X162503080Y-121010000D02*
X162221920Y-121010000D01*
X162503080Y-119990000D02*
X162221920Y-119990000D01*
X112262742Y-127477500D02*
X112737258Y-127477500D01*
X112262742Y-128522500D02*
X112737258Y-128522500D01*
X112737258Y-129977500D02*
X112262742Y-129977500D01*
X112737258Y-131022500D02*
X112262742Y-131022500D01*
X100237258Y-121977500D02*
X99762742Y-121977500D01*
X100237258Y-123022500D02*
X99762742Y-123022500D01*
X108359420Y-100427500D02*
X108640580Y-100427500D01*
X108359420Y-101447500D02*
X108640580Y-101447500D01*
X103990000Y-92078080D02*
X103990000Y-91796920D01*
X105010000Y-92078080D02*
X105010000Y-91796920D01*
X175397500Y-127075242D02*
X175397500Y-127549758D01*
X174352500Y-127075242D02*
X174352500Y-127549758D01*
X135200000Y-125600000D02*
G75*
G03*
X135200000Y-125600000I-1200000J0D01*
G01*
X192800000Y-124700000D02*
G75*
G03*
X192800000Y-124700000I-1200000J0D01*
G01*
X99859420Y-116990000D02*
X100140580Y-116990000D01*
X99859420Y-118010000D02*
X100140580Y-118010000D01*
X89977500Y-94087742D02*
X89977500Y-94562258D01*
X91022500Y-94087742D02*
X91022500Y-94562258D01*
X186288420Y-114589000D02*
X186569580Y-114589000D01*
X186288420Y-113569000D02*
X186569580Y-113569000D01*
X93359420Y-94990000D02*
X93640580Y-94990000D01*
X93359420Y-96010000D02*
X93640580Y-96010000D01*
X194140580Y-86010000D02*
X193859420Y-86010000D01*
X194140580Y-84990000D02*
X193859420Y-84990000D01*
X143360000Y-124160000D02*
X142050000Y-124160000D01*
X138640000Y-124160000D02*
X138640000Y-121440000D01*
X143360000Y-121440000D02*
X143360000Y-124160000D01*
X143360000Y-121440000D02*
X143130000Y-121440000D01*
X143130000Y-120300000D02*
X143130000Y-121440000D01*
X139950000Y-124160000D02*
X138640000Y-124160000D01*
X138640000Y-121440000D02*
X138870000Y-121440000D01*
X187419000Y-120219580D02*
X187419000Y-119938420D01*
X188439000Y-120219580D02*
X188439000Y-119938420D01*
X199311252Y-97460000D02*
X197888748Y-97460000D01*
X199311252Y-94740000D02*
X197888748Y-94740000D01*
X165721920Y-117510000D02*
X166003080Y-117510000D01*
X165721920Y-116490000D02*
X166003080Y-116490000D01*
X99890000Y-104759420D02*
X99890000Y-105040580D01*
X100910000Y-104759420D02*
X100910000Y-105040580D01*
X141859420Y-117990000D02*
X142140580Y-117990000D01*
X141859420Y-119010000D02*
X142140580Y-119010000D01*
X125237258Y-130017500D02*
X124762742Y-130017500D01*
X125237258Y-131062500D02*
X124762742Y-131062500D01*
X124762742Y-127517500D02*
X125237258Y-127517500D01*
X124762742Y-128562500D02*
X125237258Y-128562500D01*
X100762742Y-88460000D02*
X101237258Y-88460000D01*
X100762742Y-87415000D02*
X101237258Y-87415000D01*
X194265580Y-77490000D02*
X193984420Y-77490000D01*
X194265580Y-78510000D02*
X193984420Y-78510000D01*
X97737258Y-87415000D02*
X97262742Y-87415000D01*
X97737258Y-88460000D02*
X97262742Y-88460000D01*
X153600000Y-120700000D02*
G75*
G03*
X153600000Y-120700000I-1200000J0D01*
G01*
%LPC*%
D13*
X124175000Y-120000000D03*
X125825000Y-120000000D03*
D14*
X115500000Y-87000000D03*
X113950000Y-87000000D03*
D15*
X184825000Y-91500000D03*
X183175000Y-91500000D03*
D16*
X199400000Y-125600000D03*
D17*
X117500000Y-129000000D03*
D18*
X117500000Y-126460000D03*
D17*
X104040000Y-69000000D03*
D18*
X101500000Y-69000000D03*
X98960000Y-69000000D03*
D17*
X205000000Y-94318750D03*
D18*
X205000000Y-91778750D03*
D19*
X100400000Y-92712500D03*
X100400000Y-91162500D03*
D13*
X99175000Y-120000000D03*
X100825000Y-120000000D03*
D20*
X195905000Y-113500000D03*
X197455000Y-113500000D03*
D21*
X158862500Y-120325000D03*
X158862500Y-118675000D03*
D15*
X113325000Y-122500000D03*
X111675000Y-122500000D03*
D14*
X184775000Y-93500000D03*
X183225000Y-93500000D03*
D22*
X90500000Y-68000000D03*
D23*
X159500000Y-126252500D03*
X159500000Y-127827500D03*
D24*
X172875000Y-126487500D03*
X172875000Y-128137500D03*
D16*
X190800000Y-119900000D03*
D20*
X195905000Y-115500000D03*
X197455000Y-115500000D03*
D13*
X99175000Y-128000000D03*
X100825000Y-128000000D03*
D17*
X130000000Y-121000000D03*
D18*
X130000000Y-118460000D03*
D14*
X138275000Y-127000000D03*
X136725000Y-127000000D03*
D25*
X107000000Y-104662500D03*
X107000000Y-106212500D03*
D24*
X113000000Y-102287500D03*
X113000000Y-103937500D03*
D14*
X194775000Y-87500000D03*
X193225000Y-87500000D03*
D24*
X157000000Y-126215000D03*
X157000000Y-127865000D03*
D17*
X117500000Y-121000000D03*
D18*
X117500000Y-118460000D03*
D16*
X120300000Y-111800000D03*
D26*
X104600000Y-95000000D03*
X104200000Y-95000000D03*
X103800000Y-95000000D03*
X103400000Y-95000000D03*
X103000000Y-95000000D03*
X102600000Y-95000000D03*
X102200000Y-95000000D03*
X101800000Y-95000000D03*
X101400000Y-95000000D03*
X101000000Y-95000000D03*
X100600000Y-95000000D03*
X100200000Y-95000000D03*
X99800000Y-95000000D03*
X99400000Y-95000000D03*
D27*
X98562500Y-95837500D03*
X98562500Y-96237500D03*
X98562500Y-96637500D03*
X98562500Y-97037500D03*
X98562500Y-97437500D03*
X98562500Y-97837500D03*
X98562500Y-98237500D03*
X98562500Y-98637500D03*
X98562500Y-99037500D03*
X98562500Y-99437500D03*
X98562500Y-99837500D03*
X98562500Y-100237500D03*
X98562500Y-100637500D03*
X98562500Y-101037500D03*
D26*
X99400000Y-101875000D03*
X99800000Y-101875000D03*
X100200000Y-101875000D03*
X100600000Y-101875000D03*
X101000000Y-101875000D03*
X101400000Y-101875000D03*
X101800000Y-101875000D03*
X102200000Y-101875000D03*
X102600000Y-101875000D03*
X103000000Y-101875000D03*
X103400000Y-101875000D03*
X103800000Y-101875000D03*
X104200000Y-101875000D03*
X104600000Y-101875000D03*
D27*
X105437500Y-101037500D03*
X105437500Y-100637500D03*
X105437500Y-100237500D03*
X105437500Y-99837500D03*
X105437500Y-99437500D03*
X105437500Y-99037500D03*
X105437500Y-98637500D03*
X105437500Y-98237500D03*
X105437500Y-97837500D03*
X105437500Y-97437500D03*
X105437500Y-97037500D03*
X105437500Y-96637500D03*
X105437500Y-96237500D03*
X105437500Y-95837500D03*
D28*
X102000000Y-98437500D03*
D29*
X105000000Y-74199300D03*
X105000000Y-80800700D03*
D17*
X136200000Y-130000000D03*
D18*
X138740000Y-130000000D03*
X141280000Y-130000000D03*
X143820000Y-130000000D03*
D13*
X197675000Y-87500000D03*
X199325000Y-87500000D03*
D16*
X174100000Y-104400000D03*
D13*
X183175000Y-82000000D03*
X184825000Y-82000000D03*
D30*
X175674999Y-116880600D03*
X175025001Y-116880600D03*
X174374999Y-116880600D03*
X173725001Y-116880600D03*
X173075002Y-116880600D03*
X172425001Y-116880600D03*
X171775002Y-116880600D03*
X171125001Y-116880600D03*
X171125001Y-122519400D03*
X171774999Y-122519400D03*
X172425001Y-122519400D03*
X173074999Y-122519400D03*
X173724998Y-122519400D03*
X174374999Y-122519400D03*
X175024998Y-122519400D03*
X175674999Y-122519400D03*
D13*
X111675000Y-120000000D03*
X113325000Y-120000000D03*
D17*
X97420000Y-113775000D03*
D18*
X97420000Y-111235000D03*
X99960000Y-113775000D03*
X99960000Y-111235000D03*
X102500000Y-113775000D03*
X102500000Y-111235000D03*
X105040000Y-113775000D03*
X105040000Y-111235000D03*
X107580000Y-113775000D03*
X107580000Y-111235000D03*
X110120000Y-113775000D03*
X110120000Y-111235000D03*
D17*
X205000000Y-85000000D03*
D18*
X205000000Y-82460000D03*
D13*
X152875000Y-117100000D03*
X154525000Y-117100000D03*
D17*
X130000000Y-129040000D03*
D18*
X130000000Y-126500000D03*
D16*
X134300000Y-117300000D03*
D14*
X96275000Y-97937500D03*
X94725000Y-97937500D03*
D31*
X152750000Y-114737500D03*
X153700000Y-114737500D03*
X154650000Y-114737500D03*
X154650000Y-112462500D03*
X152750000Y-112462500D03*
D32*
X200000000Y-98850000D03*
D33*
X202500000Y-98850000D03*
X205000000Y-98850000D03*
X200000000Y-102150000D03*
X202500000Y-102150000D03*
X205000000Y-102150000D03*
D15*
X184825000Y-95500000D03*
X183175000Y-95500000D03*
D21*
X96500000Y-93325000D03*
X96500000Y-91675000D03*
D14*
X94275000Y-89500000D03*
X92725000Y-89500000D03*
D13*
X197675000Y-91500000D03*
X199325000Y-91500000D03*
D17*
X205000000Y-111725000D03*
D18*
X205000000Y-114265000D03*
D16*
X147200000Y-129200000D03*
D34*
X94500000Y-106787500D03*
X94500000Y-105212500D03*
D35*
X107900000Y-89095000D03*
X107900000Y-90365000D03*
X107900000Y-91635000D03*
X107900000Y-92905000D03*
X115100000Y-92905000D03*
X115100000Y-91635000D03*
X115100000Y-90365000D03*
X115100000Y-89095000D03*
D36*
X92625000Y-93200000D03*
X94375000Y-93200000D03*
X94375000Y-91800000D03*
X92625000Y-91800000D03*
D13*
X183175000Y-87500000D03*
X184825000Y-87500000D03*
D15*
X199325000Y-93500000D03*
X197675000Y-93500000D03*
D25*
X150700000Y-115100000D03*
X150700000Y-116650000D03*
D37*
X192850000Y-118100000D03*
X193500000Y-118100000D03*
X194150000Y-118100000D03*
X194150000Y-115900000D03*
X193500000Y-115900000D03*
X192850000Y-115900000D03*
D16*
X167200000Y-122800000D03*
D24*
X111000000Y-102287500D03*
X111000000Y-103937500D03*
D16*
X191600000Y-130300000D03*
D25*
X105000000Y-104162500D03*
X105000000Y-105712500D03*
D20*
X111725000Y-117500000D03*
X113275000Y-117500000D03*
X108225000Y-96437500D03*
X109775000Y-96437500D03*
X99225000Y-125500000D03*
X100775000Y-125500000D03*
D13*
X107675000Y-87000000D03*
X109325000Y-87000000D03*
D19*
X150700000Y-111875000D03*
X150700000Y-110325000D03*
D20*
X111725000Y-125500000D03*
X113275000Y-125500000D03*
X197725000Y-89500000D03*
X199275000Y-89500000D03*
D14*
X194775000Y-89800000D03*
X193225000Y-89800000D03*
D16*
X149100000Y-120700000D03*
D23*
X154500000Y-126252500D03*
X154500000Y-127827500D03*
D24*
X162000000Y-126215000D03*
X162000000Y-127865000D03*
D38*
X160862500Y-116550000D03*
X160862500Y-117500000D03*
X160862500Y-118450000D03*
X163137500Y-118450000D03*
X163137500Y-117500000D03*
X163137500Y-116550000D03*
D15*
X125825000Y-122500000D03*
X124175000Y-122500000D03*
X100825000Y-130500000D03*
X99175000Y-130500000D03*
D20*
X107725000Y-102937500D03*
X109275000Y-102937500D03*
D39*
X197825000Y-83500000D03*
X200775000Y-83500000D03*
D40*
X177375000Y-126775000D03*
D41*
X177375000Y-128225000D03*
D40*
X170375000Y-126775000D03*
D41*
X170375000Y-128225000D03*
D14*
X139275000Y-118500000D03*
X137725000Y-118500000D03*
D13*
X107675000Y-85000000D03*
X109325000Y-85000000D03*
D16*
X120300000Y-97500000D03*
D25*
X165362500Y-118725000D03*
X165362500Y-120275000D03*
D20*
X177525000Y-119200000D03*
X179075000Y-119200000D03*
D14*
X95875000Y-99900000D03*
X94325000Y-99900000D03*
D20*
X124225000Y-117500000D03*
X125775000Y-117500000D03*
X177525000Y-121062500D03*
X179075000Y-121062500D03*
D17*
X105000000Y-121000000D03*
D18*
X105000000Y-118460000D03*
D23*
X94500000Y-109212500D03*
X94500000Y-110787500D03*
X164500000Y-126252500D03*
X164500000Y-127827500D03*
D20*
X108225000Y-98437500D03*
X109775000Y-98437500D03*
D29*
X98000000Y-74199300D03*
X98000000Y-80800700D03*
D42*
X189300000Y-91595000D03*
X189300000Y-92865000D03*
X189300000Y-94135000D03*
X189300000Y-95405000D03*
X194700000Y-95405000D03*
X194700000Y-94135000D03*
X194700000Y-92865000D03*
X194700000Y-91595000D03*
D14*
X125775000Y-125540000D03*
X124225000Y-125540000D03*
D43*
X186000000Y-116300000D03*
X185500000Y-116300000D03*
X185000000Y-116300000D03*
X184500000Y-116300000D03*
X184000000Y-116300000D03*
X184000000Y-120700000D03*
X184500000Y-120700000D03*
X185000000Y-120700000D03*
X185500000Y-120700000D03*
X186000000Y-120700000D03*
D17*
X105000000Y-129000000D03*
D18*
X105000000Y-126460000D03*
D44*
X91500000Y-107250000D03*
X91500000Y-107900000D03*
X91500000Y-108550000D03*
X91500000Y-109200000D03*
X91500000Y-109850000D03*
D45*
X88850000Y-105725000D03*
D46*
X88850000Y-109725000D03*
D45*
X88850000Y-111375000D03*
D47*
X91400000Y-105450000D03*
D46*
X88850000Y-107375000D03*
D47*
X91400000Y-111650000D03*
D20*
X183225000Y-80000000D03*
X184775000Y-80000000D03*
D24*
X167000000Y-126215000D03*
X167000000Y-127865000D03*
D22*
X90500000Y-129500000D03*
D16*
X176200000Y-109000000D03*
D22*
X204500000Y-68000000D03*
D15*
X184825000Y-89500000D03*
X183175000Y-89500000D03*
D42*
X189300000Y-80095000D03*
X189300000Y-81365000D03*
X189300000Y-82635000D03*
X189300000Y-83905000D03*
X194700000Y-83905000D03*
X194700000Y-82635000D03*
X194700000Y-81365000D03*
X194700000Y-80095000D03*
D14*
X163137500Y-120500000D03*
X161587500Y-120500000D03*
D13*
X111675000Y-128000000D03*
X113325000Y-128000000D03*
D15*
X113325000Y-130500000D03*
X111675000Y-130500000D03*
X100825000Y-122500000D03*
X99175000Y-122500000D03*
D20*
X107725000Y-100937500D03*
X109275000Y-100937500D03*
D19*
X104500000Y-92712500D03*
X104500000Y-91162500D03*
D24*
X174875000Y-126487500D03*
X174875000Y-128137500D03*
D16*
X134000000Y-125600000D03*
X191600000Y-124700000D03*
D20*
X99225000Y-117500000D03*
X100775000Y-117500000D03*
D24*
X90500000Y-93500000D03*
X90500000Y-95150000D03*
D20*
X185654000Y-114079000D03*
X187204000Y-114079000D03*
X92725000Y-95500000D03*
X94275000Y-95500000D03*
D14*
X194775000Y-85500000D03*
X193225000Y-85500000D03*
D48*
X142500000Y-120850000D03*
D49*
X141000000Y-120937500D03*
D48*
X139500000Y-120850000D03*
D19*
X187929000Y-120854000D03*
X187929000Y-119304000D03*
D50*
X200075000Y-96100000D03*
X197125000Y-96100000D03*
D20*
X165087500Y-117000000D03*
X166637500Y-117000000D03*
D25*
X100400000Y-104125000D03*
X100400000Y-105675000D03*
D20*
X141225000Y-118500000D03*
X142775000Y-118500000D03*
D15*
X125825000Y-130540000D03*
X124175000Y-130540000D03*
D13*
X124175000Y-128040000D03*
X125825000Y-128040000D03*
X100175000Y-87937500D03*
X101825000Y-87937500D03*
D14*
X194900000Y-78000000D03*
X193350000Y-78000000D03*
D15*
X98325000Y-87937500D03*
X96675000Y-87937500D03*
D22*
X204500000Y-129500000D03*
D16*
X152400000Y-120700000D03*
D51*
X162187500Y-112200000D03*
X158687500Y-112200000D03*
D52*
X164687500Y-73400000D03*
X156187500Y-72500000D03*
X156187500Y-107700000D03*
X164687500Y-106200000D03*
D51*
X162187500Y-68400000D03*
X130875000Y-112200000D03*
X127375000Y-112200000D03*
D52*
X133375000Y-73400000D03*
X124875000Y-72500000D03*
D51*
X130875000Y-68400000D03*
D52*
X124875000Y-107700000D03*
X133375000Y-106200000D03*
D51*
X177843750Y-112200000D03*
X174343750Y-112200000D03*
X177843750Y-68400000D03*
D52*
X171843750Y-107700000D03*
X180343750Y-73400000D03*
X180343750Y-106200000D03*
X171843750Y-72500000D03*
D51*
X193500000Y-112200000D03*
X190000000Y-112200000D03*
X193500000Y-68400000D03*
D52*
X196000000Y-106200000D03*
X187500000Y-107700000D03*
X187500000Y-72500000D03*
X196000000Y-73400000D03*
D51*
X146531250Y-112200000D03*
X143031250Y-112200000D03*
D52*
X140531250Y-107700000D03*
X140531250Y-72500000D03*
X149031250Y-106200000D03*
D51*
X146531250Y-68400000D03*
D52*
X149031250Y-73400000D03*
M02*
