M48
; DRILL file {KiCad (6.0.5)} date Wed Oct 11 11:29:27 2023
; FORMAT={-:-/ absolute / metric / decimal}
; #@! TF.CreationDate,2023-10-11T11:29:27-04:00
; #@! TF.GenerationSoftware,Kicad,Pcbnew,(6.0.5)
; #@! TF.FileFunction,Plated,1,4,PTH
FMAT,2
METRIC
; #@! TA.AperFunction,Plated,PTH,ViaDrill
T1C0.300
; #@! TA.AperFunction,Plated,PTH,ComponentDrill
T2C0.500
; #@! TA.AperFunction,Plated,PTH,ComponentDrill
T3C0.900
; #@! TA.AperFunction,Plated,PTH,ComponentDrill
T4C1.000
; #@! TA.AperFunction,Plated,PTH,ComponentDrill
T5C1.300
; #@! TA.AperFunction,Plated,PTH,ComponentDrill
T6C1.800
; #@! TA.AperFunction,Plated,PTH,ComponentDrill
T7C2.200
%
G90
G05
T1
X91.2Y-91.8
X91.8Y-94.4
X91.8Y-103.6
X91.8Y-113.7
X92.7Y-88.2
X93.0Y-109.8
X93.4Y-99.9
X93.6Y-78.7
X93.6Y-97.9
X93.8Y-83.0
X94.1Y-100.9
X94.1Y-101.8
X94.4Y-94.4
X94.6Y-103.8
X94.6Y-112.5
X94.8Y-86.3
X95.1Y-122.0
X95.6Y-87.9
X96.0Y-107.5
X96.1Y-86.2
X96.2Y-103.0
X96.3Y-94.3
X96.5Y-79.0
X96.6Y-116.3
X96.8Y-95.3
X96.8Y-103.8
X96.9Y-99.6
X96.9Y-107.5
X96.929Y-96.171
X97.2Y-83.1
X97.2Y-86.5
X97.3Y-98.7
X97.742Y-107.5
X97.9Y-93.3
X98.0Y-72.1
X98.3Y-86.8
X98.6Y-107.5
X99.2Y-105.7
X99.5Y-107.5
X100.0Y-90.0
X100.2Y-86.8
X100.4Y-107.525
X100.876Y-103.0
X100.9Y-93.5
X101.0Y-97.5
X101.0Y-98.5
X101.0Y-99.5
X101.1Y-90.1
X101.3Y-107.5
X101.9Y-117.6
X101.9Y-122.5
X102.0Y-97.5
X102.0Y-98.5
X102.0Y-99.5
X102.1Y-130.5
X102.2Y-107.5
X102.4Y-93.5
X103.0Y-97.5
X103.0Y-98.5
X103.0Y-99.5
X103.1Y-107.525
X103.2Y-91.3
X103.2Y-92.2
X103.3Y-87.9
X103.6Y-93.5
X103.7Y-83.9
X104.0Y-107.525
X104.5Y-90.0
X104.7Y-93.7
X104.724Y-103.1
X104.961Y-107.525
X105.0Y-72.2
X105.1Y-84.8
X105.8Y-106.5
X106.0Y-103.7
X106.6Y-100.5
X106.9Y-101.7
X107.0Y-98.8
X107.4Y-82.3
X107.9Y-93.6
X108.2Y-106.2
X108.5Y-107.5
X108.8Y-97.4
X109.3Y-104.1
X110.5Y-87.0
X110.5Y-100.9
X110.6Y-84.9
X110.7Y-96.8
X110.7Y-98.4
X112.5Y-87.0
X112.5Y-115.3
X112.5Y-118.7
X113.9Y-105.3
X114.3Y-125.5
X114.4Y-117.5
X114.4Y-130.5
X114.5Y-122.6
X115.3Y-120.0
X115.4Y-121.8
X116.7Y-88.0
X118.7Y-113.6
X119.9Y-114.2
X121.7Y-117.2
X123.9Y-126.7
X126.9Y-122.6
X126.9Y-130.6
X136.6Y-118.5
X137.7Y-122.5
X138.0Y-123.4
X138.8Y-119.5
X139.2Y-126.0
X139.6Y-119.5
X141.0Y-119.6
X143.0Y-119.6
X146.3Y-121.7
X146.5Y-120.8
X147.5Y-125.1
X148.7Y-127.4
X149.2Y-129.4
X149.9Y-113.0
X150.7Y-113.0
X151.5Y-113.0
X151.7Y-111.4
X152.0Y-116.0
X153.9Y-113.6
X157.0Y-125.2
X159.0Y-102.9
X159.4Y-116.4
X160.4Y-120.8
X164.2Y-119.4
X165.3Y-121.4
X167.0Y-125.0
X167.7Y-118.5
X169.1Y-118.1
X170.4Y-129.9
X170.7Y-123.9
X171.8Y-120.3
X172.7Y-121.1
X172.9Y-129.8
X174.9Y-129.7
X176.1Y-104.3
X176.425Y-120.5
X177.4Y-129.9
X180.3Y-119.2
X180.3Y-121.0
X180.4Y-127.8
X180.5Y-129.4
X181.3Y-127.8
X182.8Y-130.0
X183.0Y-85.9
X183.6Y-104.4
X183.9Y-113.4
X184.0Y-117.8
X184.3Y-99.0
X184.3Y-122.3
X184.4Y-130.7
X185.0Y-97.0
X185.6Y-112.9
X185.8Y-122.3
X186.7Y-115.6
X186.8Y-121.6
X187.9Y-118.1
X188.5Y-114.0
X188.9Y-96.2
X191.2Y-82.6
X191.8Y-118.1
X191.9Y-85.5
X191.9Y-87.5
X191.9Y-89.6
X191.925Y-77.9
X192.5Y-123.1
X192.524Y-93.5
X193.3Y-114.4
X194.3Y-120.0
X194.4Y-114.9
X194.5Y-114.0
X195.4Y-118.1
X195.9Y-89.5
X196.225Y-78.0
X196.5Y-81.5
X198.5Y-113.5
X198.5Y-115.5
X200.5Y-93.5
X200.8Y-128.0
X200.9Y-88.3
X204.3Y-124.2
T3
X200.0Y-98.85
X200.0Y-102.15
X202.5Y-98.85
X202.5Y-102.15
X205.0Y-98.85
X205.0Y-102.15
T4
X97.42Y-111.235
X97.42Y-113.775
X98.96Y-69.0
X99.96Y-111.235
X99.96Y-113.775
X101.5Y-69.0
X102.5Y-111.235
X102.5Y-113.775
X104.04Y-69.0
X105.0Y-118.46
X105.0Y-121.0
X105.0Y-126.46
X105.0Y-129.0
X105.04Y-111.235
X105.04Y-113.775
X107.58Y-111.235
X107.58Y-113.775
X110.12Y-111.235
X110.12Y-113.775
X117.5Y-118.46
X117.5Y-121.0
X117.5Y-126.46
X117.5Y-129.0
X130.0Y-118.46
X130.0Y-121.0
X130.0Y-126.5
X130.0Y-129.04
X136.2Y-130.0
X138.74Y-130.0
X141.28Y-130.0
X143.82Y-130.0
X205.0Y-82.46
X205.0Y-85.0
X205.0Y-91.779
X205.0Y-94.319
X205.0Y-111.725
X205.0Y-114.265
T5
X127.375Y-112.2
X130.875Y-68.4
X130.875Y-112.2
X143.031Y-112.2
X146.531Y-68.4
X146.531Y-112.2
X158.688Y-112.2
X162.188Y-68.4
X162.188Y-112.2
X174.344Y-112.2
X177.844Y-68.4
X177.844Y-112.2
X190.0Y-112.2
X193.5Y-68.4
X193.5Y-112.2
T6
X124.875Y-72.5
X124.875Y-107.7
X133.375Y-73.4
X133.375Y-106.2
X140.531Y-72.5
X140.531Y-107.7
X149.031Y-73.4
X149.031Y-106.2
X156.188Y-72.5
X156.188Y-107.7
X164.688Y-73.4
X164.688Y-106.2
X171.844Y-72.5
X171.844Y-107.7
X180.344Y-73.4
X180.344Y-106.2
X187.5Y-72.5
X187.5Y-107.7
X196.0Y-73.4
X196.0Y-106.2
T7
X90.5Y-68.0
X90.5Y-129.5
X204.5Y-68.0
X204.5Y-129.5
T2
X89.2Y-105.725G85X88.5Y-105.725
G05
X89.2Y-111.375G85X88.5Y-111.375
G05
T0
M30
